<svg width="32" height="36" viewBox="0 0 32 36" fill="none" xmlns="http://www.w3.org/2000/svg">
<rect width="32" height="32" rx="8" fill="#292929"/>
<path d="M5.88672 15.5039H4.42578L4.41797 14.6992H5.64453C5.86068 14.6992 6.03776 14.6719 6.17578 14.6172C6.3138 14.5599 6.41667 14.4779 6.48438 14.3711C6.55469 14.2617 6.58984 14.1289 6.58984 13.9727C6.58984 13.7956 6.55599 13.6523 6.48828 13.543C6.42318 13.4336 6.32031 13.3542 6.17969 13.3047C6.04167 13.2552 5.86328 13.2305 5.64453 13.2305H4.83203V18H3.66016V12.3125H5.64453C5.97526 12.3125 6.27083 12.3438 6.53125 12.4062C6.79427 12.4688 7.01693 12.5638 7.19922 12.6914C7.38151 12.819 7.52083 12.9805 7.61719 13.1758C7.71354 13.3685 7.76172 13.5977 7.76172 13.8633C7.76172 14.0977 7.70833 14.3138 7.60156 14.5117C7.4974 14.7096 7.33203 14.8711 7.10547 14.9961C6.88151 15.1211 6.58854 15.1901 6.22656 15.2031L5.88672 15.5039ZM5.83594 18H4.10547L4.5625 17.0859H5.83594C6.04167 17.0859 6.20964 17.0534 6.33984 16.9883C6.47005 16.9206 6.56641 16.8294 6.62891 16.7148C6.69141 16.6003 6.72266 16.4688 6.72266 16.3203C6.72266 16.1536 6.69401 16.0091 6.63672 15.8867C6.58203 15.7643 6.49349 15.6706 6.37109 15.6055C6.2487 15.5378 6.08724 15.5039 5.88672 15.5039H4.75781L4.76562 14.6992H6.17188L6.44141 15.0156C6.78776 15.0104 7.06641 15.0716 7.27734 15.1992C7.49089 15.3242 7.64583 15.487 7.74219 15.6875C7.84115 15.888 7.89062 16.1029 7.89062 16.332C7.89062 16.6966 7.8112 17.0039 7.65234 17.2539C7.49349 17.5013 7.26042 17.6875 6.95312 17.8125C6.64844 17.9375 6.27604 18 5.83594 18ZM9.95312 17.5234L11.0742 13.7734H12.2812L10.582 18.6367C10.5456 18.7435 10.4961 18.8581 10.4336 18.9805C10.3737 19.1029 10.2917 19.2188 10.1875 19.3281C10.0859 19.4401 9.95703 19.5312 9.80078 19.6016C9.64714 19.6719 9.45833 19.707 9.23438 19.707C9.1276 19.707 9.04036 19.7005 8.97266 19.6875C8.90495 19.6745 8.82422 19.6562 8.73047 19.6328V18.8086C8.75911 18.8086 8.78906 18.8086 8.82031 18.8086C8.85156 18.8112 8.88151 18.8125 8.91016 18.8125C9.05859 18.8125 9.17969 18.7956 9.27344 18.7617C9.36719 18.7279 9.44271 18.6758 9.5 18.6055C9.55729 18.5378 9.60286 18.4492 9.63672 18.3398L9.95312 17.5234ZM9.48438 13.7734L10.4023 16.8359L10.5625 18.0273L9.79688 18.1094L8.27734 13.7734H9.48438ZM16.0977 16.1133H17.2656C17.2422 16.4961 17.1367 16.8359 16.9492 17.1328C16.7643 17.4297 16.5052 17.6615 16.1719 17.8281C15.8411 17.9948 15.4427 18.0781 14.9766 18.0781C14.612 18.0781 14.2852 18.0156 13.9961 17.8906C13.707 17.763 13.4596 17.5807 13.2539 17.3438C13.0508 17.1068 12.8958 16.8203 12.7891 16.4844C12.6823 16.1484 12.6289 15.7721 12.6289 15.3555V14.9609C12.6289 14.5443 12.6836 14.168 12.793 13.832C12.9049 13.4935 13.0638 13.2057 13.2695 12.9688C13.4779 12.7318 13.7266 12.5495 14.0156 12.4219C14.3047 12.2943 14.6276 12.2305 14.9844 12.2305C15.4583 12.2305 15.8581 12.3164 16.1836 12.4883C16.5117 12.6602 16.7656 12.8971 16.9453 13.1992C17.1276 13.5013 17.237 13.8451 17.2734 14.2305H16.1016C16.0885 14.0013 16.043 13.8073 15.9648 13.6484C15.8867 13.487 15.7682 13.3659 15.6094 13.2852C15.4531 13.2018 15.2448 13.1602 14.9844 13.1602C14.7891 13.1602 14.6185 13.1966 14.4727 13.2695C14.3268 13.3424 14.2044 13.4531 14.1055 13.6016C14.0065 13.75 13.9323 13.9375 13.8828 14.1641C13.8359 14.388 13.8125 14.651 13.8125 14.9531V15.3555C13.8125 15.6497 13.8346 15.9089 13.8789 16.1328C13.9232 16.3542 13.9909 16.5417 14.082 16.6953C14.1758 16.8464 14.2956 16.9609 14.4414 17.0391C14.5898 17.1146 14.7682 17.1523 14.9766 17.1523C15.2214 17.1523 15.4232 17.1133 15.582 17.0352C15.7409 16.957 15.862 16.8411 15.9453 16.6875C16.0312 16.5339 16.082 16.3424 16.0977 16.1133ZM20.2461 17.0469V15.1641C20.2461 15.0286 20.224 14.9128 20.1797 14.8164C20.1354 14.7174 20.0664 14.6406 19.9727 14.5859C19.8815 14.5312 19.763 14.5039 19.6172 14.5039C19.4922 14.5039 19.3841 14.526 19.293 14.5703C19.2018 14.612 19.1315 14.6732 19.082 14.7539C19.0326 14.832 19.0078 14.9245 19.0078 15.0312H17.8828C17.8828 14.8516 17.9245 14.681 18.0078 14.5195C18.0911 14.3581 18.2122 14.2161 18.3711 14.0938C18.5299 13.9688 18.7188 13.8711 18.9375 13.8008C19.1589 13.7305 19.4062 13.6953 19.6797 13.6953C20.0078 13.6953 20.2995 13.75 20.5547 13.8594C20.8099 13.9688 21.0104 14.1328 21.1562 14.3516C21.3047 14.5703 21.3789 14.8438 21.3789 15.1719V16.9805C21.3789 17.2122 21.3932 17.4023 21.4219 17.5508C21.4505 17.6966 21.4922 17.8242 21.5469 17.9336V18H20.4102C20.3555 17.8854 20.3138 17.7422 20.2852 17.5703C20.2591 17.3958 20.2461 17.2214 20.2461 17.0469ZM20.3945 15.4258L20.4023 16.0625H19.7734C19.625 16.0625 19.4961 16.0794 19.3867 16.1133C19.2773 16.1471 19.1875 16.1953 19.1172 16.2578C19.0469 16.3177 18.9948 16.388 18.9609 16.4688C18.9297 16.5495 18.9141 16.638 18.9141 16.7344C18.9141 16.8307 18.9362 16.918 18.9805 16.9961C19.0247 17.0716 19.0885 17.1315 19.1719 17.1758C19.2552 17.2174 19.3529 17.2383 19.4648 17.2383C19.6341 17.2383 19.7812 17.2044 19.9062 17.1367C20.0312 17.069 20.1276 16.9857 20.1953 16.8867C20.2656 16.7878 20.3021 16.694 20.3047 16.6055L20.6016 17.082C20.5599 17.1888 20.5026 17.2995 20.4297 17.4141C20.3594 17.5286 20.2695 17.6367 20.1602 17.7383C20.0508 17.8372 19.9193 17.9193 19.7656 17.9844C19.612 18.0469 19.4297 18.0781 19.2188 18.0781C18.9505 18.0781 18.707 18.0247 18.4883 17.918C18.2721 17.8086 18.1003 17.6589 17.9727 17.4688C17.8477 17.276 17.7852 17.0573 17.7852 16.8125C17.7852 16.5911 17.8268 16.3945 17.9102 16.2227C17.9935 16.0508 18.1159 15.9062 18.2773 15.7891C18.4414 15.6693 18.6458 15.5794 18.8906 15.5195C19.1354 15.457 19.4193 15.4258 19.7422 15.4258H20.3945ZM23.3711 14.6953V18H22.2461V13.7734H23.3047L23.3711 14.6953ZM24.6445 13.7461L24.625 14.7891C24.5703 14.7812 24.5039 14.7747 24.4258 14.7695C24.3503 14.7617 24.2812 14.7578 24.2188 14.7578C24.0599 14.7578 23.9219 14.7786 23.8047 14.8203C23.6901 14.8594 23.5938 14.918 23.5156 14.9961C23.4401 15.0742 23.3828 15.1693 23.3438 15.2812C23.3073 15.3932 23.2865 15.5208 23.2812 15.6641L23.0547 15.5938C23.0547 15.3203 23.082 15.069 23.1367 14.8398C23.1914 14.6081 23.2708 14.4062 23.375 14.2344C23.4818 14.0625 23.612 13.9297 23.7656 13.8359C23.9193 13.7422 24.0951 13.6953 24.293 13.6953C24.3555 13.6953 24.4193 13.7005 24.4844 13.7109C24.5495 13.7188 24.6029 13.7305 24.6445 13.7461ZM27.4609 16.832C27.4609 16.7513 27.4375 16.6784 27.3906 16.6133C27.3438 16.5482 27.2565 16.4883 27.1289 16.4336C27.0039 16.3763 26.8229 16.3242 26.5859 16.2773C26.3724 16.2305 26.1732 16.1719 25.9883 16.1016C25.806 16.0286 25.6471 15.9414 25.5117 15.8398C25.3789 15.7383 25.2747 15.6185 25.1992 15.4805C25.1237 15.3398 25.0859 15.1797 25.0859 15C25.0859 14.8229 25.1237 14.6562 25.1992 14.5C25.2773 14.3438 25.388 14.2057 25.5312 14.0859C25.6771 13.9635 25.8542 13.8685 26.0625 13.8008C26.2734 13.7305 26.5104 13.6953 26.7734 13.6953C27.1406 13.6953 27.4557 13.7539 27.7188 13.8711C27.9844 13.9883 28.1875 14.1497 28.3281 14.3555C28.4714 14.5586 28.543 14.7904 28.543 15.0508H27.418C27.418 14.9414 27.3945 14.8438 27.3477 14.7578C27.3034 14.6693 27.2331 14.6003 27.1367 14.5508C27.043 14.4987 26.9206 14.4727 26.7695 14.4727C26.6445 14.4727 26.5365 14.4948 26.4453 14.5391C26.3542 14.5807 26.2839 14.638 26.2344 14.7109C26.1875 14.7812 26.1641 14.8594 26.1641 14.9453C26.1641 15.0104 26.1771 15.069 26.2031 15.1211C26.2318 15.1706 26.2773 15.2161 26.3398 15.2578C26.4023 15.2995 26.4831 15.3385 26.582 15.375C26.6836 15.4089 26.8086 15.4401 26.957 15.4688C27.2617 15.5312 27.5339 15.6133 27.7734 15.7148C28.013 15.8138 28.2031 15.9492 28.3438 16.1211C28.4844 16.2904 28.5547 16.513 28.5547 16.7891C28.5547 16.9766 28.513 17.1484 28.4297 17.3047C28.3464 17.4609 28.2266 17.5977 28.0703 17.7148C27.9141 17.8294 27.7266 17.9193 27.5078 17.9844C27.2917 18.0469 27.0482 18.0781 26.7773 18.0781C26.3841 18.0781 26.0508 18.0078 25.7773 17.8672C25.5065 17.7266 25.3008 17.5482 25.1602 17.332C25.0221 17.1133 24.9531 16.8893 24.9531 16.6602H26.0195C26.0247 16.8138 26.0638 16.9375 26.1367 17.0312C26.2122 17.125 26.3073 17.1927 26.4219 17.2344C26.5391 17.276 26.6654 17.2969 26.8008 17.2969C26.9466 17.2969 27.0677 17.2773 27.1641 17.2383C27.2604 17.1966 27.3333 17.1419 27.3828 17.0742C27.4349 17.0039 27.4609 16.9232 27.4609 16.832Z" fill="white"/>
<path d="M11.5356 35.0116L6.73948 31.3234L16.2725 31.2476L11.5356 35.0116Z" fill="#292929"/>
</svg>
