<svg xmlns="http://www.w3.org/2000/svg" >
    <symbol id="arrow-outdoor" viewBox="0 0 17 17">
        <mask id="mask0_445_1130" style="mask-type:alpha" maskUnits="userSpaceOnUse" x="0" y="0" width="17" height="17">
        <rect x="0.130859" y="0.519043" width="16.2617" height="16.2617" fill="#D9D9D9"/>
        </mask>
        <g mask="url(#mask0_445_1130)">
        <path d="M4.4674 12.3768L3.5188 11.4282L10.0235 4.9235H4.19637V3.56836H12.3272V11.6992H10.9721V5.8721L4.4674 12.3768Z" fill="#0C0C0C"/>
        </g>
    </symbol>

    <symbol id="play" viewBox="0 0 32 32">
        <path d="M3.87316 20.6318C3.31798 21.1898 2.39857 21.1594 1.95865 20.5066C1.50913 19.8397 1.1246 19.1292 0.805051 18.3752C0.48849 17.6282 0.244205 16.8556 0.0721953 16.0574C-0.100406 15.2564 0.546678 14.5464 1.36605 14.5464C2.05921 14.5464 2.63655 15.0615 2.79749 15.7357C2.93015 16.2914 3.10145 16.8296 3.31138 17.3502C3.51639 17.8591 3.75826 18.3439 4.03696 18.8045C4.38979 19.3877 4.35389 20.1487 3.87316 20.6318ZM1.38827 11.8596C0.566119 11.8596 -0.0729375 11.1336 0.112331 10.3326C0.295648 9.54008 0.537694 8.77281 0.838469 8.03083C1.14377 7.27769 1.51822 6.56799 1.96183 5.90173C2.39806 5.24655 3.31798 5.21627 3.87316 5.77424C4.35389 6.25739 4.3898 7.01838 4.03686 7.60145C3.75819 8.06182 3.51637 8.54618 3.31138 9.05452C3.0987 9.58248 2.92568 10.1283 2.7923 10.692C2.63563 11.3541 2.0687 11.8596 1.38827 11.8596ZM11.7995 25.0683C11.7995 25.8722 11.1024 26.507 10.3167 26.3366C9.51873 26.1635 8.74891 25.9167 8.00724 25.5961C7.27795 25.2811 6.58417 24.9117 5.92589 24.4878C5.25095 24.0532 5.19359 23.1163 5.74973 22.5374C6.22762 22.04 6.99716 21.9838 7.58535 22.3442C8.05803 22.6338 8.54397 22.8894 9.04319 23.1108C9.55259 23.337 10.0837 23.5197 10.6365 23.6589C11.295 23.8247 11.7995 24.3893 11.7995 25.0683ZM7.65336 4.03516C7.06155 4.40379 6.28165 4.36608 5.78987 3.87183C5.21549 3.29455 5.2658 2.34121 5.95143 1.9018C6.60211 1.48479 7.28738 1.12083 8.00724 0.809921C8.76213 0.483636 9.55512 0.233751 10.3862 0.0602666C11.1719 -0.103738 11.8663 0.531042 11.8663 1.33365C11.8663 2.0145 11.3595 2.58036 10.6982 2.74242C10.1277 2.88222 9.58141 3.0665 9.05923 3.29526C8.56936 3.50986 8.10074 3.7565 7.65336 4.03516ZM12.0351 17.8439C11.0975 18.4497 9.86125 17.7766 9.86125 16.6603V9.74575C9.86125 8.62942 11.0975 7.95632 12.0351 8.56213L17.3862 12.0194C18.2455 12.5746 18.2455 13.8315 17.3862 14.3866L12.0351 17.8439ZM16.0314 26.3293C15.243 26.4984 14.5397 25.865 14.5397 25.0587C14.5397 24.3845 15.0389 23.8222 15.6941 23.6635C17.8796 23.1343 19.7285 22.0097 21.2407 20.2896C23.0113 18.2745 23.8967 15.9123 23.8967 13.203C23.8967 10.4938 23.0113 8.13159 21.2407 6.11645C19.7285 4.39637 17.8796 3.27174 15.6941 2.74255C15.0389 2.58389 14.5397 2.02156 14.5397 1.34738C14.5397 0.54105 15.243 -0.0923932 16.0314 0.0767888C18.8088 0.672793 21.1744 2.04789 23.1281 4.20207C25.4228 6.73219 26.5701 9.73251 26.5701 13.203C26.5701 16.6735 25.4228 19.6739 23.1281 22.204C21.1744 24.3582 18.8088 25.7333 16.0314 26.3293Z" fill="white"/>
    </symbol>

    <symbol viewBox="0 0 42 42" id="burger">
        <rect x="3" y="9" width="35" height="3" rx="1.5" fill="white"/>
        <rect x="3" y="19" width="35" height="3" rx="1.5" fill="white"/>
        <rect x="3" y="30" width="19" height="2" rx="1" fill="white"/>
    </symbol>

    <symbol viewBox="0 0 42 42" id="call">
        <mask id="mask0_513_1056" style="mask-type:alpha" maskUnits="userSpaceOnUse" x="0" y="0" width="42" height="42">
            <path d="M0 0H42V42H0V0Z" fill="#D9D9D9"/>
        </mask>
        <g mask="url(#mask0_513_1056)">
            <path d="M31.6167 33.25C28.2722 33.25 25.012 32.5046 21.8361 31.0139C18.6602 29.5231 15.8472 27.5528 13.3972 25.1028C10.9472 22.6528 8.97685 19.8398 7.48611 16.6639C5.99537 13.488 5.25 10.2278 5.25 6.88333C5.25 6.41667 5.40556 6.02778 5.71667 5.71667C6.02778 5.40556 6.41667 5.25 6.88333 5.25H13.1833C13.5463 5.25 13.8704 5.36667 14.1556 5.6C14.4407 5.83333 14.6093 6.13148 14.6611 6.49444L15.6722 11.9389C15.7241 12.3019 15.7176 12.6324 15.6528 12.9306C15.588 13.2287 15.4389 13.4944 15.2056 13.7278L11.4333 17.5389C12.5222 19.4056 13.8898 21.1556 15.5361 22.7889C17.1824 24.4222 18.9907 25.8352 20.9611 27.0278L24.6167 23.3722C24.85 23.1389 25.1546 22.9639 25.5306 22.8472C25.9065 22.7306 26.2759 22.6981 26.6389 22.75L32.0056 23.8389C32.3685 23.9167 32.6667 24.0917 32.9 24.3639C33.1333 24.6361 33.25 24.9537 33.25 25.3167V31.6167C33.25 32.0833 33.0944 32.4722 32.7833 32.7833C32.4722 33.0944 32.0833 33.25 31.6167 33.25ZM9.95556 14.5833L12.5222 12.0167L11.8611 8.36111H8.4C8.52963 9.42407 8.71111 10.4741 8.94444 11.5111C9.17778 12.5481 9.51481 13.5722 9.95556 14.5833ZM23.8778 28.5056C24.8889 28.9463 25.9194 29.2963 26.9694 29.5556C28.0194 29.8148 29.0759 29.9833 30.1389 30.0611V26.6389L26.4833 25.9L23.8778 28.5056Z" fill="#FFF81B"/>
        </g>
    </symbol>

    <symbol viewBox="0 0 42 42" id="favourites">    
        <mask id="mask0_513_1047" style="mask-type:alpha" maskUnits="userSpaceOnUse" x="0" y="0" width="42" height="42">
        <rect width="42" height="42" fill="#D9D9D9"/>
        </mask>
        <g mask="url(#mask0_513_1047)">
        <path d="M21.6562 36.75L19.087 34.5184C16.1044 31.9149 13.6385 29.6689 11.6895 27.7807C9.74039 25.8924 8.19 24.1972 7.03828 22.6952C5.88656 21.1931 5.08184 19.8127 4.6241 18.5538C4.16637 17.295 3.9375 16.0075 3.9375 14.6914C3.9375 12.002 4.86773 9.75613 6.7282 7.95368C8.58867 6.15123 10.9069 5.25 13.6828 5.25C15.2184 5.25 16.6802 5.56471 18.0682 6.19414C19.4562 6.82357 20.6522 7.71049 21.6562 8.8549C22.6603 7.71049 23.8563 6.82357 25.2443 6.19414C26.6323 5.56471 28.0941 5.25 29.6297 5.25C32.4056 5.25 34.7238 6.15123 36.5843 7.95368C38.4448 9.75613 39.375 12.002 39.375 14.6914C39.375 16.0075 39.1461 17.295 38.6884 18.5538C38.2307 19.8127 37.4259 21.1931 36.2742 22.6952C35.1225 24.1972 33.5721 25.8924 31.623 27.7807C29.674 29.6689 27.2081 31.9149 24.2255 34.5184L21.6562 36.75ZM21.6562 32.1151C24.4913 29.6546 26.8242 27.5446 28.6552 25.7851C30.4861 24.0255 31.9331 22.4949 32.9963 21.1931C34.0594 19.8913 34.7977 18.7326 35.2111 17.717C35.6245 16.7013 35.8313 15.6928 35.8313 14.6914C35.8313 12.9748 35.2406 11.5443 34.0594 10.3999C32.8781 9.25545 31.4016 8.68324 29.6297 8.68324C28.2417 8.68324 26.9571 9.06233 25.7759 9.8205C24.5946 10.5787 23.7825 11.5443 23.3395 12.7173H19.973C19.53 11.5443 18.7179 10.5787 17.5366 9.8205C16.3554 9.06233 15.0708 8.68324 13.6828 8.68324C11.9109 8.68324 10.4344 9.25545 9.25313 10.3999C8.07188 11.5443 7.48125 12.9748 7.48125 14.6914C7.48125 15.6928 7.68797 16.7013 8.10141 17.717C8.51484 18.7326 9.25313 19.8913 10.3163 21.1931C11.3794 22.4949 12.8264 24.0255 14.6573 25.7851C16.4883 27.5446 18.8212 29.6546 21.6562 32.1151Z" fill="currentColor"/>
        </g>
    </symbol>

    <symbol viewBox="0 0 24 25" id="favourites-catalog-desk">
        <mask id="mask0_583_699" style="mask-type:alpha" maskUnits="userSpaceOnUse" x="0" y="0" width="24" height="25">
        <path d="M0 12.5C0 5.87258 5.37258 0.5 12 0.5C18.6274 0.5 24 5.87258 24 12.5V24.5H0V12.5Z" fill="#D9D9D9"/>
        </mask>
        <g mask="url(#mask0_583_699)">
        <path d="M12 21.5L10.55 20.2248C8.86667 18.7371 7.475 17.4537 6.375 16.3747C5.275 15.2956 4.4 14.327 3.75 13.4687C3.1 12.6104 2.64583 11.8215 2.3875 11.1022C2.12917 10.3828 2 9.64714 2 8.8951C2 7.35831 2.525 6.07493 3.575 5.04496C4.625 4.01499 5.93333 3.5 7.5 3.5C8.36667 3.5 9.19167 3.67984 9.975 4.03951C10.7583 4.39918 11.4333 4.90599 12 5.55995C12.5667 4.90599 13.2417 4.39918 14.025 4.03951C14.8083 3.67984 15.6333 3.5 16.5 3.5C18.0667 3.5 19.375 4.01499 20.425 5.04496C21.475 6.07493 22 7.35831 22 8.8951C22 9.64714 21.8708 10.3828 21.6125 11.1022C21.3542 11.8215 20.9 12.6104 20.25 13.4687C19.6 14.327 18.725 15.2956 17.625 16.3747C16.525 17.4537 15.1333 18.7371 13.45 20.2248L12 21.5ZM12 18.8515C13.6 17.4455 14.9167 16.2398 15.95 15.2343C16.9833 14.2289 17.8 13.3542 18.4 12.6104C19 11.8665 19.4167 11.2044 19.65 10.624C19.8833 10.0436 20 9.4673 20 8.8951C20 7.91417 19.6667 7.09673 19 6.44278C18.3333 5.78883 17.5 5.46185 16.5 5.46185C15.7167 5.46185 14.9917 5.67847 14.325 6.11172C13.6583 6.54496 13.2 7.09673 12.95 7.76703H11.05C10.8 7.09673 10.3417 6.54496 9.675 6.11172C9.00833 5.67847 8.28333 5.46185 7.5 5.46185C6.5 5.46185 5.66667 5.78883 5 6.44278C4.33333 7.09673 4 7.91417 4 8.8951C4 9.4673 4.11667 10.0436 4.35 10.624C4.58333 11.2044 5 11.8665 5.6 12.6104C6.2 13.3542 7.01667 14.2289 8.05 15.2343C9.08333 16.2398 10.4 17.4455 12 18.8515Z" fill="#0C0C0C"/>
        </g>
    </symbol>

    <symbol id="favourites-catalog-mob" viewBox="0 0 32 31" >
        <g clip-path="url(#clip0_513_413)">
        <mask id="mask0_513_413" style="mask-type:alpha" maskUnits="userSpaceOnUse" x="0" y="-1" width="32" height="32">
        <rect y="-1" width="32" height="32" fill="#D9D9D9"/>
        </mask>
        <g mask="url(#mask0_513_413)">
        <path d="M16 23.2422L14.695 22.1087C13.18 20.7862 11.9275 19.6455 10.9375 18.6863C9.9475 17.7272 9.16 16.8662 8.575 16.1032C7.99 15.3403 7.58125 14.6391 7.34875 13.9997C7.11625 13.3603 7 12.7063 7 12.0378C7 10.6718 7.4725 9.53102 8.4175 8.61548C9.3625 7.69995 10.54 7.24219 11.95 7.24219C12.73 7.24219 13.4725 7.40204 14.1775 7.72175C14.8825 8.04146 15.49 8.49196 16 9.07325C16.51 8.49196 17.1175 8.04146 17.8225 7.72175C18.5275 7.40204 19.27 7.24219 20.05 7.24219C21.46 7.24219 22.6375 7.69995 23.5825 8.61548C24.5275 9.53102 25 10.6718 25 12.0378C25 12.7063 24.8838 13.3603 24.6513 13.9997C24.4188 14.6391 24.01 15.3403 23.425 16.1032C22.84 16.8662 22.0525 17.7272 21.0625 18.6863C20.0725 19.6455 18.82 20.7862 17.305 22.1087L16 23.2422ZM16 20.888C17.44 19.6382 18.625 18.5664 19.555 17.6727C20.485 16.779 21.22 16.0015 21.76 15.3403C22.3 14.6791 22.675 14.0905 22.885 13.5746C23.095 13.0587 23.2 12.5465 23.2 12.0378C23.2 11.1659 22.9 10.4393 22.3 9.85799C21.7 9.2767 20.95 8.98606 20.05 8.98606C19.345 8.98606 18.6925 9.17861 18.0925 9.56371C17.4925 9.94882 17.08 10.4393 16.855 11.0351H15.145C14.92 10.4393 14.5075 9.94882 13.9075 9.56371C13.3075 9.17861 12.655 8.98606 11.95 8.98606C11.05 8.98606 10.3 9.2767 9.7 9.85799C9.1 10.4393 8.8 11.1659 8.8 12.0378C8.8 12.5465 8.905 13.0587 9.115 13.5746C9.325 14.0905 9.7 14.6791 10.24 15.3403C10.78 16.0015 11.515 16.779 12.445 17.6727C13.375 18.5664 14.56 19.6382 16 20.888Z" fill="#0C0C0C"/>
        </g>
        </g>
        <defs>
        <clipPath id="clip0_513_413">
        <rect width="32" height="32" fill="white" transform="translate(0 -1)"/>
        </clipPath>
        </defs>
    </symbol>

    <symbol id="close" viewPort="0 0 24 24">
        <line x1="1" y1="16" 
            x2="16" y2="1" 
            stroke="white" 
            stroke-width="2"/>
        <line x1="1" y1="1" 
            x2="16" y2="16" 
            stroke="white" 
            stroke-width="2"/>    
    </symbol>

    <symbol viewBox="0 0 24 24" id="rate">
        <rect x="4" y="12" width="2" height="11" fill="#0C0C0C"/>
        <rect x="11" y="3" width="2" height="20" fill="#0C0C0C"/>
        <path d="M17 3H19V23H17V3Z" fill="#0C0C0C"/>
    </symbol>



    <symbol id="checked" viewBox="0 0 42 42" >
        <mask id="mask0_1_2888" style="mask-type:alpha" maskUnits="userSpaceOnUse" x="0" y="0" width="42" height="42">
            <rect width="42" height="42" fill="#D9D9D9"/>
        </mask>
        <g mask="url(#mask0_1_2888)">
            <path d="M18.55 28.35L30.8875 16.0125L28.4375 13.5625L18.55 23.45L13.5625 18.4625L11.1125 20.9125L18.55 28.35ZM8.75 36.75C7.7875 36.75 6.96354 36.4073 6.27813 35.7219C5.59271 35.0365 5.25 34.2125 5.25 33.25V8.75C5.25 7.7875 5.59271 6.96354 6.27813 6.27813C6.96354 5.59271 7.7875 5.25 8.75 5.25H33.25C34.2125 5.25 35.0365 5.59271 35.7219 6.27813C36.4073 6.96354 36.75 7.7875 36.75 8.75V33.25C36.75 34.2125 36.4073 35.0365 35.7219 35.7219C35.0365 36.4073 34.2125 36.75 33.25 36.75H8.75ZM8.75 33.25H33.25V8.75H8.75V33.25Z" fill="#1C1B1F"/>
        </g>
    </symbol>

    <symbol id="arrow-downward" viewBox="0 0 24 24" >
        <mask id="mask0_1_2920" style="mask-type:alpha" maskUnits="userSpaceOnUse" x="0" y="0" width="24" height="24">
        <path d="M0 0H24V24H0V0Z" fill="#D9D9D9"/>
        </mask>
        <g mask="url(#mask0_1_2920)">
        <path d="M12 20L4 12L5.4 10.575L11 16.175V4H13V16.175L18.6 10.575L20 12L12 20Z" fill="#1C1B1F"/>
        </g>
    </symbol>
</svg>