<svg width="59" height="45" viewBox="0 0 59 45" fill="none" xmlns="http://www.w3.org/2000/svg">
<g clip-path="url(#clip0_583_377)">
<path d="M29.9998 12C13.9031 12 1 16.8806 1 22.9998C1 29.0817 14.0095 34 29.9998 34C45.9905 34 59 29.0652 59 22.9998C59 16.9344 45.9905 12 29.9998 12Z" fill="#003478"/>
<path d="M41.3745 25.844C41.3823 25.8966 41.4476 25.9469 41.5109 25.9707C41.5342 25.979 41.5456 25.9954 41.5212 26.0512C41.3408 26.4597 41.1748 26.6952 40.9486 27.0501C40.7404 27.378 40.506 27.6338 40.2222 27.8799C39.794 28.2539 39.1995 28.6611 38.708 28.3874C38.4897 28.2677 38.3952 27.9451 38.3994 27.6839C38.4098 26.9495 38.7192 26.1955 39.2907 25.4545C39.9873 24.549 40.7574 24.0793 41.2628 24.336C41.7857 24.5994 41.6189 25.2386 41.3847 25.7403C41.3665 25.7792 41.3667 25.8123 41.3745 25.844ZM46.9857 20.1213C47.0233 20.0512 46.9838 20 46.8999 20C46.4632 20 45.8901 20.001 45.435 20.001C45.3267 20.001 45.2707 20.0147 45.2196 20.1215C45.0516 20.4613 43.0045 23.7004 42.6235 24.3294C42.5592 24.4252 42.4809 24.4118 42.4718 24.302C42.4332 23.9284 42.1276 23.499 41.6461 23.2935C41.2792 23.1364 40.9205 23.1079 40.5476 23.1602C39.8743 23.2557 39.2744 23.6307 38.7471 24.0536C37.9522 24.6915 37.2665 25.5184 36.3812 26.1294C35.898 26.462 35.2362 26.752 34.7934 26.3191C34.3926 25.9268 34.4379 25.0555 35.0511 24.3816C35.1156 24.311 35.1931 24.3706 35.181 24.4333C35.1231 24.7381 35.1939 25.0412 35.4133 25.2537C35.6808 25.5069 36.0636 25.5354 36.3913 25.3664C36.7779 25.1641 37.0052 24.7735 37.0714 24.3302C37.1738 23.6425 36.6725 23.036 36.0451 22.9874C35.5355 22.9496 35.0467 23.1368 34.5705 23.5518C34.3317 23.7609 34.1961 23.9154 33.9896 24.2255C33.9393 24.3018 33.862 24.3095 33.8644 24.1967C33.8877 23.3162 33.5431 22.8209 32.8537 22.8047C32.3186 22.7911 31.7469 23.0978 31.3013 23.4729C30.8128 23.8871 30.3857 24.436 29.9277 24.9517C29.8707 25.0153 29.8212 25.0122 29.8051 24.8891C29.7921 24.3057 29.6524 23.7407 29.3967 23.3394C29.3062 23.1998 29.1157 23.1308 28.9557 23.225C28.8818 23.2677 28.6248 23.3925 28.4376 23.5516C28.3448 23.6324 28.3085 23.7493 28.3497 23.8991C28.5966 24.7706 28.5424 25.7615 28.2074 26.5984C27.8998 27.3649 27.3022 28.0562 26.5998 28.2902C26.137 28.4452 25.656 28.3693 25.3583 27.9362C24.9495 27.3384 25.1146 26.2987 25.724 25.4355C26.2618 24.6754 27.0398 24.1925 27.8157 23.8816C27.907 23.8444 27.9259 23.7825 27.9 23.7007C27.858 23.566 27.7906 23.3826 27.7634 23.2989C27.6921 23.0988 27.4928 23.0664 27.2495 23.0944C26.6857 23.1636 26.1771 23.3676 25.6747 23.6516C24.3591 24.3954 23.6995 25.835 23.4105 26.6051C23.2712 26.9751 23.1522 27.2058 22.9984 27.4105C22.791 27.6857 22.5307 27.9363 22.0546 28.3777C22.0116 28.4182 21.9794 28.5025 22.0157 28.5811C22.0642 28.6873 22.3118 29.0565 22.3817 29.0894C22.4592 29.1296 22.5491 29.0729 22.5852 29.0461C22.9183 28.8077 23.3168 28.4298 23.5119 28.1735C23.5803 28.0856 23.6506 28.1226 23.6869 28.2559C23.8689 28.9415 24.3455 29.5013 25.0045 29.7355C26.2107 30.165 27.4619 29.5433 28.4063 28.461C29.0065 27.7731 29.2231 27.3307 29.4532 27.03C29.8431 26.5199 30.6121 25.379 31.5282 24.6464C31.8641 24.3762 32.2616 24.1702 32.4615 24.307C32.622 24.4168 32.6738 24.6719 32.4164 25.1662C31.4824 26.9668 30.1083 29.0824 29.8563 29.5954C29.8102 29.6844 29.8511 29.7544 29.9387 29.7544C30.4275 29.7519 30.9119 29.7532 31.3556 29.7532C31.4294 29.7504 31.4624 29.7138 31.4995 29.6587C32.2162 28.4742 32.8907 27.3468 33.6137 26.1812C33.6542 26.1125 33.6915 26.1647 33.693 26.1948C33.7086 26.4653 33.7708 26.8352 33.923 27.0781C34.1963 27.5271 34.5836 27.7201 35.0131 27.723C35.3549 27.7285 35.5278 27.6724 35.8963 27.527C36.1962 27.4096 36.437 27.2555 36.6217 27.116C36.7296 27.0366 36.7485 27.1694 36.7459 27.1896C36.58 28.13 36.7848 29.2442 37.67 29.7062C38.7294 30.2577 39.8932 29.4826 40.5628 28.7828C40.6284 28.7155 40.6987 28.7226 40.7054 28.868C40.721 29.1351 40.834 29.4522 41.0433 29.674C41.6045 30.2686 42.7369 30.033 43.8733 29.1043C44.603 28.5097 45.3664 27.6696 46.056 26.7801C46.0819 26.7456 46.1006 26.6903 46.0508 26.6342C45.9458 26.5181 45.7939 26.3853 45.6898 26.2831C45.6423 26.2404 45.5726 26.2527 45.5327 26.2846C44.8258 26.9944 44.1895 27.8038 43.2698 28.4732C42.9597 28.7018 42.4653 28.8862 42.2433 28.5688C42.1567 28.4456 42.1666 28.2753 42.2511 28.0517C42.5192 27.3457 46.7654 20.5237 46.9857 20.1213Z" fill="white"/>
<path d="M26.7551 20.7645C26.773 20.8594 26.8098 20.8779 26.8527 20.87C27.0655 20.8271 27.2984 20.651 27.4363 20.447C27.5619 20.2619 27.6208 19.9949 27.496 19.8879C27.3848 19.7917 27.2036 19.8189 27.0693 19.9382C26.8018 20.1758 26.7207 20.5128 26.7551 20.7645ZM16.1048 28.9999C14.5468 29.0101 13.1742 28.0426 13.0167 26.3664C12.9291 25.4375 13.1902 24.6097 13.7129 23.9277C14.1767 23.32 14.9615 22.8152 15.6258 22.6919C15.8419 22.6521 16.1324 22.6765 16.2525 22.8212C16.4408 23.0417 16.3867 23.2838 16.1983 23.3804C15.6915 23.6406 15.0817 24.0861 14.78 24.6944C14.5352 25.1909 14.4858 25.7892 14.8596 26.3592C15.4853 27.3092 17.2294 27.3353 18.851 25.8203C19.2526 25.4495 19.612 25.0933 19.9773 24.6713C20.6916 23.8501 20.9291 23.5508 21.8786 22.2265C21.8888 22.2111 21.8939 22.191 21.8888 22.1813C21.8811 22.1633 21.8684 22.1608 21.84 22.1582C21.2062 22.1762 20.6537 22.3658 20.1166 22.7695C19.9619 22.8829 19.7393 22.867 19.6418 22.7176C19.5334 22.5488 19.6112 22.3289 19.7896 22.2048C20.6536 21.6005 21.5975 21.4909 22.5613 21.3273C22.5606 21.3273 22.6282 21.3299 22.6834 21.257C23.079 20.7464 23.3778 20.2857 23.7996 19.7693C24.2246 19.2453 24.7736 18.7642 25.193 18.4027C25.7784 17.8965 26.1539 17.7261 26.5355 17.5173C26.6361 17.4645 26.5228 17.4014 26.4921 17.4014C24.3617 16.9987 22.1473 16.4776 20.0315 17.2653C18.5661 17.8152 17.924 18.9837 18.2329 19.7646C18.4526 20.3184 19.177 20.4085 19.8551 20.0747C20.4184 19.7972 20.9396 19.3499 21.3092 18.7741C21.5159 18.4544 21.9515 18.6851 21.7161 19.2403C21.097 20.7037 19.9142 21.8645 18.4734 21.9135C17.2472 21.9536 16.4561 21.0464 16.4587 19.9273C16.4638 17.72 18.9073 16.266 21.4754 16.0486C24.5681 15.7916 27.4974 16.62 30.5681 16.9946C32.9209 17.2811 35.1765 17.287 37.5413 16.7407C37.8209 16.6797 38.017 16.859 37.9988 17.143C37.9759 17.5534 37.6596 17.9487 36.8808 18.3759C35.995 18.8644 35.0683 19.0127 34.1005 19.0206C31.7602 19.0411 29.5803 18.1229 27.3244 17.6299C27.327 17.7292 27.353 17.8475 27.2703 17.9102C26.0208 18.8371 24.8913 19.7783 24.1348 21.1003C24.1093 21.1308 24.1221 21.1598 24.1672 21.1567C24.824 21.1216 25.4147 21.1046 26.0278 21.0553C26.135 21.0451 26.1391 21.0194 26.1296 20.9409C26.0753 20.4852 26.2077 19.9656 26.6063 19.6082C27.0143 19.2404 27.525 19.1986 27.8636 19.4635C28.2486 19.7651 28.2145 20.3076 28.004 20.7145C27.7896 21.1273 27.4356 21.348 27.0958 21.4552C27.0958 21.4552 27.0243 21.4706 27.0351 21.5358C27.0478 21.64 27.5114 21.898 27.551 21.9667C27.5893 22.0322 27.5689 22.1336 27.4992 22.2113C27.4502 22.2678 27.3734 22.3207 27.2751 22.3189C27.1958 22.3173 27.1475 22.2896 27.046 22.2344C26.8382 22.1213 26.5786 21.9352 26.4054 21.7158C26.3465 21.6416 26.3163 21.6401 26.1691 21.6483C25.5055 21.6868 24.471 21.7874 23.77 21.8755C23.6 21.896 23.575 21.9286 23.5401 21.9878C22.4224 23.8411 21.2291 25.8397 19.9189 27.1778C18.5136 28.6125 17.3449 28.9901 16.1048 28.9999Z" fill="white"/>
<path d="M30.0011 13.8317C15.0796 13.8317 2.98455 17.9548 2.98455 23C2.98455 28.0457 15.0796 32.1691 30.0011 32.1691C44.9224 32.1691 57.0166 28.0457 57.0166 23C57.0166 17.9548 44.9224 13.8317 30.0011 13.8317ZM30.0011 33C14.5364 33 2 28.5229 2 23C2 17.4763 14.5364 13 30.0011 13C45.4644 13 58 17.4763 58 23C58 28.5229 45.4644 33 30.0011 33Z" fill="white"/>
</g>
<defs>
<clipPath id="clip0_583_377">
<path d="M0 29.5C0 20.6503 0 16.2255 1.3757 12.7106C3.40836 7.51718 7.51718 3.40836 12.7106 1.3757C16.2255 0 20.6503 0 29.5 0C38.3497 0 42.7745 0 46.2894 1.3757C51.4828 3.40836 55.5916 7.51718 57.6243 12.7106C59 16.2255 59 20.6503 59 29.5V45H0V29.5Z" fill="white"/>
</clipPath>
</defs>
</svg>
