<svg width="53" height="31" viewBox="0 0 53 31" fill="none" xmlns="http://www.w3.org/2000/svg">
<g clip-path="url(#clip0_513_407)">
<path d="M29.8639 19.4967C29.8639 19.5742 29.8886 19.6191 29.9339 19.6191C29.9722 19.6191 30.0039 19.5988 30.0327 19.5783L42.8531 11.3262C43.0697 11.176 43.3292 11.0988 43.5934 11.1059H46.4108C46.8428 11.1059 47.1348 11.3914 47.1348 11.8197V17.1552C47.1348 17.7997 46.9908 18.1751 46.415 18.5176L42.9971 20.5573C42.9629 20.5808 42.9226 20.5981 42.8819 20.5981C42.8412 20.5981 42.7997 20.5655 42.7997 20.4472V14.2224C42.7997 14.1489 42.7792 14.1 42.7297 14.1C42.6936 14.1 42.6594 14.1183 42.631 14.1409L33.2613 20.1781C33.0474 20.3208 32.7965 20.3984 32.5416 20.3943H26.3308C25.8947 20.3943 25.6069 20.1088 25.6069 19.6764V11.9872C25.6069 11.9301 25.5822 11.8771 25.5328 11.8771C25.4968 11.8771 25.4627 11.8957 25.434 11.9179L19.2523 15.5971C19.1906 15.6379 19.1742 15.6665 19.1742 15.695C19.1742 15.7195 19.1865 15.7439 19.2276 15.7889L23.645 20.1658C23.7026 20.2229 23.7438 20.2678 23.7438 20.3167C23.7438 20.3576 23.6779 20.3902 23.5998 20.3902H19.6101C19.2974 20.3902 19.0548 20.3453 18.8862 20.1781L16.2086 17.5266C16.188 17.5023 16.1585 17.4858 16.1263 17.4858C16.0973 17.4858 16.069 17.4955 16.0441 17.5102L11.5691 20.1781C11.2976 20.3413 11.1125 20.3861 10.8452 20.3861H6.72804C6.28798 20.3902 6 20.1006 6 19.6723V14.4386C6 13.7901 6.14393 13.4188 6.72391 13.0762L10.1625 11.0285C10.1892 11.0105 10.2206 11.0006 10.253 11C10.3064 11 10.3352 11.053 10.3352 11.1713V18.1793C10.3352 18.2528 10.3516 18.2853 10.4052 18.2853C10.4416 18.2853 10.4751 18.2649 10.508 18.2444L22.1234 11.3139C22.3455 11.163 22.617 11.0896 22.8884 11.1018H29.1403C29.5722 11.1018 29.8642 11.3873 29.8642 11.8156L29.8601 19.4967H29.8639Z" fill="#131E29"/>
</g>
<defs>
<clipPath id="clip0_513_407">
<rect width="41.1348" height="9.59811" fill="white" transform="translate(6 11)"/>
</clipPath>
</defs>
</svg>
