<?xml version="1.0" standalone="no"?>
<!DOCTYPE svg PUBLIC "-//W3C//DTD SVG 20010904//EN"
 "http://www.w3.org/TR/2001/REC-SVG-20010904/DTD/svg10.dtd">
<svg version="1.0" xmlns="http://www.w3.org/2000/svg"
 width="53.000000pt" height="31.000000pt" viewBox="0 0 53.000000 31.000000"
 preserveAspectRatio="xMidYMid meet">

<g transform="translate(0.000000,31.000000) scale(0.100000,-0.100000)"
fill="#000000" stroke="none">
<path d="M238 244 c6 -3 9 -11 5 -17 -4 -7 1 -6 10 2 20 16 95 8 123 -14 18
-14 18 -15 -6 -35 -27 -21 -21 -27 11 -10 28 15 23 45 -8 59 -16 7 -55 15 -88
17 -33 2 -54 1 -47 -2z"/>
<path d="M149 221 c-19 -16 -22 -22 -11 -32 10 -11 12 -10 12 3 0 8 10 23 23
31 12 9 17 16 11 16 -7 1 -22 -8 -35 -18z"/>
<path d="M274 183 l18 -22 -44 -4 c-37 -3 -35 -4 16 -5 33 -1 57 -1 55 1 -2 1
-17 13 -34 27 -25 21 -27 21 -11 3z"/>
<path d="M70 104 c0 -9 33 -33 44 -34 6 0 0 9 -12 20 -22 21 -32 25 -32 14z"/>
<path d="M130 99 c0 -5 5 -7 10 -4 6 3 10 8 10 11 0 2 -4 4 -10 4 -5 0 -10 -5
-10 -11z"/>
<path d="M167 90 c3 -11 7 -20 9 -20 2 0 4 9 4 20 0 11 -4 20 -9 20 -5 0 -7
-9 -4 -20z"/>
<path d="M190 90 c0 -11 4 -20 9 -20 5 0 7 9 4 20 -3 11 -7 20 -9 20 -2 0 -4
-9 -4 -20z"/>
<path d="M261 92 c-7 -14 -6 -19 4 -19 7 0 11 7 8 16 -3 11 0 10 11 -3 17 -21
20 -18 10 8 -8 21 -21 20 -33 -2z"/>
<path d="M320 90 c0 -11 2 -20 4 -20 2 0 6 9 9 20 3 11 1 20 -4 20 -5 0 -9 -9
-9 -20z"/>
<path d="M350 90 c0 -26 15 -26 17 0 1 11 -2 20 -8 20 -5 0 -9 -9 -9 -20z"/>
<path d="M392 90 c0 -14 2 -19 5 -12 2 6 2 18 0 25 -3 6 -5 1 -5 -13z"/>
<path d="M429 91 c18 -14 21 -20 10 -24 -8 -3 -9 -6 -2 -6 21 -2 25 20 7 34
-11 8 -23 14 -29 14 -5 1 1 -8 14 -18z"/>
</g>
</svg>
