<svg width="121" height="72" viewBox="0 0 121 72" fill="none" xmlns="http://www.w3.org/2000/svg">
<rect width="121" height="72" rx="12" fill="white"/>
<g clip-path="url(#clip0_1_252)">
<path d="M85.8736 22C82.7244 22 79.8001 23.0387 77.4157 24.8C75.0313 23.0387 72.1071 22 68.9579 22C65.8087 22 62.8844 23.0387 60.5 24.8C58.1156 23.0387 55.2363 22 52.0421 22C48.8929 22 45.9687 23.0387 43.5843 24.8C41.2449 23.0387 38.3206 22 35.1264 22C27.3434 22 21 28.2774 21 36C21 43.7226 27.3434 50 35.1264 50C38.2756 50 41.1999 48.9613 43.5843 47.2C45.9687 48.9613 48.8929 50 52.0421 50C55.1913 50 58.1156 48.9613 60.5 47.2C62.8394 48.9613 65.7637 50 68.9579 50C72.1071 50 75.0313 48.9613 77.4157 47.2C79.7551 48.9613 82.6794 50 85.8736 50C93.6566 50 100 43.7226 100 36C100 28.2774 93.6566 22 85.8736 22ZM77.4157 43.2258C75.7061 41.2839 74.6714 38.7548 74.6714 36C74.6714 33.2452 75.7061 30.7161 77.4157 28.7742C79.1253 30.7161 80.16 33.2452 80.16 36C80.16 38.7548 79.1253 41.2839 77.4157 43.2258ZM60.5 43.2258C58.7904 41.2839 57.7557 38.7548 57.7557 36C57.7557 33.2452 58.7904 30.7161 60.5 28.7742C62.2096 30.7161 63.2443 33.2452 63.2443 36C63.2443 38.7548 62.2096 41.2839 60.5 43.2258ZM43.5843 43.2258C41.8747 41.2839 40.84 38.7548 40.84 36C40.84 33.2452 41.8747 30.7161 43.5843 28.7742C45.2939 30.7161 46.3286 33.2452 46.3286 36C46.3736 38.7548 45.2939 41.2839 43.5843 43.2258ZM23.9243 36C23.9243 29.9032 28.963 24.9355 35.1264 24.9355C37.4208 24.9355 39.5803 25.6129 41.3798 26.8323C39.2204 29.271 37.9157 32.4774 37.9157 36C37.9157 39.5226 39.2204 42.729 41.3798 45.1677C39.5803 46.3419 37.4658 47.0645 35.1264 47.0645C28.963 47.0645 23.9243 42.0968 23.9243 36ZM45.7887 45.1677C47.9482 42.729 49.2528 39.5226 49.2528 36C49.2528 32.4774 47.9482 29.271 45.7887 26.8323C47.5883 25.6581 49.7027 24.9355 52.0421 24.9355C54.3815 24.9355 56.496 25.6129 58.2955 26.8323C56.1361 29.271 54.7864 32.4774 54.7864 36C54.7864 39.5226 56.0911 42.729 58.2955 45.1677C56.496 46.3419 54.3815 47.0645 52.0421 47.0645C49.7477 47.0645 47.5883 46.3419 45.7887 45.1677ZM62.7044 45.1677C64.8639 42.729 66.2135 39.5226 66.2135 36C66.2135 32.4774 64.9089 29.271 62.7044 26.8323C64.504 25.6581 66.6185 24.9355 68.9579 24.9355C71.2973 24.9355 73.4117 25.6129 75.2113 26.8323C73.0518 29.271 71.7022 32.4774 71.7022 36C71.7022 39.5226 73.0068 42.729 75.2113 45.1677C73.4117 46.3419 71.2973 47.0645 68.9579 47.0645C66.6185 47.0645 64.504 46.3419 62.7044 45.1677ZM85.8736 47.0645C83.5792 47.0645 81.4197 46.3871 79.6201 45.1677C81.7796 42.729 83.1293 39.5226 83.1293 36C83.1293 32.4774 81.8246 29.271 79.6201 26.8323C81.4197 25.6581 83.5342 24.9355 85.8736 24.9355C92.037 24.9355 97.0757 29.9032 97.0757 36C97.0757 42.0968 92.037 47.0645 85.8736 47.0645Z" fill="#292929"/>
</g>
<defs>
<clipPath id="clip0_1_252">
<rect width="79" height="28" fill="white" transform="translate(21 22)"/>
</clipPath>
</defs>
</svg>
