<svg width="121" height="72" viewBox="0 0 121 72" fill="none" xmlns="http://www.w3.org/2000/svg">
<rect width="121" height="72" rx="12" fill="white"/>
<g clip-path="url(#clip0_1_258)">
<path d="M75 36C75 43.7371 68.7371 50 61 50V36H75ZM61 22V36H47C47 28.2629 53.2629 22 61 22Z" fill="#0166B1"/>
<path d="M61 22C68.7371 22 75 28.2629 75 36H61V22ZM47 36H61V50C53.2629 50 47 43.7371 47 36Z" fill="white"/>
<path d="M60.5 21.7778V22.5576C67.7571 22.5576 73.6624 28.5871 73.6624 36H74.4259C74.4259 28.1458 68.1906 21.7778 60.5 21.7778ZM60.5 49.4424C53.2429 49.4424 47.3376 43.4129 47.3376 36H46.5741C46.5741 43.8542 52.8094 50.2222 60.5 50.2222M60.5 12C47.5217 12 37 22.7455 37 36C37 49.2545 47.5217 60 60.5 60C73.4783 60 84 49.2545 84 36C84 22.7455 73.4783 12 60.5 12ZM82.4718 36C82.4718 48.3923 72.6355 58.4393 60.5 58.4393C48.3645 58.4393 38.5282 48.3923 38.5282 36C38.5282 23.6077 48.3659 13.5607 60.5 13.5607C72.6341 13.5607 82.4718 23.6077 82.4718 36Z" fill="#6F6F6F"/>
<path d="M49.9902 24.7112C50.7391 23.8876 51.1631 22.936 50.4142 22.0275C50.0068 21.5345 49.3226 21.4267 48.7555 21.6696L48.699 21.6926L48.7169 21.6409C48.8009 21.4066 48.8546 20.6591 48.2447 20.1431C47.9474 19.8915 47.5744 19.7981 47.1972 19.8383C46.4937 19.9131 45.9528 20.4148 44.4798 22.1296C44.0352 22.6471 43.3882 23.4635 43 23.9925L47.0458 28C48.3865 26.4505 48.933 25.8741 49.9902 24.7112ZM44.7111 23.7309C45.526 22.6902 46.3919 21.7458 46.7842 21.3721C46.9081 21.2542 47.043 21.1363 47.2068 21.0903C47.4725 21.0142 47.7464 21.2111 47.8084 21.4957C47.8703 21.7817 47.6982 22.0534 47.5069 22.2776C47.076 22.7851 45.4957 24.5114 45.4957 24.5114L44.7111 23.7309ZM46.2955 25.3005C46.2955 25.3005 47.8345 23.6015 48.337 23.0582C48.5366 22.8425 48.6646 22.7117 48.8023 22.6413C48.9798 22.5508 49.1739 22.5321 49.3474 22.6528C49.5181 22.7721 49.5965 22.9777 49.5539 23.1818C49.5029 23.4247 49.313 23.6561 49.156 23.8329C48.944 24.0701 47.1187 26.1098 47.116 26.1127L46.2955 25.3005ZM60.4673 19.9318L61.7627 16.9017L61.8453 16.6329L61.8219 16.9132L61.9582 20.9624C62.4124 21.007 62.8819 21.0731 63.3444 21.1536L63.1338 15.1567C62.4868 15.0819 61.8425 15.0287 61.1983 15L59.9222 18.3075L59.8768 18.5533L59.8314 18.3075L58.5567 15C57.9124 15.0287 57.2682 15.0819 56.6212 15.1567L56.4106 21.1536C56.8731 21.0731 57.3425 21.0084 57.7968 20.9624L57.9331 16.9132L57.9097 16.6329L57.9923 16.9017L59.2876 19.9318H60.4673ZM71.2253 26.2004C71.5433 26.5568 72.0017 27.1318 72.2591 27.4811L77 24.3389C76.7632 24.0155 76.386 23.5239 76.1039 23.1775L73.1015 25.2502L72.8964 25.4342L73.0492 25.2014L74.3749 22.4386L73.4374 21.4598L70.7903 22.844L70.5673 23.0035L70.7448 22.7894L72.7312 19.6558C72.3816 19.3453 72.0457 19.0607 71.6176 18.7157L68.6084 23.6619C68.9897 23.968 69.4922 24.418 69.8129 24.7241L72.6459 23.189L72.8276 23.0495L72.6941 23.2393L71.2253 26.2004Z" fill="#6F6F6F"/>
</g>
<defs>
<clipPath id="clip0_1_258">
<rect width="47" height="48" fill="white" transform="translate(37 12)"/>
</clipPath>
</defs>
</svg>
