<svg width="104" height="72" viewBox="0 0 104 72" fill="none" xmlns="http://www.w3.org/2000/svg">
<path d="M33.0788 34.7974H27.1523L26.6942 32.0866H52.1278V34.7974H51.4407V32.7166H32.8593L33.0788 34.7974ZM26.5892 31.4567H52.1183V29.4618H26.2647L26.5892 31.4567ZM42.5556 38.138H52.1183V36.7159H42.5651L42.5556 38.138ZM26.0071 28.8414H32.0577L30.9124 26.8465H51.4407V28.8319H52.1278V26.1593H24.1365L26.0071 28.8414ZM62.5303 26.1593H52.8817V30.1586H62.5303V26.1593ZM28.5266 41.5742C28.6793 41.8128 28.9751 42.0896 29.939 42.3473C30.4066 42.4618 30.922 42.5764 31.6473 42.7386H41.8876V41.326H28.3929C28.4311 41.4214 28.4788 41.4978 28.5266 41.5742ZM27.9444 39.417H41.8876V35.4273H27.2573L27.9444 39.417ZM42.5556 45.0103C46.1249 45.7166 49.6178 46.3656 52.1278 46.757V40.0661H42.5556V45.0103ZM63.1888 34.7974H77.8477L78.5158 30.7981H63.1888V34.7974ZM63.1888 27.4288V28.851L78.9548 28.8414L79.9473 27.4288H63.1888ZM87 23L82.3523 29.5573C81.8465 32.3443 80.5104 39.522 80.3577 40.2188C79.9187 42.2232 79.7087 43.4449 75.7672 44.3899C70.5183 45.6307 58.5124 48.0551 52.4905 49C46.4685 48.0551 34.4627 45.6402 29.2232 44.3899C25.2817 43.4545 25.0718 42.2327 24.6328 40.2188C24.4801 39.5316 23.1535 32.3443 22.6382 29.5573L18 23H87ZM83.3353 24.2313H21.6647L25.3295 29.4618C26.2456 34.9023 26.8087 38.3957 27.0473 39.6175C27.4577 41.7364 27.5245 42.6527 29.7195 43.2445C34.0714 44.2753 46.7071 46.8715 52.5095 47.7496C58.312 46.8811 70.9382 44.2849 75.2996 43.254C77.4946 42.6623 77.5614 41.746 77.9718 39.627C78.2008 38.4053 78.7734 34.9119 79.6896 29.4714L83.3353 24.2313ZM52.8817 38.138H53.5689V36.1241H71.8162C71.7971 36.315 71.6253 37.6703 71.5299 38.1476H77.2942L77.7523 35.4369H52.8817V38.138ZM52.8817 40.7438H76.8075L77.1988 38.768H52.8817V40.7438ZM62.5303 32.0866H52.8817V33.5184H62.5303V32.0866ZM52.8817 41.3355H76.6166C76.5784 41.4214 76.5403 41.5073 76.4925 41.5837C76.3303 41.8223 76.044 42.1182 75.0801 42.3568C70.7855 43.4258 58.9705 45.7739 52.8913 46.7665L52.8817 41.3355ZM53.5689 45.9552C54.6664 45.7548 57.3386 45.2871 58.2929 45.1057C67.9988 43.254 69.6689 42.9677 70.4801 42.0132H53.5689V45.9552Z" fill="black"/>
</svg>
