<svg width="121" height="72" viewBox="0 0 121 72" fill="none" xmlns="http://www.w3.org/2000/svg">
<rect width="121" height="72" rx="12" fill="white"/>
<g clip-path="url(#clip0_1_327)">
<path d="M72 57H81V56.0843H74.7522V52H72V57Z" fill="black"/>
<path d="M30 52V57H32.6618C32.6618 57 32.6618 55.0278 32.6618 54.9576C32.734 54.9576 37.266 54.9576 37.3377 54.9576C37.3377 55.0278 37.3377 57 37.3377 57H40V52H37.3377C37.3377 52 37.3377 53.9717 37.3377 54.0419C37.266 54.0419 32.734 54.0419 32.6618 54.0419C32.6618 53.9717 32.6618 52 32.6618 52H30Z" fill="black"/>
<path d="M59.1884 52L56.6522 54.1126L54.1161 52H51L54.7683 54.9576C54.7683 55.0278 54.7683 57 54.7683 57H57.4494V54.9576C57.5216 54.8874 61 52 61 52H59.1884Z" fill="black"/>
<path d="M82 57H91V56.1546H84.7072V54.8874H90.7806V54.0419H84.7072V52.845H90.9269V52H82V57Z" fill="black"/>
<path d="M61.0791 53.6925C61.0791 54.9233 62.5746 55.2311 64.7008 55.4617C66.8269 55.7696 67.8504 55.8462 67.8504 56.308C67.8504 56.6925 67.2209 56.9231 65.4095 56.9231C63.2834 56.9231 61.4725 56.4619 61.2364 56.3847C61.2364 56.4619 61 57.5388 61 57.5388C61.2364 57.6154 62.9686 58 65.4882 58C68.3231 58 71 57.5388 71 56.0768C71 55.0772 69.8979 54.5388 66.7483 54.231C65.4882 54.0771 64.15 54.0004 64.15 53.5386C64.15 53.1541 64.4647 53.0002 66.3543 53.0002C68.1651 53.0002 69.7405 53.3847 69.9765 53.3847L70.2126 52.3851C69.8979 52.3079 68.087 52 65.6456 52C63.6773 52 61.0791 52.2312 61.0791 53.6925Z" fill="black"/>
<path d="M20 55.0005C20 56.7692 21.8001 58 25.5439 58C26.9841 58 28.496 57.7694 28.7842 57.6927L29 56.5386C28.7119 56.6153 27.4163 56.7692 26.1202 56.7692C24.0319 56.7692 22.5917 56.2308 22.5917 55.0005C22.5917 53.6925 23.9601 53.1541 26.1202 53.1541C27.344 53.1541 28.7119 53.308 29 53.3847L28.7842 52.2312C28.4242 52.154 27.0559 52 25.6162 52C21.8001 52 20 53.1541 20 55.0005Z" fill="black"/>
<path d="M42 58H44.7616V53.1665C45.1346 53.0835 45.582 53.0835 46.1793 53.0835C46.8509 53.0835 47.3733 53.0835 47.7463 53.1665C48.5673 53.2502 48.8654 53.5836 48.8654 54.0002C48.8654 54.3331 48.4924 54.7502 47.6719 54.8333C47.0747 54.9163 46.7016 55 46.2537 55C45.9556 55 45.7313 55 45.3583 54.9163L48.4924 58H52L48.8654 55.5833C49.4627 55.5002 49.6864 55.5002 50.358 55.2498C51.179 55 51.552 54.4998 51.627 54.0002C51.627 53.2502 51.179 52.6669 49.612 52.2503C48.791 52.0836 47.6719 52 46.2537 52C44.2393 52 42.2243 52.0836 42 52.0836V58Z" fill="black"/>
<path d="M92 58H94.741V53.1665C95.1851 53.0835 95.5558 53.0835 96.222 53.0835C96.8887 53.0835 97.3334 53.0835 97.778 53.1665C98.5928 53.2502 98.8889 53.5836 98.8149 54.0002C98.8149 54.3331 98.4448 54.7502 97.63 54.8333C97.1113 54.9163 96.7412 55 96.222 55C95.9259 55 95.7033 55 95.4077 54.9163L98.5188 58H102L98.8149 55.5833C99.4816 55.5002 99.7037 55.5002 100.296 55.2498C101.111 55 101.556 54.4998 101.556 54.0002C101.556 53.2502 101.185 52.6669 99.6291 52.2503C98.7409 52.0836 97.7035 52 96.222 52C94.2963 52 92.2221 52.0836 92 52.0836V58Z" fill="black"/>
<path d="M72.9954 47.5205L47.9659 47.5205L40.2313 23.716L60.4806 9.00401L80.7299 23.716L72.9954 47.5205Z" fill="#7B7C7F"/>
<g filter="url(#filter0_f_1_327)">
<path d="M73.1512 47.3867L48.7372 47.4842L41.2543 23.7196L61.0436 8.9348L80.757 23.5619L73.1512 47.3867Z" fill="#B8B9BD"/>
<path d="M73.1512 47.3867L48.7372 47.4842L41.2543 23.7196L61.0436 8.9348L80.757 23.5619L73.1512 47.3867Z" stroke="white"/>
</g>
<path fill-rule="evenodd" clip-rule="evenodd" d="M43 24.4604L59.8926 27.3568L61.7841 11.2354L62.0196 29.212L80 24.4205L65.0799 31.2388L62.1057 30.99L73.1372 46.1675L61.444 33.8014L49.9386 46.2354L58.1673 31.3078L43 24.4604Z" fill="#FEFEFE"/>
<path fill-rule="evenodd" clip-rule="evenodd" d="M43 24.4604L59.8926 27.3568L61.7841 11.2354L62.0196 29.212L80 24.4205L65.0799 31.2388L62.1057 30.99L73.1372 46.1675L61.444 33.8014L49.9386 46.2354L58.1673 31.3078L43 24.4604Z" fill="url(#paint0_linear_1_327)"/>
<path fill-rule="evenodd" clip-rule="evenodd" d="M43 24.4604L59.8926 27.3568L61.7841 11.2354L62.0196 29.212L80 24.4205L65.0799 31.2388L62.1057 30.99L73.1372 46.1675L61.444 33.8014L49.9386 46.2354L58.1673 31.3078L43 24.4604Z" fill="url(#paint1_linear_1_327)"/>
<path fill-rule="evenodd" clip-rule="evenodd" d="M43 24.4604L59.8926 27.3568L61.7841 11.2354L62.0196 29.212L80 24.4205L65.0799 31.2388L62.1057 30.99L73.1372 46.1675L61.444 33.8014L49.9386 46.2354L58.1673 31.3078L43 24.4604Z" fill="url(#paint2_linear_1_327)"/>
<path fill-rule="evenodd" clip-rule="evenodd" d="M43 24.2354L62 30.2354L60.1413 26.945L43 24.2354Z" fill="black"/>
<path fill-rule="evenodd" clip-rule="evenodd" d="M49 45.2354L61 30.2354L57.1644 30.8064L49 45.2354Z" fill="black"/>
<path fill-rule="evenodd" clip-rule="evenodd" d="M73 46.2354L62.6514 32.4372L61 30.2354L64.8781 30.8778L73 46.2354Z" fill="black"/>
<path fill-rule="evenodd" clip-rule="evenodd" d="M61.2655 11.2354L61 31.2354L64 28.3933L61.2655 11.2354Z" fill="black"/>
<path fill-rule="evenodd" clip-rule="evenodd" d="M79 24.2354L61 30.2354L62.7528 26.9686L79 24.2354Z" fill="black"/>
<path fill-rule="evenodd" clip-rule="evenodd" d="M43 24.4604L59.8926 27.3568L61.7841 11.2354L62.0196 29.212L80 24.4205L65.0799 31.2388L62.1057 30.99L73.1372 46.1675L61.444 33.8014L49.9386 46.2354L58.1673 31.3078L43 24.4604Z" fill="url(#paint3_linear_1_327)"/>
</g>
<defs>
<filter id="filter0_f_1_327" x="39.4666" y="7.1471" width="43.0781" height="42.1249" filterUnits="userSpaceOnUse" color-interpolation-filters="sRGB">
<feFlood flood-opacity="0" result="BackgroundImageFix"/>
<feBlend mode="normal" in="SourceGraphic" in2="BackgroundImageFix" result="shape"/>
<feGaussianBlur stdDeviation="0.893859" result="effect1_foregroundBlur_1_327"/>
</filter>
<linearGradient id="paint0_linear_1_327" x1="81.3458" y1="55.3199" x2="65.0579" y2="35.5533" gradientUnits="userSpaceOnUse">
<stop/>
<stop offset="1" stop-opacity="0"/>
</linearGradient>
<linearGradient id="paint1_linear_1_327" x1="32.1935" y1="19.1211" x2="54.3412" y2="28.7113" gradientUnits="userSpaceOnUse">
<stop/>
<stop offset="1" stop-opacity="0"/>
</linearGradient>
<linearGradient id="paint2_linear_1_327" x1="45.701" y1="52.0633" x2="56.2272" y2="37.6738" gradientUnits="userSpaceOnUse">
<stop/>
<stop offset="1" stop-opacity="0"/>
</linearGradient>
<linearGradient id="paint3_linear_1_327" x1="61.7099" y1="2.33689" x2="62.4625" y2="23.7555" gradientUnits="userSpaceOnUse">
<stop stop-color="#999999"/>
<stop offset="1" stop-color="#999999" stop-opacity="0"/>
</linearGradient>
<clipPath id="clip0_1_327">
<rect width="83" height="47" fill="white" transform="translate(19 12)"/>
</clipPath>
</defs>
</svg>
