<svg width="121" height="72" viewBox="0 0 121 72" fill="none" xmlns="http://www.w3.org/2000/svg">
<rect width="121" height="72" rx="12" fill="white"/>
<g clip-path="url(#clip0_1_364)">
<path d="M48.0481 61.9997H49.1165V57.6059H51.832V56.583H45.332V57.6059H48.0481V61.9997Z" fill="black"/>
<path d="M44.2513 56.583H43.168V61.9997H44.2513V56.583Z" fill="black"/>
<path d="M83.9918 56.583H80V61.9997H81.0913V57.6069H83.7347C84.7644 57.6069 85.4087 58.0271 85.4087 59.3032V61.999H86.5V59.152C86.4994 57.7079 85.7495 56.583 83.9918 56.583Z" fill="black"/>
<path d="M76.0033 56.5833H77.514C77.6855 56.5833 77.8346 56.3388 77.8346 56.047C77.8346 55.7445 77.685 55.5 77.514 55.5H76.0033C75.8182 55.5 75.668 55.7445 75.668 56.047C75.668 56.3388 75.8182 56.5833 76.0033 56.5833Z" fill="black"/>
<path d="M59.1243 59.856C60.7695 59.8168 61.3102 59.3702 61.3102 58.2292C61.3102 57.1957 60.5843 56.583 59.3551 56.583H54V61.9997H55.1881V57.6069H59.3633C59.8337 57.6069 60.0816 57.8238 60.0816 58.2536C60.0816 58.6314 59.964 58.9976 59.1982 58.9738H56.1954V59.2865L59.859 61.9823H61.5833L58.5375 59.8554H59.1243V59.856Z" fill="black"/>
<path d="M67.4768 56.605C67.1336 56.591 66.7833 56.583 66.4347 56.583C65.8414 56.583 65.4569 56.605 65.4533 56.605H65.4341C64.614 56.632 63.9152 56.9111 63.4136 57.4119C62.9325 57.8925 62.668 58.5579 62.668 59.2877V59.295C62.668 60.8604 63.7826 61.9385 65.4419 61.9776C65.7857 61.9929 66.136 61.9997 66.4845 61.9997C67.0772 61.9997 67.4624 61.9782 67.466 61.9776H67.4846C68.3046 61.9507 69.0035 61.6715 69.5056 61.1708C69.9867 60.6914 70.2513 60.0247 70.2513 59.295V59.2877C70.2513 57.7535 69.1361 56.6754 67.4768 56.605ZM69.0491 59.2779C69.0455 60.2715 68.412 60.9161 67.3958 60.9596H67.373L67.3514 60.9608C67.2896 60.9657 67.0508 60.9828 66.5355 60.9828C66.1912 60.9828 65.8606 60.9755 65.5541 60.9602L65.5361 60.9596C64.5085 60.9326 63.8702 60.288 63.8702 59.2773C63.8702 58.2775 64.5037 57.6299 65.5235 57.5864H65.5463L65.5673 57.5858C65.5709 57.5852 65.995 57.5637 66.5763 57.5637C66.9033 57.5637 67.043 57.5705 67.3214 57.5839L67.3652 57.5858C68.4198 57.636 69.0491 58.2647 69.0491 59.2693V59.2779Z" fill="black"/>
<path d="M77.832 60.9745H72.5228V59.7569H77.1787V58.7755H72.5228V57.6069H77.832V56.583H71.332V61.9997H77.832V60.9745Z" fill="black"/>
<path d="M72.7532 56.5833H74.2565C74.435 56.5833 74.5846 56.3388 74.5846 56.047C74.5846 55.7445 74.435 55.5 74.2565 55.5H72.7532C72.5681 55.5 72.418 55.7445 72.418 56.047C72.418 56.3388 72.5676 56.5833 72.7532 56.5833Z" fill="black"/>
<path d="M37.1146 56.6056H37.0979C36.3281 56.6327 35.6714 56.9113 35.1998 57.4117C34.7482 57.8922 34.5 58.5577 34.5 59.2872V59.2949C34.5 60.8595 35.5468 61.9371 37.1043 61.9771C37.5426 61.9977 38.8645 61.9997 39.4132 61.9997C40.1221 61.9997 40.7989 61.9964 40.9994 61.9919V60.9536C40.6978 60.9575 38.4021 60.9614 38.1315 60.9614C37.8115 60.9614 37.4903 60.9543 37.2013 60.9394C36.2465 60.9136 35.6283 60.2681 35.6283 59.2949C35.6283 58.3211 36.2379 57.6658 37.1812 57.6252H37.2025L37.2226 57.6239C37.226 57.6239 37.6219 57.6026 38.1694 57.6026C38.3222 57.6026 40.68 57.6058 41 57.6117V56.5914C40.7874 56.5862 40.4559 56.583 40.0136 56.583C38.8002 56.583 37.1313 56.6049 37.1146 56.6056Z" fill="black"/>
<path d="M61.0401 10C52.3787 10 45.332 18.7478 45.332 29.4997C45.332 40.2516 52.3787 49 61.0401 49C69.7014 49 76.7487 40.2522 76.7487 29.4997C76.7487 18.7472 69.702 10 61.0401 10ZM48.227 36.249L48.2121 36.2036C47.6915 34.5935 47.5368 33.1829 47.5356 33.1686L47.5337 33.1487L47.5499 33.1369L61.0401 23.158L74.547 33.1487L74.5452 33.1686C74.5433 33.1829 74.3892 34.5935 73.8686 36.2036L73.8537 36.249L73.8152 36.2204L73.8146 36.2223L61.0394 26.7449L48.2276 36.2508L48.227 36.249ZM61.0401 47.1593C56.541 47.1593 52.329 44.3722 49.7223 39.6892L49.6913 39.6289L61.0394 31.2347L72.3895 39.6302L72.3596 39.6842L72.3603 39.6848C69.7542 44.3704 65.5422 47.1593 61.0401 47.1593ZM61.0401 18.5931L47.1839 28.8733L47.1858 28.8025C47.3256 24.2418 48.8296 19.977 51.4195 16.794C54.0194 13.5999 57.4356 11.8407 61.0401 11.8407C64.6445 11.8407 68.0607 13.5999 70.6606 16.794C73.2511 19.977 74.7545 24.2418 74.8943 28.8025L74.8962 28.8733L74.839 28.831L61.0401 18.5931Z" fill="black"/>
</g>
<defs>
<clipPath id="clip0_1_364">
<rect width="52" height="52" fill="white" transform="translate(34.5 10)"/>
</clipPath>
</defs>
</svg>
