<svg width="121" height="72" viewBox="0 0 121 72" fill="none" xmlns="http://www.w3.org/2000/svg">
<rect width="121" height="72" rx="12" fill="white"/>
<path d="M61.4997 20C37.9098 20 19 27.0991 19 35.9997C19 44.8461 38.0656 52 61.4997 52C84.9343 52 104 44.8221 104 35.9997C104 27.1773 84.9343 20 61.4997 20Z" fill="#003478"/>
<path d="M78.6743 39.1816C78.6858 39.2552 78.7825 39.3257 78.8761 39.359C78.9106 39.3705 78.9275 39.3935 78.8914 39.4717C78.6244 40.0435 78.3787 40.3732 78.0439 40.8701C77.7358 41.3291 77.3888 41.6873 76.9688 42.0318C76.3352 42.5555 75.4552 43.1255 74.7278 42.7423C74.4047 42.5748 74.2648 42.1232 74.2711 41.7575C74.2864 40.7293 74.7445 39.6737 75.5902 38.6363C76.6212 37.3686 77.761 36.7111 78.509 37.0704C79.2829 37.4391 79.0359 38.334 78.6893 39.0364C78.6625 39.0908 78.6628 39.1372 78.6743 39.1816ZM86.9789 31.1698C87.0345 31.0717 86.976 31 86.8519 31C86.2055 31 85.3574 31.0015 84.6838 31.0015C84.5234 31.0015 84.4406 31.0206 84.365 31.17C84.1163 31.6458 81.0867 36.1806 80.5228 37.0612C80.4276 37.1953 80.3117 37.1765 80.2983 37.0228C80.2411 36.4998 79.7888 35.8986 79.0763 35.6109C78.5332 35.3909 78.0024 35.351 77.4504 35.4242C76.4539 35.558 75.5662 36.0829 74.7857 36.675C73.6093 37.5682 72.5944 38.7258 71.2842 39.5811C70.569 40.0468 69.5896 40.4528 68.9342 39.8467C68.3411 39.2975 68.4081 38.0777 69.3156 37.1342C69.4111 37.0354 69.5259 37.1189 69.5078 37.2066C69.4223 37.6333 69.527 38.0576 69.8516 38.3551C70.2475 38.7096 70.8141 38.7496 71.2991 38.513C71.8714 38.2298 72.2077 37.683 72.3057 37.0623C72.4572 36.0996 71.7153 35.2504 70.7867 35.1823C70.0325 35.1294 69.3091 35.3915 68.6043 35.9725C68.2509 36.2653 68.0503 36.4816 67.7446 36.9157C67.6702 37.0226 67.5558 37.0333 67.5593 36.8754C67.5938 35.6427 67.0838 34.9493 66.0635 34.9266C65.2715 34.9075 64.4254 35.3369 63.7659 35.862C63.0429 36.4419 62.4108 37.2104 61.7331 37.9324C61.6486 38.0214 61.5753 38.0171 61.5516 37.8447C61.5324 37.028 61.3256 36.2369 60.9471 35.6752C60.8132 35.4797 60.5313 35.3831 60.2945 35.515C60.1851 35.5748 59.8047 35.7495 59.5277 35.9723C59.3903 36.0853 59.3366 36.249 59.3976 36.4587C59.7629 37.6789 59.6827 39.0661 59.1869 40.2378C58.7318 41.3109 57.8473 42.2787 56.8077 42.6063C56.1228 42.8232 55.4109 42.7171 54.9703 42.1107C54.3653 41.2738 54.6096 39.8182 55.5115 38.6097C56.3075 37.5455 57.4589 36.8696 58.6073 36.4343C58.7424 36.3822 58.7704 36.2955 58.732 36.181C58.6698 35.9924 58.5701 35.7356 58.5298 35.6184C58.4242 35.3383 58.1294 35.293 57.7693 35.3321C56.9348 35.4291 56.1821 35.7146 55.4385 36.1123C53.4915 37.1536 52.5153 39.1689 52.0875 40.2471C51.8814 40.7651 51.7053 41.0882 51.4777 41.3747C51.1707 41.76 50.7854 42.1108 50.0809 42.7288C50.0172 42.7855 49.9696 42.9035 50.0233 43.0135C50.0951 43.1622 50.4615 43.679 50.5649 43.7251C50.6796 43.7815 50.8127 43.7021 50.8661 43.6646C51.3591 43.3308 51.9489 42.8017 52.2376 42.4429C52.3389 42.3199 52.4429 42.3717 52.4966 42.5583C52.766 43.5181 53.4713 44.3018 54.4466 44.6296C56.2319 45.2309 58.0836 44.3606 59.4813 42.8454C60.3696 41.8824 60.6902 41.2629 61.0307 40.8419C61.6077 40.1279 62.746 38.5306 64.1017 37.505C64.5989 37.1267 65.1872 36.8382 65.483 37.0299C65.7205 37.1835 65.7973 37.5407 65.4162 38.2327C64.034 40.7536 62.0003 43.7154 61.6273 44.4336C61.559 44.5581 61.6196 44.6562 61.7493 44.6562C62.4726 44.6526 63.1896 44.6544 63.8462 44.6544C63.9556 44.6506 64.0044 44.5993 64.0592 44.5222C65.12 42.8639 66.1182 41.2855 67.1883 39.6536C67.2481 39.5575 67.3034 39.6306 67.3057 39.6728C67.3287 40.0514 67.4208 40.5692 67.646 40.9093C68.0505 41.538 68.6237 41.8081 69.2594 41.8123C69.7652 41.8199 70.0211 41.7413 70.5666 41.5378C71.0104 41.3734 71.3667 41.1577 71.6402 40.9624C71.7998 40.8513 71.8278 41.0371 71.824 41.0655C71.5784 42.382 71.8816 43.9419 73.1916 44.5887C74.7595 45.3608 76.4819 44.2756 77.473 43.296C77.5701 43.2017 77.674 43.2117 77.684 43.4151C77.707 43.7892 77.8743 44.233 78.1841 44.5436C79.0147 45.3761 80.6906 45.0462 82.3726 43.746C83.4524 42.9136 84.5823 41.7375 85.6029 40.4921C85.6413 40.4438 85.6689 40.3664 85.5952 40.2878C85.4398 40.1253 85.215 39.9395 85.0608 39.7963C84.9906 39.7365 84.8874 39.7538 84.8283 39.7984C83.7821 40.7921 82.8404 41.9253 81.4794 42.8625C81.0203 43.1825 80.2887 43.4406 79.9601 42.9963C79.8319 42.8238 79.8465 42.5854 79.9716 42.2723C80.3684 41.284 86.6527 31.7332 86.9789 31.1698Z" fill="white"/>
<path d="M57.3576 31.9634C57.3841 32.1022 57.4385 32.1293 57.5019 32.1176C57.8169 32.055 58.1617 31.7977 58.3658 31.4994C58.5516 31.229 58.6388 30.8387 58.4541 30.6823C58.2895 30.5417 58.0213 30.5814 57.8225 30.7558C57.4267 31.1031 57.3066 31.5957 57.3576 31.9634ZM41.5952 43.9998C39.2893 44.0148 37.2578 42.6007 37.0247 40.1508C36.8951 38.7933 37.2815 37.5834 38.0551 36.5867C38.7415 35.6985 39.903 34.9607 40.8862 34.7804C41.2061 34.7223 41.6359 34.7579 41.8137 34.9694C42.0924 35.2916 42.0123 35.6456 41.7335 35.7868C40.9835 36.1671 40.0809 36.8182 39.6343 37.7072C39.2721 38.4328 39.1989 39.3073 39.7522 40.1404C40.6782 41.5288 43.2595 41.567 45.6595 39.3528C46.2539 38.8109 46.7858 38.2902 47.3265 37.6734C48.3835 36.4732 48.7351 36.0358 50.1403 34.1002C50.1554 34.0777 50.1629 34.0485 50.1554 34.0342C50.144 34.0079 50.1252 34.0042 50.0833 34.0004C49.1452 34.0267 48.3274 34.3039 47.5325 34.8938C47.3036 35.0596 46.9741 35.0364 46.8299 34.8181C46.6694 34.5713 46.7846 34.25 47.0486 34.0685C48.3274 33.1854 49.7243 33.0252 51.1508 32.7861C51.1496 32.7861 51.2498 32.7898 51.3314 32.6833C51.9169 31.937 52.3591 31.2638 52.9834 30.509C53.6124 29.7432 54.4249 29.0399 55.0456 28.5117C55.9121 27.7718 56.4678 27.5228 57.0326 27.2177C57.1814 27.1404 57.0137 27.0481 56.9684 27.0481C53.8153 26.4596 50.5379 25.6981 47.4066 26.8493C45.2379 27.653 44.2875 29.3609 44.7446 30.502C45.0698 31.3116 46.1419 31.4432 47.1456 30.9554C47.9792 30.5498 48.7507 29.896 49.2976 29.0545C49.6035 28.5872 50.2482 28.9243 49.8999 29.7359C48.9835 31.8747 47.233 33.5712 45.1006 33.6428C43.2859 33.7014 42.115 32.3755 42.1188 30.7399C42.1264 27.5138 45.7428 25.3887 49.5436 25.071C54.1208 24.6954 58.4561 25.9062 63.0008 26.4536C66.4829 26.8723 69.8213 26.8811 73.3212 26.0826C73.7349 25.9933 74.0252 26.2555 73.9983 26.6705C73.9643 27.2704 73.4962 27.8481 72.3436 28.4724C71.0326 29.1865 69.6611 29.4031 68.2287 29.4147C64.7651 29.4447 61.5388 28.1026 58.2001 27.3822C58.2039 27.5274 58.2425 27.7002 58.1201 27.7919C56.2708 29.1465 54.5991 30.5221 53.4796 32.4542C53.4418 32.4989 53.4607 32.5413 53.5275 32.5367C54.4996 32.4854 55.3737 32.4606 56.2812 32.3886C56.4398 32.3736 56.4458 32.3361 56.4319 32.2213C56.3514 31.5553 56.5474 30.7959 57.1373 30.2735C57.7411 29.7359 58.4971 29.6748 58.9982 30.062C59.5679 30.5029 59.5175 31.2957 59.2059 31.8904C58.8886 32.4937 58.3647 32.8164 57.8618 32.973C57.8618 32.973 57.756 32.9956 57.7719 33.0908C57.7908 33.2431 58.4768 33.6202 58.5355 33.7206C58.5921 33.8163 58.5619 33.9644 58.4588 34.0781C58.3863 34.1606 58.2726 34.2379 58.1272 34.2353C58.0097 34.2329 57.9383 34.1925 57.788 34.1119C57.4806 33.9465 57.0963 33.6745 56.84 33.3539C56.7528 33.2455 56.7082 33.2433 56.4902 33.2553C55.5082 33.3115 53.977 33.4586 52.9396 33.5872C52.688 33.6172 52.651 33.6648 52.5993 33.7515C50.9452 36.4601 49.1791 39.3811 47.24 41.3368C45.1602 43.4336 43.4305 43.9855 41.5952 43.9998Z" fill="white"/>
<path d="M61.5016 22.2059C39.9187 22.2059 22.4241 28.1844 22.4241 35.5C22.4241 42.8162 39.9187 48.7952 61.5016 48.7952C83.0842 48.7952 100.578 42.8162 100.578 35.5C100.578 28.1844 83.0842 22.2059 61.5016 22.2059ZM61.5016 50C39.133 50 21 43.5082 21 35.5C21 27.4906 39.133 21 61.5016 21C83.8681 21 102 27.4906 102 35.5C102 43.5082 83.8681 50 61.5016 50Z" fill="white"/>
</svg>
