<svg width="121" height="72" viewBox="0 0 121 72" fill="none" xmlns="http://www.w3.org/2000/svg">
<rect width="121" height="72" rx="12" fill="white"/>
<g clip-path="url(#clip0_1_398)">
<path d="M61.5 45C73.9264 45 84 38.2843 84 30C84 21.7157 73.9264 15 61.5 15C49.0736 15 39 21.7157 39 30C39 38.2843 49.0736 45 61.5 45Z" fill="url(#paint0_linear_1_398)" stroke="black" stroke-width="3"/>
<path d="M62 44C73.0457 44 82 37.732 82 30C82 22.268 73.0457 16 62 16C50.9543 16 42 22.268 42 30C42 37.732 50.9543 44 62 44Z" fill="url(#paint1_radial_1_398)"/>
<path fill-rule="evenodd" clip-rule="evenodd" d="M74.0274 31.6718C73.2155 28.6654 72.2231 25.8359 70.4188 23.0947C68.6488 20.534 64.9121 21.4457 62 21V38.583C62 43.8848 71.5519 42.5894 77 37.628C75.1362 36.3123 74.6219 33.8355 74.0274 31.6718Z" fill="url(#paint2_linear_1_398)"/>
<path fill-rule="evenodd" clip-rule="evenodd" d="M80 30.3471C80 22.9755 71.5003 17 61.0154 17H61V20.096H61.2578V21.0411C64.1763 21.4956 67.9233 20.5658 69.6978 23.1775C71.5066 25.9732 72.5015 28.8591 73.3155 31.9253C73.9115 34.1321 74.4279 36.6581 76.2955 38C78.4752 35.9808 80 33.3673 80 30.3471Z" fill="url(#paint3_linear_1_398)"/>
<path fill-rule="evenodd" clip-rule="evenodd" d="M48.9726 31.6718C49.7845 28.6654 50.7769 25.8359 52.5812 23.0947C54.3512 20.534 58.0879 21.4457 61 21V38.583C61 43.8848 51.4481 42.5894 46 37.628C47.8638 36.3123 48.3781 33.8355 48.9726 31.6718Z" fill="url(#paint4_linear_1_398)"/>
<path fill-rule="evenodd" clip-rule="evenodd" d="M42 30.3471C42 22.9755 50.4997 17 60.9846 17H61V20.096H60.7422V21.0411C57.8237 21.4956 54.0767 20.5658 52.3022 23.1775C50.4934 25.9732 49.4985 28.8591 48.6845 31.9253C48.0885 34.1321 47.5721 36.6581 45.7045 38C43.5248 35.9808 42 33.3673 42 30.3471Z" fill="url(#paint5_linear_1_398)"/>
<path d="M90.194 46.1872C90.0262 45.9543 89.2077 45.9931 88.918 46.0216C88.7173 46.0414 88.5266 46.1061 88.368 46.2079C88.2882 48.7672 88.324 51.8406 88.324 54.5716C88.324 54.8493 88.2516 55.573 88.368 55.7309C88.4972 55.9077 89.0308 55.8758 89.292 55.8758C89.6779 55.8758 90.0354 55.8956 90.194 55.7102C90.2738 53.244 90.238 50.043 90.238 47.3465C90.238 47.0731 90.3104 46.3485 90.194 46.1872ZM92.108 46.2286C92.0686 48.7344 92.086 51.8234 92.086 54.5302C92.086 54.8692 92.0007 55.5549 92.13 55.7309C92.2684 55.9198 93.1273 55.9146 93.516 55.8758C93.7076 55.8568 93.9202 55.7973 94 55.6688V46.2493C93.6737 45.906 92.4747 45.95 92.108 46.2286ZM32.444 48.1125C33.5633 47.915 34.5918 48.2247 35.326 48.5473C35.4965 48.6223 35.9127 48.9009 36.096 48.8371C36.4067 48.7293 36.327 47.683 36.206 47.4294C36.0575 47.1171 35.5185 46.9187 35.128 46.8083C34.7164 46.6918 34.1334 46.5892 33.654 46.5599C32.4541 46.4857 31.4577 46.6849 30.706 46.9946C29.2072 47.6122 28.1072 49.0234 28 50.9901V51.7975C28.2768 54.5509 30.0634 56.2018 33.544 55.9586C34.0363 55.9241 34.5001 55.8732 34.996 55.7516C35.4048 55.6507 36.0676 55.5161 36.206 55.2133C36.3151 54.9735 36.272 54.5198 36.272 54.1575V51.9217C36.272 51.3412 36.3673 50.8064 35.942 50.6589C35.5139 50.5105 34.7522 50.6175 34.138 50.6175H33.214C32.9289 50.6175 32.5027 50.5795 32.356 50.6589C32.0517 50.8236 32.1415 51.8044 32.356 52.0252C32.9573 52.0735 33.654 52.0321 34.292 52.0459V54.1782C33.0151 54.7553 31.5631 54.3128 30.882 53.64C30.1643 52.9318 29.8058 51.5353 30.156 50.2448C30.4567 49.1355 31.2358 48.3256 32.444 48.1125ZM78.226 46.8083C78.0876 46.9454 78.0353 47.4699 77.984 47.6778C77.4615 49.7764 76.9188 52.0407 76.422 54.0126C75.8592 51.9174 75.3119 49.7877 74.75 47.6571C74.6822 47.4009 74.6006 46.9014 74.464 46.7876C74.2843 46.6384 73.8168 46.6634 73.452 46.6634C73.0954 46.6634 72.6297 46.6634 72.462 46.8083C72.33 46.9221 72.2429 47.3871 72.176 47.6571C71.6489 49.7808 71.0952 51.9579 70.57 53.9919C70.0713 51.9364 69.5002 49.7428 69.008 47.6571C68.9365 47.356 68.9081 46.8963 68.766 46.7669C68.5442 46.565 66.973 46.609 66.83 46.829C66.6842 47.0533 66.9492 47.6735 67.028 47.9676C67.6486 50.2785 68.2536 52.4203 68.876 54.6751C68.9677 55.0054 69.0648 55.5868 69.25 55.7309C69.5745 55.9827 71.4198 55.9629 71.714 55.7309C71.8561 55.6187 71.9083 55.2953 71.978 55.027C72.4648 53.1466 72.8672 51.4016 73.386 49.6238C73.8223 51.4093 74.3402 53.1871 74.816 54.9649C74.8884 55.234 74.9187 55.5842 75.058 55.7102C75.3853 56.0052 77.3048 55.9629 77.588 55.6895C77.7677 55.5161 77.8456 54.952 77.94 54.613C78.5551 52.3961 79.238 50.0939 79.81 47.9676C79.9118 47.5907 80.0997 47.1939 79.986 46.7876C79.6615 46.6418 78.49 46.5469 78.226 46.8083ZM61.132 54.3852C60.9413 54.2602 60.8469 53.922 60.824 53.64C60.7507 52.7265 60.8634 51.3438 60.846 50.514C61.3612 50.5019 61.9295 50.5398 62.408 50.4933C62.6454 50.2103 62.6491 49.4124 62.43 49.1062C61.9772 49.0148 61.3493 49.0881 60.824 49.0648C60.8102 48.5602 60.8524 48.003 60.802 47.5329C60.4326 47.2862 59.2959 47.2801 58.954 47.5536C58.9036 48.0237 58.9458 48.5809 58.932 49.0855C58.6781 49.0484 58.2848 49.0553 58.03 49.0855C57.7568 49.3564 57.7687 50.1982 58.008 50.4933C58.2702 50.5502 58.6708 50.4769 58.932 50.5347C59.0869 52.0519 58.5809 54.2196 59.306 55.2754C59.5682 55.6567 60.1108 55.9353 60.802 55.9793C61.374 56.0155 62.2384 55.9448 62.452 55.6688C62.6665 55.3919 62.6262 54.6233 62.43 54.3438C62.0652 54.4068 61.4748 54.6104 61.132 54.3852ZM41.75 48.8992C40.6005 48.8207 40.276 49.6134 39.792 50.0378C39.7792 49.7532 39.8186 49.4193 39.77 49.1683C39.4427 48.9535 38.4573 48.9432 38.186 49.2097C38.1493 51.3282 38.1493 53.5917 38.186 55.7102C38.5536 55.9577 39.6884 55.9577 40.056 55.7102C40.1073 54.4059 40.0633 53.012 40.078 51.6733C40.408 51.242 40.705 50.7037 41.288 50.5761C41.6345 50.5002 42.0718 50.7952 42.3 50.7003C42.4998 50.6175 42.4733 50.2353 42.476 49.955C42.4852 49.1562 42.465 48.9484 41.75 48.8992ZM48.13 49.2097C47.5067 48.9216 46.6844 48.8181 45.842 48.9406C44.357 49.1571 43.4816 50.1085 43.18 51.4455C43.0196 52.1546 43.0416 53.0491 43.202 53.7228C43.5357 55.1253 44.4441 55.8378 46.128 56H47.184C47.5158 55.9551 47.932 55.9068 48.328 55.8137C48.6378 55.7404 49.1246 55.6507 49.252 55.441C49.4051 55.1892 49.3327 54.5621 49.23 54.261C48.8111 54.2567 48.3857 54.4491 47.932 54.5509C46.4369 54.8855 44.8768 54.5457 45.006 52.9154H48.218C48.7432 52.9154 49.3354 52.9939 49.538 52.7084C49.7241 52.4461 49.6572 51.8932 49.626 51.5698C49.5105 50.3665 48.9312 49.5798 48.13 49.2097ZM45.006 51.7561C45.0216 50.8254 45.5872 50.0922 46.59 50.162C47.4031 50.219 47.8275 50.834 47.8 51.7561C46.9686 51.7569 45.8365 51.7561 45.006 51.7561ZM56.886 52.5221C56.886 51.4602 56.9621 50.3682 56.402 49.7066C55.6292 48.794 53.7134 48.7353 52.31 49.1476C51.8847 49.2727 51.3713 49.4297 51.21 49.7273C51.0478 50.0266 51.1321 50.8271 51.408 50.8866C51.6362 50.9358 51.9562 50.6942 52.134 50.6175C52.7097 50.3682 53.8418 49.9886 54.576 50.4104C54.9858 50.6459 55.0463 51.0824 55.016 51.7975C53.3064 51.7682 51.6876 51.8846 51.034 52.9154C50.6426 53.533 50.6985 54.4775 51.034 55.027C51.3677 55.5722 52.0084 55.8982 52.794 56H53.586C53.9701 55.9482 54.2891 55.8197 54.576 55.6688C54.8693 55.5152 55.0948 55.3255 55.324 55.1719C55.3322 55.3367 55.2947 55.6015 55.346 55.7723C55.6668 55.8801 56.6495 56.0095 56.842 55.7516C56.9355 55.6274 56.886 55.1995 56.886 54.9649V52.5221ZM55.016 53.9712C54.9628 54.1541 54.5623 54.468 54.268 54.613C53.7987 54.8433 53.0818 54.7432 52.816 54.4473C52.5658 54.1696 52.5593 53.6624 52.772 53.3708C53.1332 52.8749 54.1076 52.9085 55.016 52.9154C54.9427 53.2898 55.1132 53.6374 55.016 53.9712ZM86.036 49.748C85.3485 48.8423 83.4336 48.712 82.01 49.1062C81.5938 49.2218 80.943 49.4107 80.778 49.748C80.6295 50.0516 80.7056 50.8486 80.998 50.8866C81.2207 50.9151 81.5599 50.6977 81.79 50.5968C82.4573 50.3026 84.1156 49.8998 84.496 50.7417C84.6335 51.0462 84.5803 51.2687 84.606 51.7768C82.7773 51.7845 81.1877 51.8906 80.558 53.0396C80.2051 53.6831 80.3142 54.5836 80.646 55.0891C80.9751 55.5911 81.6516 55.9112 82.384 56H83.154C83.8186 55.9241 84.3154 55.6248 84.738 55.2754C84.7765 55.2435 84.8343 55.1555 84.892 55.1926C84.9323 55.4574 84.8086 55.6498 84.958 55.793C85.2082 56.0328 86.1561 55.8456 86.41 55.7723C86.4916 54.6483 86.454 53.6486 86.454 52.5842C86.454 51.518 86.5512 50.4268 86.036 49.748ZM84.606 53.9505C84.5217 54.2783 83.7599 54.7053 83.33 54.7372C82.8698 54.7708 82.4885 54.6086 82.318 54.3438C82.054 53.9332 82.252 53.3562 82.604 53.1431C83.0733 52.8593 83.781 52.9318 84.606 52.9154C84.5418 53.2872 84.6913 53.6184 84.606 53.9505Z" fill="#CE181E"/>
<path fill-rule="evenodd" clip-rule="evenodd" d="M72.5717 37C72.3501 37 72.1358 36.9838 71.9324 36.9515C71.8049 36.9308 68.7829 36.3893 68.867 32.6885V26.1291L61 21.8526L53.133 26.1291V32.6831C53.218 36.3893 50.196 36.9308 50.0676 36.9515C49.866 36.9838 49.6507 37 49.4292 37C48.8071 37 47.2138 36.8545 45.8646 35.5101C44.6186 34.2681 43.9919 32.4262 44.0001 30.0347C44.0245 23.3991 51.6509 18 61 18C70.349 18 77.9755 23.3991 77.9999 30.0347C78.0089 32.4253 77.3814 34.2681 76.1362 35.5092C74.7871 36.8545 73.1938 37 72.5717 37Z" fill="white"/>
<path d="M61.5 18.4387C66.0766 18.4387 70.3721 19.6555 73.5974 21.8637C76.7731 24.0394 78.5296 26.9205 78.5406 29.9771C78.5498 32.2529 77.9352 33.9996 76.7134 35.1699C75.4035 36.4254 73.8583 36.5613 73.2548 36.5613C73.0417 36.5613 72.8359 36.5464 72.643 36.5166C72.6356 36.5157 71.8869 36.3876 71.1612 35.856C70.1719 35.1313 69.6868 34.0268 69.7217 32.5731V26.0309L69.4829 25.9064L61.7205 21.8488L61.5 21.7339L61.2795 21.8488L53.5171 25.9064L53.2783 26.0309V32.5739C53.3591 35.9902 50.4783 36.4982 50.3579 36.5175C50.1641 36.5473 49.9574 36.5622 49.7452 36.5622C49.1417 36.5622 47.5965 36.4262 46.2866 35.1708C45.0657 34.0005 44.4511 32.2529 44.4594 29.978C44.4714 26.9223 46.2269 24.0403 49.4035 21.8646C52.6279 19.6555 56.9234 18.4387 61.5 18.4387ZM61.5 18C51.8351 18 44.0258 23.3613 44.0001 29.9753C43.979 35.3454 47.3954 37 49.7452 37C49.9868 37 50.2165 36.9825 50.4305 36.95C50.4305 36.95 53.8294 36.4236 53.7376 32.5634V26.2906L61.5 22.233L69.2624 26.2906V32.5634C69.1706 36.4236 72.5695 36.95 72.5695 36.95C72.7835 36.9825 73.0132 37 73.2548 37C75.6037 37 79.021 35.3454 78.9999 29.9753C78.9742 23.3613 71.1649 18 61.5 18Z" fill="#4D4D4D"/>
<path d="M51 26.2984L61.5757 21L62 21.7016L51.4244 27L51 26.2984Z" fill="white"/>
<path d="M60 21.7016L60.4243 21L71 26.2984L70.5757 27L60 21.7016Z" fill="white"/>
</g>
<defs>
<linearGradient id="paint0_linear_1_398" x1="50.3524" y1="18.8601" x2="73.4761" y2="42.7285" gradientUnits="userSpaceOnUse">
<stop stop-color="#F7F7F7"/>
<stop offset="1" stop-color="#252525"/>
</linearGradient>
<radialGradient id="paint1_radial_1_398" cx="0" cy="0" r="1" gradientUnits="userSpaceOnUse" gradientTransform="translate(62.0461 42.9935) scale(14.5765 14.4717)">
<stop stop-color="#CCCCCC"/>
<stop offset="1" stop-color="white"/>
</radialGradient>
<linearGradient id="paint2_linear_1_398" x1="59.8943" y1="25.0078" x2="73.7968" y2="39.8486" gradientUnits="userSpaceOnUse">
<stop stop-color="#9B9B9B"/>
<stop offset="0.093" stop-color="#828282"/>
<stop offset="0.251" stop-color="#5E5E5E"/>
<stop offset="0.4" stop-color="#444444"/>
<stop offset="0.533" stop-color="#343434"/>
<stop offset="0.638" stop-color="#2F2F2F"/>
<stop offset="0.781" stop-color="white"/>
<stop offset="1" stop-color="#A0A0A0"/>
</linearGradient>
<linearGradient id="paint3_linear_1_398" x1="71.0117" y1="35.0492" x2="70.1553" y2="18.3008" gradientUnits="userSpaceOnUse">
<stop stop-color="#9B9B9B"/>
<stop offset="0.542" stop-color="#2F2F2F"/>
<stop offset="0.722" stop-color="#313131"/>
<stop offset="0.796" stop-color="#383838"/>
<stop offset="0.852" stop-color="#444444"/>
<stop offset="0.897" stop-color="#565656"/>
<stop offset="0.936" stop-color="#6D6D6D"/>
<stop offset="0.971" stop-color="#888888"/>
<stop offset="1" stop-color="#A6A6A6"/>
</linearGradient>
<linearGradient id="paint4_linear_1_398" x1="63.1057" y1="25.0078" x2="49.2032" y2="39.8486" gradientUnits="userSpaceOnUse">
<stop stop-color="#9B9B9B"/>
<stop offset="0.093" stop-color="#828282"/>
<stop offset="0.251" stop-color="#5E5E5E"/>
<stop offset="0.4" stop-color="#444444"/>
<stop offset="0.533" stop-color="#343434"/>
<stop offset="0.638" stop-color="#2F2F2F"/>
<stop offset="0.781" stop-color="white"/>
<stop offset="1" stop-color="#A0A0A0"/>
</linearGradient>
<linearGradient id="paint5_linear_1_398" x1="50.9883" y1="35.0492" x2="51.8446" y2="18.3008" gradientUnits="userSpaceOnUse">
<stop stop-color="#9B9B9B"/>
<stop offset="0.542" stop-color="#2F2F2F"/>
<stop offset="0.722" stop-color="#313131"/>
<stop offset="0.796" stop-color="#383838"/>
<stop offset="0.852" stop-color="#444444"/>
<stop offset="0.897" stop-color="#565656"/>
<stop offset="0.936" stop-color="#6D6D6D"/>
<stop offset="0.971" stop-color="#888888"/>
<stop offset="1" stop-color="#A6A6A6"/>
</linearGradient>
<clipPath id="clip0_1_398">
<rect width="74" height="42" fill="white" transform="translate(24 15)"/>
</clipPath>
</defs>
</svg>
