<svg width="121" height="72" viewBox="0 0 121 72" fill="none" xmlns="http://www.w3.org/2000/svg">
<rect width="121" height="72" rx="12" fill="white"/>
<path d="M33.3394 30L31.3298 33.7096L31.2347 33.7021C31.2335 33.7021 30.4771 33.6908 29.4928 33.7046C28.2948 33.7221 27.2366 33.8133 26.5894 33.9583L26.2347 34.0508L28.4217 30.0012H23.7658L18 41H22.6582L23.9255 38.4903C24.4999 37.3679 25.7531 36.1006 27.1473 35.9481C27.6089 35.8981 28.1304 35.8756 28.6953 35.8756C29.386 35.8756 29.9027 35.9168 29.9086 35.9168L30.1588 35.9231L27.5713 40.9987H32.2342L38 30H33.3394Z" fill="#231F20"/>
<path d="M33.3394 30L31.3298 33.7096L31.2347 33.7021C31.2335 33.7021 30.4771 33.6908 29.4928 33.7046C28.2948 33.7221 27.2366 33.8133 26.5894 33.9583L26.2347 34.0508L28.4217 30.0012H23.7658L18 41H22.6582L23.9255 38.4903C24.4999 37.3679 25.7531 36.1006 27.1473 35.9481C27.6089 35.8981 28.1304 35.8756 28.6953 35.8756C29.386 35.8756 29.9027 35.9168 29.9086 35.9168L30.1588 35.9231L27.5713 40.9987H32.2342L38 30H33.3394Z" fill="#231F20"/>
<path d="M69.4191 30.0868L62.5032 36.259L62.2981 30.0446L58 30L58.1845 41H63.1275L75 30.0868H69.4191Z" fill="#231F20"/>
<path d="M69.4191 30.0868L62.5032 36.259L62.2981 30.0446L58 30L58.1845 41H63.1275L75 30.0868H69.4191Z" fill="#231F20"/>
<path d="M45.2322 31.7315C44.3022 32.3995 43.2135 33.269 42.9317 33.5439L35 41H39.2762L40.593 39.6628C41.2293 39.052 42.7049 38.4064 44.1936 38.4064H44.2664C45.7945 38.4276 47.1865 38.5283 47.1996 38.5296L47.436 38.547L46.3723 41H50.0349L55 30H51.212C48.6907 30 46.0726 31.127 45.2322 31.7315ZM48.3421 36.3589H44.0073L45.7909 34.5839C45.8709 34.5105 47.633 32.8983 48.4495 32.397C48.9784 32.0724 49.5287 32.004 49.8976 32.004C50.1077 32.004 50.2415 32.0263 50.2474 32.0276L50.4707 32.0662L48.3421 36.3589Z" fill="#231F20"/>
<path d="M45.2322 31.7315C44.3022 32.3995 43.2135 33.269 42.9317 33.5439L35 41H39.2762L40.593 39.6628C41.2293 39.052 42.7049 38.4064 44.1936 38.4064H44.2664C45.7945 38.4276 47.1865 38.5283 47.1996 38.5296L47.436 38.547L46.3723 41H50.0349L55 30H51.212C48.6907 30 46.0726 31.127 45.2322 31.7315ZM48.3421 36.3589H44.0073L45.7909 34.5839C45.8709 34.5105 47.633 32.8983 48.4495 32.397C48.9784 32.0724 49.5287 32.004 49.8976 32.004C50.1077 32.004 50.2415 32.0263 50.2474 32.0276L50.4707 32.0662L48.3421 36.3589Z" fill="#231F20"/>
<path d="M84.2099 30C81.6899 30 79.072 31.1282 78.2316 31.7315C77.3017 32.3983 76.213 33.269 75.9312 33.5439L68 41H72.276L73.5927 39.6628C74.229 39.052 75.7044 38.4064 77.1942 38.4064H77.267C78.795 38.4276 80.1869 38.5283 80.2001 38.5296L80.4364 38.547L79.3728 41H83.0352L88 30H84.2099ZM81.3413 36.3589H77.0068L78.7903 34.5839C78.8702 34.5105 80.6322 32.8983 81.4487 32.397C81.9776 32.0724 82.5279 32.004 82.8967 32.004C83.1068 32.004 83.2417 32.0263 83.2465 32.0276L83.4709 32.0662L81.3413 36.3589Z" fill="#231F20"/>
<path d="M84.2099 30C81.6899 30 79.072 31.1282 78.2316 31.7315C77.3017 32.3983 76.213 33.269 75.9312 33.5439L68 41H72.276L73.5927 39.6628C74.229 39.052 75.7044 38.4064 77.1942 38.4064H77.267C78.795 38.4276 80.1869 38.5283 80.2001 38.5296L80.4364 38.547L79.3728 41H83.0352L88 30H84.2099ZM81.3413 36.3589H77.0068L78.7903 34.5839C78.8702 34.5105 80.6322 32.8983 81.4487 32.397C81.9776 32.0724 82.5279 32.004 82.8967 32.004C83.1068 32.004 83.2417 32.0263 83.2465 32.0276L83.4709 32.0662L81.3413 36.3589Z" fill="#231F20"/>
<path d="M93.6001 38.3737L93.5634 38.3837C93.5504 38.3763 93.2312 38.2037 93.1413 37.8512C93.0881 37.64 93.1259 37.4287 93.2548 37.2075C93.2737 37.1725 95.4362 33.1012 95.9139 32.2425C96.5358 31.1225 97.4368 30.375 98.0043 30H92.452C92.0263 30.75 88.8541 36.7325 88.3634 37.645C87.8527 38.5962 87.7853 39.8512 88.7867 40.5575C89.3117 40.9275 90.8771 41 91.4364 41H101.738L104 38.375H93.6001V38.3737Z" fill="#231F20"/>
<path d="M93.6001 38.3737L93.5634 38.3837C93.5504 38.3763 93.2312 38.2037 93.1413 37.8512C93.0881 37.64 93.1259 37.4287 93.2548 37.2075C93.2737 37.1725 95.4362 33.1012 95.9139 32.2425C96.5358 31.1225 97.4368 30.375 98.0043 30H92.452C92.0263 30.75 88.8541 36.7325 88.3634 37.645C87.8527 38.5962 87.7853 39.8512 88.7867 40.5575C89.3117 40.9275 90.8771 41 91.4364 41H101.738L104 38.375H93.6001V38.3737Z" fill="#231F20"/>
</svg>
