<svg width="121" height="72" viewBox="0 0 121 72" fill="none" xmlns="http://www.w3.org/2000/svg">
<rect width="121" height="72" rx="12" fill="white"/>
<g clip-path="url(#clip0_1_434)">
<path fill-rule="evenodd" clip-rule="evenodd" d="M107.023 33.0217H102.655C101.922 33.0663 101.717 33.2532 101.717 34.1681V36.6903H107.023V33.0217ZM109.349 31.0021V42H107.023V38.8387H101.717V42H99.3919V33.3781C99.3919 31.8547 99.9921 31.0021 101.717 31.0021H109.349ZM97.0666 33.376V39.3279C97.0666 41.2227 96.0313 41.9979 94.7408 41.9979H87.4054V31H94.7408C96.7217 31 97.0666 32.2949 97.0666 33.376ZM94.7132 34.0379C94.7132 33.4354 94.356 33.0197 93.7305 33.0197H89.7313V39.8915L93.7305 39.8912C94.6414 39.8436 94.7132 39.2821 94.7132 38.8366V34.0379ZM40 31H42.3256V35.3349H47.5286V31H49.8542V41.9976H47.5286V37.5095H42.3256V41.9976H40V31ZM53.8399 31L56.7553 35.4961L59.6357 31H62.4595L57.917 38.0312V41.9979H55.5911V38.0306L51.017 31H53.8399ZM75.5137 31H83.0079C84.0759 31 85.11 31.1541 85.0799 33.376V41.9979H82.7543V34.1661C82.7543 33.219 82.6437 33.0197 81.9209 33.0197H77.8398V41.9979H75.5137V31ZM114 31.0021V42H111.674V31.0021H114ZM63.6226 41.9979H71.1162C72.6061 41.9979 73.2186 41.5548 73.1884 39.3465V31H70.8629V38.8511C70.8629 39.7923 70.7523 39.9065 70.0295 39.9065H65.9484L65.9481 31H63.6226V41.9979Z" fill="#003984"/>
<path fill-rule="evenodd" clip-rule="evenodd" d="M24.3265 37.6178C24.5321 38.6988 23.9752 39.5968 23.5126 40.4683C22.9987 41.2792 22.1505 41.9762 21.131 41.8719C18.8433 41.837 16.6074 41.4796 14.5339 40.843C14.4397 40.8169 14.3456 40.7557 14.294 40.6687C14.2511 40.5465 14.3113 40.4332 14.3968 40.3549C16.2904 38.7944 18.5436 38.071 20.7711 37.3123C21.602 37.0683 22.4847 36.8066 23.4184 36.9288C23.8036 36.9812 24.1892 37.2516 24.3265 37.6178ZM32.1314 32.9976C33.1938 33.8867 34.1534 35.0987 33.8278 36.5632C33.2966 38.7252 30.9835 39.8759 29.1415 40.608C28.139 40.9482 27.1281 41.2971 26.0315 41.4017C25.963 41.3929 25.8515 41.4102 25.8343 41.3056L25.8599 41.1837C27.4192 39.3964 28.6013 37.3917 29.6384 35.3603C30.118 34.4448 30.5637 33.5036 30.9749 32.5793C31.0348 32.5096 31.0949 32.4747 31.1634 32.4486C31.5487 32.4832 31.823 32.7885 32.1314 32.9976ZM17.1809 30.6962L17.1466 30.8268C14.8935 33.4332 13.4113 36.4583 12.0063 39.4658C11.7322 39.7274 11.4665 39.3785 11.218 39.2651C9.96706 38.4285 8.83615 37.077 9.16178 35.4731C9.68433 33.3811 11.8005 32.2652 13.5656 31.5071C14.6107 31.106 15.699 30.7835 16.8469 30.6004C16.967 30.6001 17.121 30.5828 17.1809 30.6962ZM28.3618 31.1145C28.4902 31.1842 28.6445 31.2103 28.7217 31.341C28.7902 31.4892 28.6532 31.585 28.576 31.6811C26.8025 33.0931 24.7722 33.878 22.6987 34.5667C21.6446 34.8283 20.5822 35.2991 19.4087 35.0375C19.1343 34.9678 18.8862 34.7847 18.7319 34.5143C18.4405 33.6949 18.8346 32.8406 19.1772 32.1258C19.6313 31.2279 20.4368 30.1729 21.5505 30.1556C23.9493 30.1381 26.2111 30.5043 28.3618 31.1145ZM31.3261 31.1842C33.1425 32.1955 35.1988 33.9738 34.9846 36.3449C34.7361 38.5418 32.7228 40.076 30.9236 41.0003C25.6716 43.5546 18.2951 43.6328 12.8718 41.4014C11.0381 40.6256 8.98183 39.2918 8.21053 37.2865C7.61945 35.6389 8.33894 33.9216 9.54729 32.7797C12.0745 30.4433 15.296 29.6415 18.6118 29.1792C22.2104 28.7345 25.9969 29.1268 29.2183 30.2514C29.9381 30.5218 30.6492 30.8183 31.3261 31.1842Z" fill="#003984"/>
</g>
<defs>
<clipPath id="clip0_1_434">
<rect width="106" height="14" fill="white" transform="translate(8 29)"/>
</clipPath>
</defs>
</svg>
