<svg width="121" height="72" viewBox="0 0 121 72" fill="none" xmlns="http://www.w3.org/2000/svg">
<rect width="121" height="72" rx="12" fill="white"/>
<g clip-path="url(#clip0_1_445)">
<path d="M65.8085 41.3935C65.8085 41.5065 65.8444 41.572 65.9105 41.572C65.9663 41.572 66.0126 41.5424 66.0545 41.5125L84.7547 29.4758C85.0707 29.2568 85.4492 29.1441 85.8346 29.1544H89.9441C90.5741 29.1544 91 29.5709 91 30.1957V37.9782C91 38.9182 90.7901 39.4657 89.9501 39.9654L84.9647 42.9404C84.9149 42.9747 84.8561 43 84.7967 43C84.7374 43 84.6768 42.9524 84.6768 42.7798V33.7003C84.6768 33.5931 84.6468 33.5218 84.5747 33.5218C84.5221 33.5218 84.4722 33.5485 84.4307 33.5813L70.764 42.3873C70.452 42.5955 70.0859 42.7087 69.7141 42.7027H60.6549C60.0189 42.7027 59.599 42.2863 59.599 41.6555V30.4399C59.599 30.3566 59.563 30.2793 59.4909 30.2793C59.4385 30.2793 59.3887 30.3065 59.3469 30.3389L50.33 35.7054C50.24 35.765 50.2161 35.8066 50.2161 35.8483C50.2161 35.8839 50.2342 35.9196 50.2941 35.9852L56.7374 42.3694C56.8214 42.4527 56.8814 42.5182 56.8814 42.5896C56.8814 42.6491 56.7854 42.6967 56.6715 42.6967H50.8519C50.3959 42.6967 50.0419 42.6312 49.796 42.3873L45.8904 38.5199C45.8605 38.4844 45.8174 38.4603 45.7705 38.4603C45.7281 38.4603 45.6869 38.4745 45.6505 38.496L39.1232 42.3873C38.7273 42.6254 38.4573 42.6908 38.0673 42.6908H32.0619C31.4201 42.6967 31 42.2743 31 41.6495V34.0157C31 33.0697 31.2099 32.5282 32.0559 32.0285L37.0715 29.0416C37.1105 29.0153 37.1563 29.0009 37.2035 29C37.2814 29 37.3234 29.0773 37.3234 29.2499V39.4718C37.3234 39.579 37.3473 39.6265 37.4254 39.6265C37.4786 39.6265 37.5275 39.5968 37.5755 39.5669L54.5179 29.4579C54.8419 29.2377 55.2379 29.1307 55.6338 29.1485H64.7529C65.3829 29.1485 65.8088 29.5649 65.8088 30.1897L65.8028 41.3935H65.8085Z" fill="#131E29"/>
</g>
<defs>
<clipPath id="clip0_1_445">
<rect width="60" height="14" fill="white" transform="translate(31 29)"/>
</clipPath>
</defs>
</svg>
