<svg width="121" height="72" viewBox="0 0 121 72" fill="none" xmlns="http://www.w3.org/2000/svg">
<rect width="121" height="72" rx="12" fill="white"/>
<path fill-rule="evenodd" clip-rule="evenodd" d="M36.327 25.9991C36.327 21.029 46.7465 17 59.6003 17C72.4539 17 82.8737 21.029 82.8737 25.9991C82.8737 30.9692 72.4539 34.9982 59.6003 34.9982C46.7468 34.9982 36.327 30.9695 36.327 25.9991ZM64.7911 26.7871C64.788 26.7723 64.7803 26.7588 64.769 26.7483C64.7578 26.7378 64.7435 26.7309 64.7281 26.7284C64.0583 26.6338 63.3855 26.5596 62.7109 26.5058C62.6711 26.4991 62.6431 26.4635 62.6693 26.3793C64.8203 24.1913 65.6373 21.4073 64.5497 19.2292C64.5509 19.2192 64.5542 19.2096 64.5592 19.2009C64.5643 19.1922 64.5711 19.1845 64.5792 19.1783C64.5873 19.1722 64.5966 19.1676 64.6066 19.1649C64.6165 19.1622 64.6269 19.1614 64.6372 19.1626C72.0392 20.0304 77.4436 22.763 77.4436 25.9991C77.4436 29.9338 69.4551 33.1236 59.6006 33.1236C49.746 33.1236 41.7573 29.9341 41.7573 25.9991C41.7573 22.5883 47.7614 19.7369 55.7803 19.0383C55.8193 19.0396 55.8522 19.0685 55.8543 19.128L54.1132 28.3955C54.0807 28.5584 54.0858 28.7262 54.1282 28.8869C54.1706 29.0476 54.2492 29.1972 54.3584 29.3251C54.4676 29.453 54.6047 29.556 54.76 29.6267C54.9152 29.6974 55.0846 29.734 55.2562 29.734L55.3185 29.7371C56.8714 29.6589 58.5401 29.1904 60.1163 28.3107C60.563 28.0615 60.9928 27.7851 61.4034 27.4833C61.4152 27.474 61.4296 27.4682 61.4448 27.4668C61.46 27.4654 61.4753 27.4684 61.4887 27.4754C62.0137 27.8133 62.3158 28.2088 62.3158 28.632C62.3158 29.2068 61.7582 29.7312 60.8411 30.129C59.7755 30.5911 58.2244 30.8816 56.4974 30.8816C55.0338 30.8816 53.6967 30.6728 52.6592 30.3245C52.6491 30.3227 52.6388 30.3229 52.6289 30.3251C52.6189 30.3272 52.6095 30.3312 52.6011 30.3369C52.5928 30.3426 52.5857 30.3498 52.5802 30.3581C52.5748 30.3664 52.5711 30.3757 52.5693 30.3854L52.4215 31.1711C52.419 31.1898 52.4238 31.2087 52.4351 31.2241C52.4463 31.2396 52.4631 31.2503 52.4822 31.2543C54.5924 31.729 57.0192 31.999 59.6022 31.999C62.8153 31.999 65.4208 30.9915 65.4208 29.7494C65.4208 29.266 65.027 28.8185 64.3571 28.4521C63.7701 28.174 63.4004 27.8133 63.4911 27.5714C63.5851 27.3207 64.1467 27.2804 64.8137 27.4541C64.8516 27.459 64.8881 27.437 64.9016 27.3714L64.7911 26.7871ZM59.6003 21.1148C59.6003 21.1635 59.5987 21.2119 59.5956 21.2593C59.6804 22.9108 58.6241 25.1202 56.6941 26.9859C56.311 27.3568 55.9029 27.703 55.4727 28.022C55.4557 28.0325 55.4351 28.0361 55.4154 28.032C55.3752 28.0238 55.3489 27.9867 55.3561 27.9411L57.2477 17.8758C57.2466 17.8572 57.2385 17.8396 57.2248 17.8265C57.2112 17.8133 57.193 17.8055 57.1737 17.8046C46.7486 18.2785 38.6542 21.7665 38.6542 25.9991C38.6542 30.555 48.032 34.2482 59.6003 34.2482C71.1689 34.2482 80.5467 30.555 80.5467 25.9991C80.5467 21.4432 71.1692 17.7501 59.6003 17.7501C59.2338 17.7501 58.8692 17.7539 58.5035 17.7613C58.4862 17.7614 58.4693 17.7671 58.4557 17.7774C58.4421 17.7877 58.4324 17.8022 58.4282 17.8184L58.207 18.993C58.2017 19.0245 58.217 19.0544 58.2441 19.0701C58.6489 19.2497 58.9919 19.5378 59.2323 19.9002C59.4727 20.2627 59.6004 20.6842 59.6003 21.1148ZM37.9093 39.4978V50.5198H44.2401V53H34V39.4978H37.9093ZM53.2051 47.5288L51.3787 42.6115L49.5528 47.5288H53.2051ZM53.8623 39.5037L59.1702 52.9964H55.1041L53.9352 49.8102H48.8225L47.6539 52.9964H44.3909L49.6498 39.5037H53.8623ZM63.5006 50.5121H65.2533C66.3003 50.5121 67.6884 50.3356 68.5891 49.1747C69.4893 48.0145 69.5142 46.6571 69.5142 46.1066C69.5142 45.398 69.4167 43.9627 68.3702 42.9593C67.3958 42.0548 66.1297 41.9759 65.1804 41.9759H63.5006V50.5121ZM59.6046 39.4978H65.3262C66.9822 39.4978 69.4896 39.655 71.4135 41.2484C72.9717 42.5269 73.702 44.6119 73.702 46.2247C73.702 47.4046 73.313 49.8238 71.1702 51.4566C69.4655 52.7546 67.5424 52.9908 65.7404 52.9908H59.6048L59.6046 39.4978ZM81.0348 47.5227L79.209 42.6056L77.3829 47.5227H81.0348ZM81.6923 39.4978L87 52.9905H82.9338L81.7654 49.8041H76.6525L75.4834 52.9905H72.2207L77.4801 39.4975L81.6923 39.4978Z" fill="#005AA1"/>
</svg>
