<svg width="121" height="72" viewBox="0 0 121 72" fill="none" xmlns="http://www.w3.org/2000/svg">
<rect width="121" height="72" rx="12" fill="white"/>
<g clip-path="url(#clip0_1_455)">
<path d="M66.3791 35.8404L63.1098 42.1803H63.0417L62.8764 35.8404H60.1418L60.035 36.0686L60.2696 36.2098C60.4959 36.3673 60.5592 36.5271 60.5885 36.9671L60.9591 44.6606H64.0057L68.9226 35.8404H66.3791ZM56.6472 40.4063C56.3412 41.2736 56.1008 41.8317 55.7454 42.1999C55.4663 42.4894 55.0981 42.6967 54.2503 42.6967C53.5854 42.6967 53.2148 42.4281 53.2148 41.9197C53.2101 41.592 53.3004 41.0941 53.6558 40.1249C53.963 39.2587 54.2034 38.7006 54.5599 38.3324C54.8355 38.0429 55.2048 37.8344 56.0538 37.8344C56.7187 37.8344 57.0881 38.1031 57.087 38.6091C57.094 38.9415 57.0037 39.4394 56.6472 40.4063ZM56.5053 35.7316H56.2215C54.5388 35.7316 53.5772 36.1797 52.788 37.0077C51.8065 38.0325 50.8848 40.8034 50.9023 42.2694C50.9211 43.7643 51.9003 44.8007 53.9583 44.8007H54.2597C55.9471 44.8007 56.9087 44.3526 57.6979 43.5246C58.6783 42.4975 59.5812 39.7277 59.5636 38.2629C59.5437 36.7691 58.5645 35.7316 56.5053 35.7316ZM48.2427 39.0422C48.0891 39.4185 47.9203 39.5088 47.6986 39.598C47.5497 39.6559 47.2343 39.6768 46.9305 39.6768H45.7544L46.3946 37.8541H47.8159C48.2416 37.8541 48.4151 38.073 48.421 38.3219C48.4233 38.4806 48.3495 38.7712 48.2427 39.0422ZM48.0317 35.8404H44.1748L44.0974 36.0686L44.2533 36.2202C44.4175 36.38 44.4117 36.57 44.2674 36.9776L41.5726 44.6606H44.0352L45.0883 41.6105L45.922 41.6117L46.8484 44.6606H49.3228L48.1595 41.5399C48.8349 41.4322 49.1738 41.2412 49.5127 40.9436C49.9771 40.5244 50.2984 39.9361 50.5646 39.07C50.9539 37.8136 50.7182 37.0957 50.4685 36.7274C50.1249 36.2203 49.4013 35.8404 48.0317 35.8404ZM73.8678 41.123L74.5503 39.2784H71.411L71.8977 37.8703H75.2984L76.0454 35.8347H69.6251L69.536 36.094L69.6896 36.2434C69.8549 36.4021 69.8479 36.5908 69.7048 37.0007L67.0311 44.6571H73.0305L73.7552 42.6075H70.2536L70.7696 41.123H73.8678ZM81.0714 39.0422C80.9178 39.4185 80.7466 39.5088 80.5285 39.598C80.376 39.6559 80.0653 39.6768 79.7616 39.6768H78.5866L79.221 37.8541H80.6446C81.0679 37.8541 81.2438 38.073 81.2473 38.3219C81.252 38.4806 81.1758 38.7712 81.0714 39.0422ZM80.8568 35.8404H77.0011L76.9261 36.0686L77.0809 36.2202C77.2462 36.38 77.238 36.57 77.0961 36.9776L74.399 44.6606H76.8651L77.917 41.6117H78.7496L79.6771 44.6606H82.1491L80.9882 41.5399C81.6625 41.4322 82.0014 41.2412 82.3391 40.9436C82.8046 40.5244 83.1271 39.9361 83.3933 39.07C83.7826 37.8136 83.5469 37.0957 83.2983 36.7274C82.9547 36.2203 82.23 35.8404 80.8568 35.8404ZM85.9134 47.6771C79.1483 51.1289 70.1246 53.0303 60.5006 53.0303C50.8777 53.0303 41.8552 51.1289 35.089 47.6771C28.5819 44.3561 24.9959 40.0311 24.9959 35.5012C24.9959 30.9678 28.5819 26.6428 35.089 23.3241C41.8552 19.8734 50.8777 17.9697 60.5006 17.9697C70.1246 17.9697 79.1483 19.8734 85.9134 23.3241C92.4216 26.6428 96.0041 30.9678 96.0041 35.5012C96.0041 40.0311 92.4216 44.3561 85.9134 47.6771ZM86.8292 21.5732C79.7839 17.979 70.4342 16 60.5006 16C50.567 16 41.2161 17.979 34.1731 21.5732C30.0008 23.7027 23 28.3438 23 35.5012C23 42.655 30.0008 47.2973 34.1731 49.4268C41.215 53.0211 50.5646 55 60.5006 55C70.4354 55 79.785 53.0211 86.8292 49.4268C91.0015 47.2973 98 42.6562 98 35.5012C98 28.3427 91.0015 23.7027 86.8292 21.5732ZM84.9659 45.8672C77.6871 49.5796 68.633 50.9912 60.5006 50.9912C52.367 50.9912 43.3152 49.5796 36.0341 45.8672C32.1819 43.8998 27.0609 40.2754 27.0609 35.5012C27.0609 30.7223 32.1808 27.1013 36.0341 25.1351C43.3152 21.4227 52.367 20.0112 60.5006 20.0112C68.633 20.0112 77.6871 21.4204 84.9659 25.1351C88.8216 27.1013 93.9402 30.7223 93.9402 35.5012C93.9402 40.2777 88.8204 43.8998 84.9659 45.8672ZM85.3434 24.4114C77.9533 20.6376 68.7514 19.1936 60.5006 19.1936C52.2486 19.1936 43.049 20.6388 35.6554 24.4114C31.5042 26.5281 26.2354 30.3494 26.2354 35.5012C26.2354 40.6483 31.5042 44.4719 35.6554 46.5909C43.049 50.3612 52.2509 51.8064 60.5006 51.8064C68.7514 51.8064 77.9533 50.3635 85.3434 46.5909C89.497 44.4719 94.7658 40.6483 94.7658 35.5012C94.7658 30.3494 89.4982 26.5281 85.3434 24.4114ZM41.8599 36.9776L35.1206 39.1661L34.2974 41.3963H40.2405L41.0144 39.2946H36.8949L41.5715 37.7314L41.8599 36.9776ZM68.6764 27.2056H69.6532C70.3181 27.2056 70.6852 27.4256 70.6934 27.9339C70.6992 28.2616 70.6101 28.7109 70.2654 29.6778C69.9605 30.5428 69.7165 31.0442 69.3706 31.4113C69.0927 31.7007 68.7233 31.8293 67.8755 31.8293H67.0593L68.6764 27.2056ZM66.5351 26.2502L63.8685 33.9333H67.8028C69.489 33.9333 70.4518 33.5639 71.2328 32.7371C72.2131 31.7135 73.1091 29.0502 73.0797 27.5842C73.0504 26.0881 72.0724 25.1143 70.0144 25.1143H66.4401L66.3651 25.3412L66.5199 25.4906C66.684 25.6516 66.6782 25.8415 66.5351 26.2502ZM81.381 28.2767H75.438L74.664 30.376H78.7824L74.1046 31.9439L73.8162 32.6954L80.5555 30.5069L81.381 28.2767ZM54.819 33.9287H57.0588L59.0125 28.2234L60.1547 33.9287H62.3968L65.4527 25.1108L63.1098 25.1143L61.4774 29.9071L60.5452 25.1143H57.3872L57.3098 25.3412L57.4646 25.4906C57.6311 25.6516 57.6229 25.8415 57.481 26.2502L54.819 33.9287ZM38.7606 33.9333L44.8549 33.931L45.5914 31.8293H42.0487L44.3894 25.1143H41.3334L41.2572 25.3412L41.4096 25.4906C41.5762 25.6516 41.5691 25.8415 41.4261 26.2502L38.7606 33.9333ZM51.7267 27.5518H51.8065L51.8487 30.2151H50.2046L51.7267 27.5518ZM45.487 33.9287H48.0797L49.2032 31.9798H51.8874L51.9144 33.9287H54.2667L53.7589 25.1143H50.2374L50.1589 25.3412L50.2726 25.4536C50.4579 25.633 50.3817 25.8913 49.6957 26.9659L45.487 33.9287Z" fill="black"/>
</g>
<defs>
<clipPath id="clip0_1_455">
<rect width="75" height="39" fill="white" transform="translate(23 16)"/>
</clipPath>
</defs>
</svg>
