<svg width="121" height="72" viewBox="0 0 121 72" fill="none" xmlns="http://www.w3.org/2000/svg">
<rect width="121" height="72" rx="12" fill="white"/>
<g clip-path="url(#clip0_1_478)">
<path d="M87 36.5C87 50.5942 75.3706 62 61 62C46.6294 62 35 50.5942 35 36.5C35 22.4058 46.6294 11 61 11C75.3706 11 87 22.4058 87 36.5ZM61 12.5479C47.4601 12.5479 36.5783 23.2204 36.5783 36.5C36.5783 49.7796 47.5431 60.4521 61 60.4521C74.5399 60.4521 85.4217 49.6981 85.4217 36.5C85.4217 23.2204 74.5399 12.5479 61 12.5479Z" fill="url(#paint0_linear_1_478)"/>
<path d="M60.5 12C46.9167 12 36 22.6939 36 36C36 49.3061 47 60 60.5 60C74.0833 60 85 49.2245 85 36C85 22.6939 74.0833 12 60.5 12ZM60.5 58.449C47.8333 58.449 37.5833 48.4082 37.5833 36C37.5833 23.5918 47.8333 13.551 60.5 13.551C73.1667 13.551 83.4167 23.5918 83.4167 36C83.4167 48.4082 73.1667 58.449 60.5 58.449Z" fill="url(#paint1_linear_1_478)"/>
<path opacity="0.4" d="M60.5 61.4312C74.8266 61.4312 86.4203 50.0562 86.4203 36C86.4203 21.9438 74.8266 10.5687 60.5 10.5687C46.1734 10.5687 34.5797 21.9438 34.5797 36C34.5797 50.0562 46.1734 61.4312 60.5 61.4312ZM60.5 10C75.075 10 87 21.7 87 36C87 50.3 75.075 62 60.5 62C45.925 62 34 50.3 34 36C34 21.7 45.925 10 60.5 10Z" fill="url(#paint2_linear_1_478)"/>
<path d="M36 36.0805C36 22.8725 46.9346 12 60.5 12C74.0654 12 85 22.7919 85 36.0805C85 49.2886 74.0654 60 60.5 60C46.9346 60 36 49.2886 36 36.0805ZM43.646 19.4899C39.2886 23.7584 36.5755 29.6376 36.5755 36.0805C36.5755 42.5235 39.2886 48.4027 43.5638 52.5906C47.9211 56.7785 53.9228 59.4362 60.5 59.4362C67.0772 59.4362 73.0789 56.8591 77.354 52.5906C81.7114 48.4027 84.3423 42.5235 84.3423 36.0805C84.3423 29.6376 81.6292 23.7584 77.354 19.4899C73.0789 15.2215 67.0772 12.5638 60.5 12.5638C53.9228 12.5638 47.9211 15.2215 43.646 19.4899Z" fill="white"/>
<path opacity="0.4" d="M61 59C54.8333 59 49.0833 56.6359 44.75 52.3967C40.4167 48.1576 38 42.5326 38 36.5C38 30.4674 40.4167 24.8424 44.75 20.6033C49.0833 16.3641 54.8333 14 61 14C67.1667 14 72.9167 16.3641 77.25 20.6033C81.5833 24.8424 84 30.4674 84 36.5C84 42.5326 81.5833 48.1576 77.25 52.3967C72.9167 56.6359 67.1667 59 61 59ZM61 58.3478C66.9167 58.3478 72.5833 56.0652 76.75 51.9891C81 47.8315 83.25 42.3696 83.25 36.5815C83.25 30.7935 80.9167 25.25 76.75 21.1739C72.5 17.0163 66.9167 14.8152 61 14.8152C55.0833 14.8152 49.4167 17.0978 45.25 21.1739C41 25.1685 38.6667 30.712 38.6667 36.5C38.6667 42.288 41 47.8315 45.1667 51.9076C49.4167 56.0652 55.0833 58.3478 61 58.3478Z" fill="url(#paint3_linear_1_478)"/>
<path d="M80.7647 46.9344C80.3487 46.6066 64.2924 34.0656 64.2924 34.0656L60.5487 13C60.2992 13.082 59.9664 13.3279 59.8 13.6557L57.1378 34.1475L40.5824 46.6885C40.5824 46.6885 40.2496 47.0984 40.0832 47.3443C40 47.5082 40 47.7541 40 48L60.4655 39.7213L80.9311 48C81.0975 47.5902 80.9311 47.1803 80.7647 46.9344Z" fill="white"/>
<path d="M61.1626 37.1106L61 40.7096L79.374 47.8294C80.0244 48.1424 80.5122 47.9859 81 47.6729L61.4065 37.0324C61.3252 36.9542 61.1626 37.0324 61.1626 37.1106Z" fill="#565F64"/>
<path d="M61 37.1106C61 37.1106 62.0656 38.9101 63.2951 40.162C65.0164 41.9615 67.3115 43.2133 67.3115 43.2133L79.3607 47.8294C80.0164 48.1424 80.5082 47.9859 81 47.6729L61.2459 37.0324C61.1639 36.9542 61 37.0324 61 37.1106Z" fill="url(#paint4_linear_1_478)"/>
<path d="M81 46.9374C81 46.8539 80.9153 46.7705 80.8305 46.6035L63.3729 34L61 35.5024C61 35.5024 61.1695 35.5859 61.2542 35.5024C61.5085 35.4189 62.0169 35.3355 62.5254 35.5024C62.9492 35.6693 81 47.0209 81 46.9374C81 47.0209 81 47.0209 81 46.9374Z" fill="#A4AAAE" fill-opacity="0.6"/>
<path d="M80.5874 46.5063L64.7427 34L64 34.4937L81 47C80.9175 46.8354 80.7524 46.6709 80.5874 46.5063Z" fill="#333E46"/>
<path d="M60.5106 35.8116L60.4255 35.8942C60.4255 35.8942 60.4255 36.0595 60.5957 35.9769C60.6809 35.8942 63.1489 34.6544 64 34.1585L61.0213 14.3224C60.9362 13.5786 60.5957 13.248 60 13L60.3404 35.9769L60.5106 35.8116Z" fill="#565F64"/>
<path d="M59.5816 13.8811V14.9223L57.7406 32.6238C57.7406 32.8641 57.8243 33.1044 58.0753 33.2646L59.1632 34.0655L59.9163 14.5218L60 13C59.749 13.1602 59.6653 13.4806 59.5816 13.8811ZM58.5774 34.3859L57.5732 33.585L40.5858 45.3592C40.5858 45.3592 40.0837 45.6796 40 46L40.5858 45.6796L58.41 34.9466C58.7448 34.7864 58.8285 34.6262 58.5774 34.3859Z" fill="#A4AAAE" fill-opacity="0.6"/>
<path d="M59.8374 37.1102C59.8374 37.0323 59.7561 36.9544 59.6748 37.0323L40 47.7082C40.4878 48.0199 40.9756 48.0978 41.626 47.8641L60 40.7728L59.8374 37.1102Z" fill="#565F64"/>
<path d="M61 35.9188C61 35.9188 61 36 61.0714 36H61.1429C61.2143 35.9188 63.2857 34.7011 64 34.214L63.7143 31.8598L61.5 14.7306C61.5 14.4059 61.4286 14.1624 61.2857 14C61.2857 14 62.3571 30.3985 62.3571 32.1845C62.3571 34.5387 61 35.9188 61 35.9188Z" fill="url(#paint5_linear_1_478)"/>
<path d="M59.8374 37.1102C59.8374 37.0323 59.7561 36.9544 59.6748 37.0323L40 47.7082C40.4878 48.0199 40.9756 48.0978 41.626 47.8641L60 40.7728L59.8374 37.1102Z" fill="url(#paint6_linear_1_478)" fill-opacity="0.8"/>
<path opacity="0.8" d="M41.9283 47.8323L61 40.5305L60.8312 37C60.4937 37.9629 59.903 39.006 58.2996 39.8084C57.1181 40.4503 45.8101 45.7461 41.7595 47.5916C41.5063 47.752 41.1688 47.8323 41 47.9125C41.3376 48.073 41.5907 47.9928 41.9283 47.8323Z" fill="url(#paint7_linear_1_478)"/>
<path d="M60.5106 35.8116L60.4255 35.8942C60.4255 35.8942 60.4255 36.0595 60.5957 35.9769C60.6809 35.8942 63.1489 34.6544 64 34.1585L61.0213 14.3224C60.9362 13.5786 60.5957 13.248 60 13L60.3404 35.9769L60.5106 35.8116Z" fill="url(#paint8_linear_1_478)"/>
<path d="M60.5106 35.8116L60.4255 35.8942C60.4255 35.8942 60.4255 36.0595 60.5957 35.9769C60.6809 35.8942 63.1489 34.6544 64 34.1585L61.0213 14.3224C60.9362 13.5786 60.5957 13.248 60 13L60.3404 35.9769L60.5106 35.8116Z" fill="url(#paint9_linear_1_478)"/>
<path d="M38.5516 45.9802C37.9865 44.67 34.7578 38.2829 38.3094 26H36.9372C36.2108 28.4566 35.6457 29.9305 35.3229 32.1414C35.3229 32.1414 35.1614 32.9603 35.0807 33.861C35 34.7618 35 35.2531 35 35.8263C35 40.7395 36.2108 43.6055 36.2108 43.6055C37.5022 47.6998 39.7623 51.3846 42.8296 54.1687C45.4933 56.5434 49.6099 58.3449 53 59C52.435 58.9181 42.7489 54.7419 38.5516 45.9802Z" fill="url(#paint10_linear_1_478)"/>
<path d="M61 36.0349H60C60.1111 36.0349 60.2222 36.0349 60.2222 36.1193L60.4444 40H60.5556L60.7778 36.1193C60.7778 36.0349 60.8889 35.9506 61 36.0349Z" fill="url(#paint11_linear_1_478)"/>
<path d="M69.3067 12C78.0288 15.2787 86.2524 24.2951 86.2524 35.6885C86.2524 49.459 75.1214 60.6885 61 60.6885V62C75.1214 62 87 50.5246 87 36.3443C87 25.0328 79.6901 15.5246 69.3067 12Z" fill="url(#paint12_linear_1_478)"/>
<path d="M82.8403 26.7971C77.0049 13.8068 63.8336 13.0807 63.0834 13H63C73.0869 14.7751 79.5058 21.1491 81.7566 27.846V27.9267C82.757 30.5086 83.2571 33.2518 83.3405 36.2372C83.4239 39.0611 82.757 42.2078 81.5065 45.1125C81.4232 45.5159 81.3398 46 81.2564 46H82.5902C86.5916 38.7384 84.841 31.3961 82.8403 26.7971Z" fill="url(#paint13_linear_1_478)"/>
<path d="M36 36.0805C36 22.8725 46.9346 12 60.5 12C74.0654 12 85 22.7919 85 36.0805C85 49.2886 74.0654 60 60.5 60C46.9346 60 36 49.2886 36 36.0805ZM43.646 19.4899C39.2886 23.7584 36.5755 29.6376 36.5755 36.0805C36.5755 42.5235 39.2886 48.4027 43.5638 52.5906C47.9211 56.7785 53.9228 59.4362 60.5 59.4362C67.0772 59.4362 73.0789 56.8591 77.354 52.5906C81.7114 48.4027 84.3423 42.5235 84.3423 36.0805C84.3423 29.6376 81.6292 23.7584 77.354 19.4899C73.0789 15.2215 67.0772 12.5638 60.5 12.5638C53.9228 12.5638 47.9211 15.2215 43.646 19.4899Z" fill="#FBFBFB"/>
<path d="M41 47L58.2152 34.9926C59.1435 35.4827 60.6624 36.1361 60.8312 36.1361C61 36.2178 61 36.0545 61 36.0545L58.8903 34.3391C58.6371 34.1757 58.5527 33.9307 58.5527 33.6856L60.5781 14C60.4937 14.0817 60.4937 14.245 60.4093 14.3267C60.3249 14.4901 60.3249 14.5718 60.3249 14.7351L57.3713 34.4208L41.1688 46.755C41.0844 46.8366 41 46.9183 41 47Z" fill="#333F47"/>
</g>
<defs>
<linearGradient id="paint0_linear_1_478" x1="41.0622" y1="20.123" x2="80.2972" y2="53.6271" gradientUnits="userSpaceOnUse">
<stop stop-color="white"/>
<stop offset="0.1" stop-color="#CDD0D0"/>
<stop offset="0.2" stop-color="#A5ACAF"/>
<stop offset="0.3" stop-color="#98A0A4"/>
<stop offset="0.4" stop-color="#828A8F"/>
<stop offset="0.5" stop-color="#667075"/>
<stop offset="0.6" stop-color="#535C63"/>
<stop offset="0.7" stop-color="#475158"/>
<stop offset="0.8" stop-color="#434D54"/>
<stop offset="1" stop-color="#475157"/>
</linearGradient>
<linearGradient id="paint1_linear_1_478" x1="41.7258" y1="20.538" x2="78.5839" y2="52.1437" gradientUnits="userSpaceOnUse">
<stop stop-color="#0B1F2A"/>
<stop offset="0.2" stop-color="#333F47"/>
<stop offset="0.5" stop-color="#81898D"/>
<stop offset="0.7" stop-color="#B3B8B8"/>
<stop offset="0.8" stop-color="#DEE0DD"/>
<stop offset="1" stop-color="#FBFBFB"/>
</linearGradient>
<linearGradient id="paint2_linear_1_478" x1="69.5572" y1="60.4262" x2="52.0226" y2="11.2999" gradientUnits="userSpaceOnUse">
<stop stop-color="#E1E3E1"/>
<stop offset="0.1" stop-color="#C1C5C4"/>
<stop offset="0.3" stop-color="#9BA1A2"/>
<stop offset="0.5" stop-color="#7D8487"/>
<stop offset="0.7" stop-color="#687074" stop-opacity="0"/>
<stop offset="0.8" stop-color="#5B6469" stop-opacity="0"/>
<stop offset="1" stop-color="#576065" stop-opacity="0"/>
</linearGradient>
<linearGradient id="paint3_linear_1_478" x1="49.5008" y1="17.0171" x2="71.7493" y2="56.4064" gradientUnits="userSpaceOnUse">
<stop stop-color="#E1E3E1"/>
<stop offset="0.1" stop-color="#C1C5C4"/>
<stop offset="0.3" stop-color="#9BA1A2"/>
<stop offset="0.5" stop-color="#7D8487"/>
<stop offset="0.7" stop-color="#687074" stop-opacity="0"/>
<stop offset="0.8" stop-color="#5B6469" stop-opacity="0"/>
<stop offset="1" stop-color="#576065" stop-opacity="0"/>
</linearGradient>
<linearGradient id="paint4_linear_1_478" x1="71.0721" y1="42.269" x2="69.7714" y2="44.5134" gradientUnits="userSpaceOnUse">
<stop stop-color="#27343C"/>
<stop offset="1" stop-color="#00111E" stop-opacity="0"/>
</linearGradient>
<linearGradient id="paint5_linear_1_478" x1="66.1286" y1="34.0614" x2="63.7397" y2="30.6833" gradientUnits="userSpaceOnUse">
<stop offset="0.1" stop-color="#02131F"/>
<stop offset="0.9" stop-color="#02131F" stop-opacity="0"/>
</linearGradient>
<linearGradient id="paint6_linear_1_478" x1="60.0667" y1="39.8657" x2="56.6747" y2="40.8768" gradientUnits="userSpaceOnUse">
<stop offset="0.2" stop-color="#02131F"/>
<stop offset="0.9" stop-color="#02131F" stop-opacity="0"/>
</linearGradient>
<linearGradient id="paint7_linear_1_478" x1="51.6253" y1="44.1445" x2="51.1614" y2="42.9248" gradientUnits="userSpaceOnUse">
<stop stop-color="#02131F"/>
<stop offset="0.1" stop-color="#02131F"/>
<stop offset="1" stop-color="#02131F" stop-opacity="0"/>
</linearGradient>
<linearGradient id="paint8_linear_1_478" x1="63.1506" y1="24.1694" x2="60.2594" y2="24.5196" gradientUnits="userSpaceOnUse">
<stop offset="0.3" stop-color="#02131F"/>
<stop offset="0.8" stop-color="#02131F" stop-opacity="0"/>
</linearGradient>
<linearGradient id="paint9_linear_1_478" x1="63.2409" y1="24.1223" x2="61.2845" y2="24.3849" gradientUnits="userSpaceOnUse">
<stop offset="0.4" stop-color="#27343C"/>
<stop offset="1" stop-color="#3B474E" stop-opacity="0"/>
</linearGradient>
<linearGradient id="paint10_linear_1_478" x1="34.1444" y1="36.5068" x2="56.8251" y2="49.4082" gradientUnits="userSpaceOnUse">
<stop stop-color="#25323B" stop-opacity="0"/>
<stop offset="0.1" stop-color="#27343C"/>
</linearGradient>
<linearGradient id="paint11_linear_1_478" x1="60.5" y1="40.0844" x2="60.5" y2="36.0349" gradientUnits="userSpaceOnUse">
<stop offset="0.3" stop-color="#A5ABAF"/>
<stop offset="1" stop-color="#A5ABAF" stop-opacity="0"/>
</linearGradient>
<linearGradient id="paint12_linear_1_478" x1="74" y1="12" x2="74" y2="62" gradientUnits="userSpaceOnUse">
<stop stop-color="#6B7378"/>
<stop offset="0.2" stop-color="#333F47"/>
<stop offset="0.5" stop-color="#27343C"/>
<stop offset="0.8" stop-color="#333F47"/>
<stop offset="1" stop-color="#434D54"/>
</linearGradient>
<linearGradient id="paint13_linear_1_478" x1="81.5807" y1="17.0286" x2="70.8224" y2="33.3312" gradientUnits="userSpaceOnUse">
<stop offset="0.7" stop-color="#49545B"/>
<stop offset="0.8" stop-color="white" stop-opacity="0"/>
</linearGradient>
<clipPath id="clip0_1_478">
<rect width="53" height="52" fill="white" transform="translate(34 10)"/>
</clipPath>
</defs>
</svg>
