<svg width="121" height="72" viewBox="0 0 121 72" fill="none" xmlns="http://www.w3.org/2000/svg">
<rect width="121" height="72" rx="12" fill="white"/>
<g clip-path="url(#clip0_1_507)">
<path fill-rule="evenodd" clip-rule="evenodd" d="M32.5 8H88.5V64H32.5V8Z" fill="white"/>
<path fill-rule="evenodd" clip-rule="evenodd" d="M60.3818 37.7246H44.237L36.2344 51.8669H52.4259L60.3818 37.7246ZM68.5848 23.2165L60.5126 8.93359L52.417 23.2165L60.5126 37.5229L68.5848 23.2165ZM68.5765 51.8669H84.7677L76.7651 37.7246H60.6202L68.5765 51.8669Z" fill="#CC2229"/>
<path fill-rule="evenodd" clip-rule="evenodd" d="M67.2195 62.8714H68.4269V56.6727H67.2195V62.8714ZM80.7606 62.8714H81.9682V56.6727H80.7606V62.8714ZM44.5263 62.8714H45.7337V56.6727H44.5263V62.8714ZM50.3487 56.6727H46.6144V57.7239H47.8592V62.8714H49.104V57.7239H50.3487V56.6727ZM78.3429 59.029H75.6243V56.6727H74.4169V62.8714H75.6243V60.0802H78.3429V62.8714H79.5497V56.6727H78.3429V59.029ZM40.629 59.4457L39.4973 56.6727H38.1016V62.8714H39.3087V59.029L40.629 62.1101L41.9115 58.9928V62.8714H43.1183V56.6727H41.7605L40.629 59.4457ZM60.5779 56.6733H59.3817V61.0957C59.3817 61.5771 58.8208 61.967 58.3199 61.967C57.8193 61.967 57.2583 61.5771 57.2583 61.0957V56.6733H56.04L56.0578 61.0416C56.0578 62.1599 57.1559 63.0665 58.3196 63.0665C59.4835 63.0665 60.5816 62.1599 60.5816 61.0416L60.5779 56.6733ZM65.2335 59.5184C65.4031 59.4095 66.0443 59.047 66.0443 58.268C66.0443 57.1801 65.1391 56.691 64.5353 56.673H61.739V62.8717H64.2144C65.1955 62.8717 66.2513 62.4185 66.2513 61.2223C66.2516 60.1891 65.743 59.7901 65.2335 59.5184ZM64.2716 61.8203H62.9469V57.7239H64.215C64.5549 57.7239 64.8188 57.9958 64.8188 58.3222C64.8188 58.6485 64.6868 59.029 64.2343 59.029H63.7069V60.0805H64.2719C64.6118 60.0805 65.0828 60.3886 65.0644 61.0228C65.0477 61.5663 64.5922 61.8203 64.2716 61.8203ZM50.8321 60.8597C50.8226 60.923 50.8321 60.9957 50.8364 61.1134C50.8364 62.1823 51.7378 62.9944 52.85 62.9944C53.9622 62.9944 54.8636 62.2732 54.8636 61.2041C54.8636 60.6417 54.6345 60.2073 54.2362 59.8536C53.911 59.5651 52.9846 59.1324 52.6237 58.9202C52.2841 58.7207 52.124 58.567 52.1159 58.2769C52.1159 57.8521 52.4081 57.5531 52.85 57.5531C53.0622 57.5531 53.2658 57.6342 53.4159 57.7784C53.5659 57.9226 53.6502 58.1182 53.6502 58.3222C53.6583 58.4311 53.6612 58.5397 53.6612 58.6121H54.7305V58.3222C54.7305 57.3243 54.0761 56.5332 52.85 56.5332C51.8117 56.5332 50.9695 57.2166 50.9695 58.3222C50.9732 58.8116 51.209 59.2827 51.7939 59.6544C52.4222 60.0534 53.2083 60.3518 53.4722 60.6058C53.6315 60.7589 53.7302 60.9703 53.7302 61.2038C53.7302 61.6708 53.336 62.0043 52.8497 62.0043C52.3635 62.0043 51.9727 61.5934 51.9129 61.2038C51.9003 61.1043 51.8689 60.9321 51.8784 60.8595H50.8321V60.8597ZM71.2197 58.9202C70.8799 58.7207 70.72 58.567 70.7114 58.2769C70.7114 57.8521 71.0041 57.5531 71.446 57.5531C71.6582 57.5533 71.8615 57.6344 72.0115 57.7786C72.1614 57.9228 72.2457 58.1183 72.2457 58.3222C72.254 58.4311 72.2569 58.5397 72.2569 58.6121H73.3262V58.3222C73.3262 57.3243 72.6715 56.5332 71.446 56.5332C70.4071 56.5332 69.5652 57.2166 69.5652 58.3222C69.5693 58.8116 69.805 59.2827 70.3896 59.6544C71.0182 60.0534 71.8043 60.3518 72.0683 60.6058C72.2273 60.7589 72.3259 60.9703 72.3259 61.2038C72.3259 61.6708 71.9317 62.0043 71.4457 62.0043C70.9595 62.0043 70.5685 61.5934 70.5084 61.2038C70.496 61.1043 70.4646 60.9321 70.4741 60.8595H69.4272C69.4177 60.9227 69.4272 60.9954 69.4318 61.1131C69.4318 62.182 70.3332 62.9941 71.4457 62.9941C72.5577 62.9941 73.4591 62.2729 73.4591 61.2038C73.4591 60.6414 73.2299 60.207 72.8317 59.8533C72.5068 59.5651 71.5803 59.1324 71.2197 58.9202Z" fill="black"/>
</g>
<defs>
<clipPath id="clip0_1_507">
<rect width="56" height="56" fill="white" transform="translate(32.5 8)"/>
</clipPath>
</defs>
</svg>
