<svg width="121" height="72" viewBox="0 0 121 72" fill="none" xmlns="http://www.w3.org/2000/svg">
<rect width="121" height="72" rx="12" fill="white"/>
<g clip-path="url(#clip0_1_515)">
<path d="M88.9013 29.8837C88.3377 29.7238 87.71 29.6482 86.3878 29.4823C80.9155 29.2542 67.3918 28.7197 60.5003 28.7197C53.6091 28.7197 40.0851 29.2538 34.6134 29.4823C33.2906 29.6482 32.6623 29.7238 32.099 29.8837C30.3785 30.296 30 30.9238 30 32.1761V40.7595C30 42.0122 31.3203 42.8563 32.2305 43.0264C33.1412 43.1979 33.7173 43.2664 34.6753 43.3591C39.5697 43.6672 50.9248 44.3095 60.5 44.3197C70.0755 44.3104 81.43 43.6675 86.3247 43.3591C87.2824 43.2664 87.8588 43.1976 88.7698 43.0264C89.6797 42.8559 91 42.0122 91 40.7595V32.1761C91 30.9238 90.6218 30.296 88.9013 29.8837Z" fill="url(#paint0_linear_1_515)"/>
<path d="M39.015 29.7537C41.701 20.56 50.5268 13.8143 61.0035 13.8143C71.4501 13.8143 80.258 20.5229 82.9702 29.6798C82.9787 29.7121 82.9845 29.7289 82.9939 29.76C84.5512 29.5879 85.9462 29.322 86.932 29.0631C86.9141 29.0041 86.9095 28.9921 86.894 28.934C83.8115 18.0264 73.388 10 61.0035 10C48.5774 10 38.1265 18.0785 35.082 29.04C36.4515 29.4091 37.4547 29.5639 39.015 29.7537Z" fill="url(#paint1_radial_1_515)"/>
<path d="M82.9619 42.2402C82.9348 42.3232 82.9046 42.4147 82.8905 42.4599C80.0273 51.531 71.313 58.1286 61.0055 58.1286C50.6166 58.1286 41.8473 51.4292 39.0537 42.249C37.3462 42.5502 36.7694 42.6647 35.082 42.8884C38.2085 53.9058 48.6291 62.0002 61.0055 62.0002C73.3871 62.0002 83.8114 53.8973 86.932 42.8708C85.4454 42.6878 84.5697 42.5496 82.9619 42.2402Z" fill="url(#paint2_radial_1_515)"/>
<path d="M38.6763 30.7736C39.3191 30.4992 39.9409 30.0617 40.9103 29.7801C43.8003 22.0222 51.2511 16.4977 59.9892 16.4977C68.7 16.4977 76.1324 21.9881 79.0405 29.7086C79.0508 29.7348 79.0614 29.7667 79.0696 29.7864C79.5698 29.9655 81.0437 30.583 81.5023 30.7895C81.5673 30.7911 81.7061 30.7961 81.8495 30.8002C81.8411 30.7724 81.8332 30.7445 81.8259 30.7164C79.1286 21.1609 70.3732 14.1602 59.9892 14.1602C49.5773 14.1602 40.8038 21.1987 38.1328 30.7939C38.2871 30.7942 38.5808 30.7805 38.6763 30.7736Z" fill="url(#paint3_radial_1_515)"/>
<path d="M59.8243 14.8086C69.5675 14.8086 78.2042 20.8112 81.4756 30.7055L81.5023 30.7895C81.5531 30.7895 81.7385 30.7964 81.8495 30.8002C81.8407 30.7642 81.8316 30.7433 81.8259 30.7164C79.1285 21.1609 70.3732 14.1602 59.9892 14.1602C49.5773 14.1602 40.8038 21.1987 38.1328 30.7939C38.3409 30.7905 38.441 30.7905 38.6769 30.7733C41.6017 21.38 50.1529 14.8086 59.8243 14.8086Z" fill="white"/>
<path d="M82.3094 42.2659C81.6067 42.6517 80.7318 43.0228 80.0325 43.2397C80.0231 43.2618 79.9833 43.3597 79.9748 43.3826C76.9496 50.5497 69.5957 55.6088 61.0043 55.6088C52.3589 55.6088 44.9673 50.4882 41.9774 43.2502C41.173 43.0309 39.9705 42.492 39.5153 42.2671C39.3449 42.259 39.2532 42.2543 39.1484 42.2489C41.9297 51.2612 50.6617 57.8402 61.0046 57.8402C71.3008 57.8402 79.9991 51.3215 82.8211 42.3727C82.8271 42.3554 82.8584 42.2569 82.8651 42.2402C82.702 42.2465 82.4527 42.2659 82.3094 42.2659Z" fill="url(#paint4_radial_1_515)"/>
<path d="M88.4124 30.5726C86.963 30.3954 85.9748 30.4144 82.4441 30.2921C82.2837 30.2863 82.1205 30.2814 81.9549 30.2756C75.553 30.0549 65.9363 29.76 60.5 29.76C55.064 29.76 45.4476 30.0549 39.0448 30.2756C38.8795 30.2814 38.7169 30.2863 38.5568 30.2921C35.0255 30.4144 34.0376 30.3954 32.5879 30.5726C31.1386 30.7513 30 31.3891 30 32.4739V40.3442C30 41.4296 31.3716 42.3084 32.5876 42.3084C32.5876 42.3084 48.0652 43.2687 60.5 43.28C72.9352 43.2687 88.4124 42.3084 88.4124 42.3084C89.6284 42.3084 91 41.4296 91 40.3442V32.4739C91 31.3891 89.8617 30.7513 88.4124 30.5726Z" fill="url(#paint5_radial_1_515)"/>
<path d="M82.3076 42.2671C79.2833 51.081 70.7782 57.2209 61.1711 57.2209C51.4661 57.2209 42.8547 51.5804 39.5125 42.2671C39.3899 42.2608 39.2684 42.256 39.1484 42.2492C41.9291 51.2615 50.6626 57.8402 61.0059 57.8402C71.3524 57.8402 80.0868 51.2573 82.8651 42.2402C82.6823 42.2486 82.4968 42.2584 82.3076 42.2671Z" fill="white"/>
<path d="M81.85 42.24L81.8324 42.2406C81.1657 42.6309 80.3361 43.0064 79.6719 43.2259C79.663 43.2483 79.6252 43.3473 79.6175 43.3705C78.7092 45.6654 77.3895 47.7465 75.75 49.52C78.3162 47.5545 80.4093 45.0713 81.85 42.24Z" fill="#8C8C8C"/>
<path d="M46.2651 50.5602C44.2485 48.5206 42.6432 46.0516 41.5895 43.2943C40.792 43.059 39.6 42.4813 39.1484 42.2402C39.631 43.3026 40.2 44.3181 40.8489 45.2754C42.1763 47.1111 43.7852 48.7473 45.6166 50.1318C45.8298 50.2802 46.0459 50.4228 46.2651 50.5602Z" fill="#4D4D4D"/>
<path d="M39.1487 42.2408V42.2402L39.1415 42.2415C37.3987 42.5448 36.8074 42.661 35.082 42.8855C35.221 43.3701 35.375 43.8476 35.5427 44.3202L39.1487 42.2408Z" fill="#252525"/>
<path d="M72.1539 34.0881C71.6502 32.8802 71.829 33.0069 70.7325 32.9758C70.6435 32.9434 70.4058 32.9434 70.0803 32.9434C69.7554 32.9434 69.6956 32.9434 69.4286 32.9758C68.3923 32.9758 68.5698 32.9123 68.2147 33.7068C68.2147 33.7068 66.4358 37.9974 65.6664 39.7772L65.6368 39.8407C65.4888 40.1579 65.5779 40.1579 65.8143 40.1579H67.4145C67.5335 40.1579 67.592 40.0957 67.6216 40.0309C67.6216 40.0309 67.8587 39.4905 68.1549 38.7281H72.0651C72.3617 39.4594 72.5688 39.9992 72.5688 40.0309C72.5984 40.1265 72.6875 40.1579 72.776 40.1579H74.435C74.6721 40.1579 74.7315 40.1913 74.6428 39.9674C74.3459 39.205 72.4206 34.7546 72.1539 34.0881ZM68.7468 37.2026C69.2505 35.9315 69.7548 34.6921 69.7548 34.66C69.7846 34.5962 69.8438 34.5644 69.9323 34.5644C69.9622 34.532 70.0516 34.532 70.1401 34.532C70.1996 34.532 70.2877 34.532 70.3176 34.5644C70.3765 34.5644 70.4369 34.5962 70.4653 34.6918C70.5849 35.0407 71.0282 36.122 71.4428 37.2026H68.7468ZM47.4179 32.8799C47.5659 32.8799 47.5958 32.9431 47.5958 33.0704V39.8731C47.5958 40.0312 47.5659 40.0961 47.3886 40.0961H45.848C45.6707 40.0961 45.6411 40.0637 45.6411 39.8731V33.0704C45.6411 32.9431 45.6707 32.8799 45.7888 32.8799H47.4179ZM44.1298 32.9431C44.307 32.9431 44.3375 33.0062 44.3375 33.166V39.9366C44.3375 40.1278 44.307 40.1596 44.1298 40.1596H42.3225C41.2565 40.1596 41.1674 40.1596 40.8123 39.5245C40.0716 38.2851 37.8494 34.6296 37.8494 34.6296V39.9373C37.8494 40.1288 37.8198 40.1599 37.6425 40.1599H36.309C36.1315 40.1599 36.1016 40.1288 36.1016 39.9373V33.166C36.1016 33.0069 36.1315 32.9431 36.309 32.9431H37.8494C39.0047 32.9431 39.1527 32.9116 39.5682 33.5474C39.8937 34.1199 42.5894 38.5696 42.5894 38.5696V33.166C42.5894 33.0069 42.619 32.9431 42.7972 32.9431H44.1298ZM83.6771 32.9431C83.8559 32.9431 83.8849 33.0062 83.8849 33.166V39.9366C83.8849 40.1278 83.8553 40.1596 83.6771 40.1596H81.8717C80.8042 40.1596 80.7151 40.1596 80.36 39.5245C79.6186 38.2842 77.397 34.6289 77.397 34.6289V39.937C77.397 40.1281 77.3675 40.1592 77.1893 40.1592H75.857C75.6794 40.1592 75.6489 40.1281 75.6489 39.937V33.166C75.6489 33.0069 75.6797 32.9431 75.857 32.9431H77.397C78.5524 32.9431 78.701 32.9116 79.115 33.5474C79.4707 34.1199 82.1371 38.5696 82.1371 38.5696V33.166C82.1371 33.0069 82.167 32.9431 82.3448 32.9431H83.6771ZM54.202 35.7095C55.3873 35.8362 56.2467 36.0585 56.4834 37.2667C56.4834 37.3614 56.5133 37.6795 56.5133 38.0295C56.5133 38.2524 56.5133 38.5375 56.4538 38.7922C56.247 39.9363 55.4464 40.1586 54.2029 40.1586H49.2252C49.0474 40.1586 49.0175 40.1275 49.0175 39.9363V38.7922C49.0175 38.601 49.0474 38.5693 49.2252 38.5693H54.2606C54.4684 38.5693 54.5275 38.5061 54.5568 38.3464V38.0603V37.8697C54.5269 37.7421 54.4977 37.5516 54.2313 37.5204C53.6681 37.4887 52.0097 37.3293 50.8834 37.2026C49.4318 37.0435 49.0767 36.3767 49.0172 35.8041C48.9876 35.613 48.9876 35.3589 48.9876 35.1363C48.9876 34.9455 48.9876 34.6597 49.0172 34.4368C49.2249 33.419 49.9361 32.9431 51.1796 32.9431H56.0081C56.1866 32.9431 56.2461 32.9755 56.2461 33.1339V34.3104C56.2461 34.4682 56.1866 34.5324 56.0081 34.5006H51.2687C51.0612 34.5006 50.9727 34.5959 50.9425 34.8181V35.1043C50.9425 35.2633 51.0316 35.3907 51.2388 35.4215C51.8029 35.4863 53.5501 35.645 54.202 35.7095ZM62.7626 35.7095C63.9488 35.8362 64.8073 36.0585 65.0446 37.2667C65.0446 37.3614 65.0742 37.6795 65.0742 38.0295C65.0742 38.2524 65.0742 38.5375 65.015 38.7922C64.8082 39.9363 64.0085 40.1586 62.7638 40.1586H57.7864C57.6086 40.1586 57.5787 40.1275 57.5787 39.9363V38.7922C57.5787 38.601 57.6086 38.5693 57.7864 38.5693H62.8227C63.0299 38.5693 63.0881 38.5061 63.1186 38.3464V38.0603V37.8697C63.0878 37.7421 63.0292 37.5516 62.7925 37.5204C62.2299 37.4887 60.5709 37.3293 59.4455 37.2026C57.9933 37.0435 57.6681 36.3767 57.5787 35.8041C57.5491 35.613 57.5491 35.3589 57.5491 35.1363C57.5491 34.9455 57.5491 34.6597 57.5787 34.4368C57.7864 33.419 58.4973 32.9431 59.7411 32.9431H64.5705C64.7475 32.9431 64.8076 32.9755 64.8076 33.1339V34.3104C64.8076 34.4682 64.7475 34.5324 64.5705 34.5006H59.8302C59.623 34.5006 59.5345 34.5959 59.5043 34.8181V35.1043C59.5043 35.2633 59.5638 35.3907 59.8012 35.4215C60.364 35.4863 62.1113 35.645 62.7626 35.7095Z" fill="url(#paint6_radial_1_515)"/>
</g>
<defs>
<linearGradient id="paint0_linear_1_515" x1="60.5" y1="10.5505" x2="60.5" y2="53.7636" gradientUnits="userSpaceOnUse">
<stop offset="0.194" stop-color="white"/>
<stop offset="0.208" stop-color="#F8F8F8"/>
<stop offset="0.366" stop-color="#AEAEAE"/>
<stop offset="0.513" stop-color="#707070"/>
<stop offset="0.647" stop-color="#404040"/>
<stop offset="0.764" stop-color="#1D1D1D"/>
<stop offset="0.86" stop-color="#080808"/>
<stop offset="0.922"/>
</linearGradient>
<radialGradient id="paint1_radial_1_515" cx="0" cy="0" r="1" gradientUnits="userSpaceOnUse" gradientTransform="translate(43.8245 -0.307053) scale(42.4336 41.7512)">
<stop offset="0.202" stop-color="white"/>
<stop offset="0.382" stop-color="#FDFDFD"/>
<stop offset="0.487" stop-color="#F4F4F4"/>
<stop offset="0.573" stop-color="#E6E6E6"/>
<stop offset="0.648" stop-color="#D2D2D2"/>
<stop offset="0.689" stop-color="#C4C4C4"/>
<stop offset="1" stop-color="#333333"/>
</radialGradient>
<radialGradient id="paint2_radial_1_515" cx="0" cy="0" r="1" gradientUnits="userSpaceOnUse" gradientTransform="translate(146.73 67.3766) scale(88.5925 88.2588)">
<stop offset="0.202" stop-color="white"/>
<stop offset="0.368" stop-color="#E4E4E4"/>
<stop offset="0.594" stop-color="#C4C4C4"/>
<stop offset="1" stop-color="#333333"/>
</radialGradient>
<radialGradient id="paint3_radial_1_515" cx="0" cy="0" r="1" gradientUnits="userSpaceOnUse" gradientTransform="translate(53.0441 49.1933) scale(26.9701 27.8658)">
<stop offset="0.202" stop-color="white"/>
<stop offset="0.368" stop-color="#E4E4E4"/>
<stop offset="0.594" stop-color="#C4C4C4"/>
<stop offset="1" stop-color="#333333"/>
</radialGradient>
<radialGradient id="paint4_radial_1_515" cx="0" cy="0" r="1" gradientUnits="userSpaceOnUse" gradientTransform="translate(75.8823 75.0003) scale(51.3788 50.4796)">
<stop offset="0.202" stop-color="white"/>
<stop offset="0.368" stop-color="#E4E4E4"/>
<stop offset="0.594" stop-color="#C4C4C4"/>
<stop offset="1" stop-color="#333333"/>
</radialGradient>
<radialGradient id="paint5_radial_1_515" cx="0" cy="0" r="1" gradientUnits="userSpaceOnUse" gradientTransform="translate(60.0913 15.4746) scale(41.0079 41.2113)">
<stop offset="0.202" stop-color="white"/>
<stop offset="0.397" stop-color="#FDFDFD"/>
<stop offset="0.51" stop-color="#F4F4F4"/>
<stop offset="0.603" stop-color="#E6E6E6"/>
<stop offset="0.684" stop-color="#D2D2D2"/>
<stop offset="0.728" stop-color="#C4C4C4"/>
<stop offset="1" stop-color="#4D4D4D"/>
</radialGradient>
<radialGradient id="paint6_radial_1_515" cx="0" cy="0" r="1" gradientUnits="userSpaceOnUse" gradientTransform="translate(60.4184 18.8059) scale(27.3468 29.3432)">
<stop offset="0.111" stop-color="#4D4D4D"/>
<stop offset="0.248" stop-color="#494949"/>
<stop offset="0.355" stop-color="#404040"/>
<stop offset="0.451" stop-color="#2F2F2F"/>
<stop offset="0.541" stop-color="#181818"/>
<stop offset="0.611"/>
</radialGradient>
<clipPath id="clip0_1_515">
<rect width="61" height="52" fill="white" transform="translate(30 10)"/>
</clipPath>
</defs>
</svg>
