<svg width="121" height="72" viewBox="0 0 121 72" fill="none" xmlns="http://www.w3.org/2000/svg">
<rect width="121" height="72" rx="12" fill="white"/>
<g clip-path="url(#clip0_1_531)">
<path d="M70.7748 31.2851L74.2136 29.9727L66.291 36.3945L63.2422 37.3908L70.7748 31.2851Z" fill="#1A1A1A"/>
<path d="M92.4993 37.2072L90.5123 38.318L63.2422 36.5732L66.3759 35.5361L92.4993 37.2072Z" fill="#8C8C8C"/>
<path d="M90.6709 40.446L46.7852 42.0269L50.3264 40.6765L90.0598 39.2451L90.6709 40.446Z" fill="#1A1A1A"/>
<path d="M46.7852 42.0276L50.2231 40.7155L57.7566 34.6094L54.7102 35.6041L46.7852 42.0276Z" fill="#8C8C8C"/>
<path d="M57.7571 35.428L54.5913 36.4636L28.5 34.7917L30.5058 33.6818L57.7571 35.428Z" fill="#1A1A1A"/>
<path d="M30.6071 30.9004L31.2429 31.8894L30.5694 32.7785L28.5 33.6822L30.6071 30.9004Z" fill="#8C8C8C"/>
<path d="M30.3281 31.5535L30.9431 32.7545L70.6514 31.3239L74.2138 29.9727" fill="url(#paint0_linear_1_531)"/>
<path d="M66.2027 35.5561L63.2422 36.464L70.5565 30.9004" fill="#1A1A1A"/>
<path d="M92.4993 38.0645L90.5123 39.2452L63.2422 37.3906" fill="#8C8C8C"/>
<path d="M46.7852 42.0269L50.3264 40.6765L90.0598 39.2451L90.6709 40.446" fill="#1A1A1A"/>
<path d="M90.3938 40.1724L89.7578 39.1834L90.4304 38.2955L92.5007 37.3906" fill="#1A1A1A"/>
<path d="M46.7852 42.0276L50.2231 40.7155L57.7566 34.6094L54.7102 35.6041" fill="#C2C2C2"/>
<path d="M30.973 32.1613L30.3281 33.1127L57.2474 34.6342L49.514 40.1731L89.1128 38.9116L89.7567 37.9612L62.5519 36.4406L70.2758 30.9004L30.973 32.1613Z" fill="url(#paint1_linear_1_531)"/>
<path d="M28.5 34.7499L30.5058 33.6818L57.7571 35.3622L54.2564 36.4636" fill="#1A1A1A"/>
<path d="M84.1286 40.7079C83.5011 44.1892 82.0989 47.5815 79.8811 50.6168C72.096 61.2731 57.167 63.5538 46.6024 55.7011C39.7831 50.632 36.4236 42.5608 36.9922 34.6094L35.8364 35.2533C35.4858 43.3354 39.004 51.4405 45.9454 56.6002C57.0196 64.8316 72.6123 62.4495 80.7727 51.2793C83.0483 48.1645 84.5056 44.6955 85.1839 41.1337L84.1286 40.7079Z" fill="url(#paint2_linear_1_531)"/>
<path d="M85.1608 37.4854C85.5057 29.1767 81.9868 20.846 75.0495 15.5415C63.9749 7.0727 48.3808 9.52342 40.2195 21.0153C37.949 24.2124 36.4929 27.772 35.8125 31.4276L36.8347 32.057C37.4479 28.4175 38.8592 24.8679 41.1113 21.6971C48.897 10.7339 63.8273 8.38725 74.3926 16.4664C81.255 21.7139 84.6143 30.0886 83.9927 38.3182L85.1608 37.4854Z" fill="url(#paint3_linear_1_531)"/>
<path d="M82.7327 40.8655C81.3815 47.5724 77.0617 53.5931 70.5054 56.8006C59.3477 62.2599 45.8718 57.534 40.4658 46.2663C38.7104 42.6078 38.0185 38.7023 38.2665 34.9093L36.7966 34.6094C36.4937 38.7171 37.2245 42.9549 39.1275 46.9212C44.8911 58.9344 59.2582 63.973 71.1541 58.1524C78.2848 54.6639 82.9339 48.0538 84.2733 40.7303L82.7327 40.8655Z" fill="url(#paint4_linear_1_531)"/>
<path d="M84.194 37.3914C84.5301 33.2575 83.8061 28.9842 81.8776 24.9892C76.1176 13.0554 61.7587 8.05041 49.8695 13.8323C42.6924 17.3224 38.031 23.9579 36.7305 31.2948L38.2187 31.4154C39.4724 24.5892 43.8312 18.4269 50.5176 15.1751C61.6694 9.75193 75.1372 14.4465 80.5398 25.6397C82.3391 29.367 83.0202 33.3523 82.7172 37.2107L84.194 37.3914Z" fill="url(#paint5_linear_1_531)"/>
<path d="M83.2923 37.3913C83.3361 36.822 83.3586 36.2467 83.3586 35.6662C83.3586 23.3236 73.2282 13.2822 60.7761 13.2822C49.7084 13.2822 40.4747 21.2152 38.5586 31.6461L39.8841 30.7852C42.1155 21.3997 50.6357 14.3927 60.7761 14.3927C72.6103 14.3927 82.2383 23.9361 82.2383 35.6662C82.2382 36.0851 82.2259 36.5039 82.2013 36.9222L83.2923 37.3913Z" fill="url(#paint6_linear_1_531)"/>
<path d="M81.2164 41.0249C79.0193 50.5134 70.6628 57.5946 60.7192 57.5946C49.1062 57.5946 39.6579 47.936 39.6579 36.0643C39.6579 35.7207 39.666 35.3791 39.6816 35.0393L38.6038 34.6094C38.5737 35.0937 38.5586 35.579 38.5586 36.0643C38.5586 48.5561 48.4998 58.7185 60.7192 58.7185C71.4379 58.7185 80.4033 50.8992 82.4443 40.5478L81.2164 41.0249Z" fill="url(#paint7_linear_1_531)"/>
<path d="M81.5494 36.4639C81.5438 36.6119 81.5364 36.7594 81.5273 36.9067" stroke="#1A1A1A" stroke-width="0.142212"/>
</g>
<defs>
<linearGradient id="paint0_linear_1_531" x1="30.3281" y1="31.3636" x2="74.2138" y2="31.3636" gradientUnits="userSpaceOnUse">
<stop stop-color="#8C8C8C"/>
<stop offset="1" stop-color="#4D4D4D"/>
</linearGradient>
<linearGradient id="paint1_linear_1_531" x1="41.2756" y1="20.2131" x2="77.9603" y2="51.8452" gradientUnits="userSpaceOnUse">
<stop stop-color="#E0E0E0"/>
<stop offset="0.15" stop-color="#939393"/>
<stop offset="0.17" stop-color="#9F9F9F"/>
<stop offset="0.235" stop-color="#C1C1C1"/>
<stop offset="0.302" stop-color="#DCDCDC"/>
<stop offset="0.37" stop-color="#F0F0F0"/>
<stop offset="0.439" stop-color="#FBFBFB"/>
<stop offset="0.511" stop-color="white"/>
<stop offset="0.576" stop-color="#FBFBFB"/>
<stop offset="0.639" stop-color="#F0F0F0"/>
<stop offset="0.701" stop-color="#DCDCDC"/>
<stop offset="0.763" stop-color="#C1C1C1"/>
<stop offset="0.824" stop-color="#9E9E9E"/>
<stop offset="0.85" stop-color="#8C8C8C"/>
<stop offset="1" stop-color="#FAFAFA"/>
</linearGradient>
<linearGradient id="paint2_linear_1_531" x1="35.8126" y1="48.055" x2="85.1842" y2="48.055" gradientUnits="userSpaceOnUse">
<stop offset="0.006" stop-color="#1A1A1A"/>
<stop offset="0.01" stop-color="#282828"/>
<stop offset="0.029" stop-color="#5D5D5D"/>
<stop offset="0.046" stop-color="#888888"/>
<stop offset="0.062" stop-color="#A6A6A6"/>
<stop offset="0.075" stop-color="#B9B9B9"/>
<stop offset="0.084" stop-color="#BFBFBF"/>
<stop offset="0.143" stop-color="#999999"/>
<stop offset="0.208" stop-color="#777777"/>
<stop offset="0.28" stop-color="#5A5A5A"/>
<stop offset="0.359" stop-color="#424242"/>
<stop offset="0.449" stop-color="#303030"/>
<stop offset="0.556" stop-color="#232323"/>
<stop offset="0.696" stop-color="#1C1C1C"/>
<stop offset="1" stop-color="#1A1A1A"/>
</linearGradient>
<linearGradient id="paint3_linear_1_531" x1="35.8123" y1="24.4091" x2="85.1839" y2="24.4091" gradientUnits="userSpaceOnUse">
<stop stop-color="#E0E0E0"/>
<stop offset="0.116" stop-color="#DBDBDB"/>
<stop offset="0.26" stop-color="#CCCCCC"/>
<stop offset="0.42" stop-color="#B2B2B2"/>
<stop offset="0.59" stop-color="#8F8F8F"/>
<stop offset="0.767" stop-color="#626262"/>
<stop offset="0.843" stop-color="#4D4D4D"/>
<stop offset="1" stop-color="#1A1A1A"/>
</linearGradient>
<linearGradient id="paint4_linear_1_531" x1="36.7304" y1="47.5911" x2="84.2731" y2="47.5911" gradientUnits="userSpaceOnUse">
<stop stop-color="#ECECEC"/>
<stop offset="0.001" stop-color="#DBDBDB"/>
<stop offset="0.002" stop-color="#D0D0D0"/>
<stop offset="0.003" stop-color="#C9C9C9"/>
<stop offset="0.006" stop-color="#C7C7C7"/>
<stop offset="0.179" stop-color="#C9C9C9"/>
<stop offset="0.28" stop-color="#D2D2D2"/>
<stop offset="0.362" stop-color="#E0E0E0"/>
<stop offset="0.434" stop-color="#F4F4F4"/>
<stop offset="0.466" stop-color="white"/>
<stop offset="0.642" stop-color="#FDFDFD"/>
<stop offset="0.734" stop-color="#F5F5F5"/>
<stop offset="0.807" stop-color="#E7E7E7"/>
<stop offset="0.869" stop-color="#D4D4D4"/>
<stop offset="0.925" stop-color="#BCBCBC"/>
<stop offset="0.976" stop-color="#9D9D9D"/>
<stop offset="1" stop-color="#8C8C8C"/>
</linearGradient>
<linearGradient id="paint5_linear_1_531" x1="42.5594" y1="17.1285" x2="84.2592" y2="37.2561" gradientUnits="userSpaceOnUse">
<stop offset="0.006" stop-color="#C7C7C7"/>
<stop offset="0.025" stop-color="#D2D2D2"/>
<stop offset="0.055" stop-color="#DDDDDD"/>
<stop offset="0.09" stop-color="#E0E0E0"/>
<stop offset="0.098" stop-color="#E9E9E9"/>
<stop offset="0.117" stop-color="#F6F6F6"/>
<stop offset="0.142" stop-color="#FDFDFD"/>
<stop offset="0.197" stop-color="white"/>
<stop offset="0.714" stop-color="#8C8C8C"/>
<stop offset="1" stop-color="#8C8C8C"/>
</linearGradient>
<linearGradient id="paint6_linear_1_531" x1="83.3586" y1="25.3368" x2="38.5586" y2="25.3368" gradientUnits="userSpaceOnUse">
<stop stop-color="#E0E0E0"/>
<stop offset="0.001" stop-color="#E0E0E0"/>
<stop offset="0.006" stop-color="#E0E0E0"/>
<stop offset="0.183" stop-color="#C2C2C2"/>
<stop offset="0.57" stop-color="#757575"/>
<stop offset="1" stop-color="#1A1A1A"/>
</linearGradient>
<linearGradient id="paint7_linear_1_531" x1="82.4443" y1="46.6637" x2="38.5586" y2="46.6637" gradientUnits="userSpaceOnUse">
<stop stop-color="#1A1A1A"/>
<stop offset="0.017" stop-color="#303030"/>
<stop offset="0.061" stop-color="#656565"/>
<stop offset="0.104" stop-color="#929292"/>
<stop offset="0.146" stop-color="#B4B4B4"/>
<stop offset="0.185" stop-color="#CCCCCC"/>
<stop offset="0.221" stop-color="#DBDBDB"/>
<stop offset="0.25" stop-color="#E0E0E0"/>
<stop offset="0.36" stop-color="#DDDDDD"/>
<stop offset="0.467" stop-color="#D1D1D1"/>
<stop offset="0.572" stop-color="#BDBDBD"/>
<stop offset="0.677" stop-color="#A2A2A2"/>
<stop offset="0.781" stop-color="#7E7E7E"/>
<stop offset="0.885" stop-color="#535353"/>
<stop offset="0.987" stop-color="#212121"/>
<stop offset="1" stop-color="#1A1A1A"/>
</linearGradient>
<clipPath id="clip0_1_531">
<rect width="64" height="51" fill="white" transform="translate(28.5 10.5)"/>
</clipPath>
</defs>
</svg>
