<svg width="121" height="72" viewBox="0 0 121 72" fill="none" xmlns="http://www.w3.org/2000/svg">
<rect width="121" height="72" rx="12" fill="white"/>
<path d="M77.9176 44.2013C77.2588 42.1056 74.404 36.9218 72.2079 33.9438C71.7687 33.282 71.8785 32.9511 72.2079 32.7305C72.4275 32.51 73.3059 31.8482 74.2942 30.7452C75.2824 29.6423 75.502 28.3187 74.8432 26.4437C74.1844 24.5687 71.8785 20.2672 71.4393 18.8333C70.8903 17.1789 70.7805 16.4068 71.2197 15.5245C71.6589 14.4215 72.2079 14.4215 72.6471 14.4215C72.8667 14.4215 73.0863 14.6421 73.0863 14.7524C73.0863 15.1936 73.0863 15.8554 73.5256 16.9583C74.2942 18.8333 76.1608 20.1569 76.7098 20.3775C77.149 20.5981 77.149 20.2672 77.149 20.0466C77.149 19.9363 76.4902 17.5098 76.051 15.7451C75.6118 13.8701 75.2824 13.4289 74.953 13.098C74.2942 12.4362 73.1961 12.1053 72.4275 12.1053C70.4511 12.2156 69.6825 14.0906 69.5727 14.2009C69.4629 14.3112 69.4629 14.4215 69.2433 14.3112C68.6942 13.8701 67.0472 12.5465 66.9374 11.6641C66.8276 11.1127 66.7178 11.1127 66.2786 10.8921C64.3021 10.12 62.6551 9.45824 60.7885 9.12736C60.0198 9.01706 60.0198 8.90677 59.1414 9.12736C57.714 9.45824 56.7258 9.78913 55.6278 10.3406C54.9689 10.6715 54.9689 10.8921 54.8591 11.0024C54.7493 11.1127 54.6395 11.223 54.4199 11.3333C54.0905 11.4436 52.6631 11.995 52.2239 12.2156C51.5651 12.6568 51.3455 12.8774 51.4553 13.2083C51.6749 13.7598 52.5533 14.973 52.8827 15.3039C53.1023 15.5245 53.6513 15.6348 53.7611 15.6348C53.8709 15.6348 53.9807 15.7451 53.9807 15.6348C53.9807 15.5245 54.0905 15.4142 54.3101 15.1936C54.6395 14.973 55.4081 14.7524 55.7376 14.7524C56.067 14.7524 56.1768 14.7524 56.2866 14.8627C56.3964 14.973 56.7258 15.3039 56.8356 15.6348C56.9454 15.9657 56.8356 16.076 56.7258 16.1863C56.5062 16.2966 55.9572 16.4068 55.1885 16.4068C54.6395 16.5171 54.4199 16.4068 54.4199 16.2966C54.4199 16.2966 54.3101 16.1863 54.2003 16.2966C54.0905 16.4068 53.8709 16.5171 53.6513 16.7377C53.5415 16.848 53.4317 16.9583 53.5415 17.1789C53.9807 17.951 54.5297 18.8333 55.0787 18.9436C55.5179 19.0539 55.7376 18.9436 56.1768 18.6128C56.616 18.2819 56.8356 18.2819 57.0552 18.3922C57.165 18.5025 57.4944 18.723 57.3846 18.9436C57.2748 19.2745 56.5062 20.2672 56.3964 20.3775C56.2866 20.5981 56.1768 20.5981 55.8474 20.4878C55.5179 20.2672 50.0278 17.3995 49.2592 17.1789C48.4906 16.848 47.9416 16.848 47.173 16.7377C46.5141 16.7377 45.6357 16.7377 45.1965 16.848C44.7573 16.9583 44.5377 17.0686 44.2083 17.3995C43.6593 17.8407 43.2201 18.5025 43.1103 18.9436C43.1103 19.2745 43.4397 20.0466 43.5495 20.0466C43.5495 20.0466 43.6593 20.1569 43.8789 20.1569C44.0985 20.1569 44.6475 19.826 45.3063 19.9363C45.8553 20.0466 45.9651 20.4878 45.9651 20.8187C45.9651 20.929 46.0749 21.0392 46.1847 21.0392C46.4043 21.0392 46.7338 21.0392 47.173 21.2598C47.722 21.4804 48.7102 22.3628 48.9298 22.4731C49.0396 22.5834 49.0396 22.804 48.82 22.804C47.5024 22.9143 45.5259 23.3554 44.5377 23.576C43.8789 23.7966 43.1103 24.1275 42.7809 24.5687C42.4515 25.1202 42.122 26.0025 42.0122 26.554C41.9024 27.2158 42.5613 27.9879 42.7809 28.0981C42.8907 28.2084 43.0005 28.3187 43.2201 28.2084C43.5495 27.9879 44.3181 27.5467 45.0867 27.5467C45.5259 27.5467 45.7455 27.9879 45.8553 28.0981C45.9651 28.2084 46.0749 28.0981 46.5141 27.9879C47.2828 27.7673 51.2357 27.8776 52.6631 27.9879C53.3219 27.9879 54.2003 28.0981 54.8591 28.429C55.5179 28.7599 56.7258 29.9732 56.7258 29.9732C56.7258 29.9732 55.1885 32.6203 54.3101 34.1644C53.5415 35.5982 52.9925 36.7012 52.6631 37.3629C52.4435 37.9144 52.2239 38.7968 52.2239 39.4586C52.3337 40.4512 52.3337 40.8924 52.3337 41.3336C52.3337 41.6645 52.0043 41.7748 51.4553 41.8851C50.7964 42.1056 49.369 42.2159 48.271 42.4365C47.2828 42.6571 46.8436 42.8777 46.7338 43.7601C46.6239 44.4218 46.4043 45.8557 46.4043 46.6278C46.4043 46.9586 46.4043 47.0689 46.7338 46.9586C46.9534 46.9586 47.5024 46.8483 48.271 46.7381C49.1494 46.6278 50.2474 46.6278 51.016 46.6278C52.4435 46.6278 56.7258 46.8483 56.9454 46.8483C57.2748 46.8483 57.3846 46.8483 57.3846 46.6278C57.3846 46.2969 57.2748 45.1939 57.2748 44.5321C57.2748 43.8704 57.165 43.2086 57.714 42.6571C58.263 41.9954 62.6551 37.1424 62.8747 36.9218C63.0943 36.7012 63.2041 36.4806 63.5335 36.8115C63.8629 37.1424 67.3766 39.6792 68.1452 40.2306C68.9138 40.7821 69.5727 40.8924 70.3413 41.0027C70.8903 41.0027 71.1099 41.9954 70.5609 42.1056C70.0119 42.2159 69.2433 42.3262 68.6942 42.4365C67.8158 42.6571 67.5962 42.8777 67.3766 43.4292C67.157 43.8704 66.9374 46.2969 66.9374 46.5175C66.9374 46.6278 66.9374 46.8483 67.157 46.8483C68.1452 46.6278 69.7923 46.6278 71.5491 46.6278C73.5256 46.7381 75.502 46.8483 75.8314 46.8483C76.1608 46.8483 76.1608 46.8483 76.2706 46.6278C76.4902 46.1866 77.2588 45.3042 77.9176 44.7527C78.0275 44.7527 78.0275 44.6424 77.9176 44.2013ZM70.1217 29.9732C69.5727 30.1938 69.2433 29.9732 69.0236 29.7526C68.804 29.532 66.7178 26.9952 66.059 26.3334C65.7296 26.0025 65.51 25.1202 66.4982 24.679C67.2668 24.3481 68.804 23.9069 69.1335 23.6863C69.5727 23.4657 69.7923 23.2452 69.7923 22.804V21.701C69.7923 21.5907 70.0119 21.3701 70.1217 21.5907C70.2315 21.701 70.5609 22.4731 71.0001 23.2452C71.6589 24.4584 72.5373 26.0025 72.7569 26.7746C72.9765 27.4364 72.8667 27.8776 72.5373 28.429C72.0981 29.0908 70.5609 29.7526 70.1217 29.9732Z" fill="#1C1C1B"/>
<path d="M72.6842 13C71.1053 13 69.6316 14.8985 69.8421 17.6904C70.0526 19.3655 70.2632 20.1472 70.7895 21.264C71 21.8223 73.6316 27.0711 73.7368 27.6294C73.9474 28.4112 73.7368 28.9695 73.2105 29.5279C72.5789 30.0863 71.5263 30.868 70.7895 31.0914C70.5789 31.203 70.4737 31.203 70.3684 31.203C70.1579 31.203 69.8421 31.0914 69 30.198L72.3684 35C71.9474 34.4416 71.7368 33.8832 71.8421 33.5482C71.9474 33.1015 72.5789 32.7665 73.2105 32.0964C73.9474 31.5381 74.6842 30.7563 75.1053 29.7513C75.2105 29.4162 75.2105 29.1929 75.2105 28.8579C75.2105 27.8528 74.7895 26.8477 74.2632 25.6193C73.6316 24.0558 71.6316 20.8173 71.1053 18.4721C71 17.9137 70.8947 17.3553 70.8947 16.9086C70.8947 15.5685 71.4211 14.7868 72.0526 14.4518C72.3684 14.3401 72.6842 14.2284 72.8947 14.2284C73.2105 14.2284 73.5263 14.3401 73.6316 14.3401C73.8421 14.4518 73.8421 14.6751 73.8421 14.8985V15.2335C73.8421 15.7919 73.9474 16.9086 74.4737 18.1371C75.2105 19.5888 76.4737 20.3706 77 20.5939C77 20.5939 75.8421 15.9036 75.6316 15.0102C75.2105 14.1168 74.5789 13 72.6842 13Z" fill="url(#paint0_linear_1_568)"/>
<path d="M50.6931 23C51.0136 23.2998 50.4794 23.2998 48.8767 23.3997C47.2739 23.4997 45.6712 23.7995 44.8164 24.0993C44.1753 24.2992 43.8548 24.499 43.5342 24.9987C43.5342 24.9987 43 25.998 43 26.4977C43 26.6976 43 26.7975 43.1068 26.9974C43.2137 27.0973 43.3205 24.2992 47.1671 24.0993C50.6931 23.8994 51.5479 23.4997 50.6931 23Z" fill="url(#paint1_linear_1_568)"/>
<path d="M71.1071 16.4643C71.1071 16.4643 71.2143 15.7143 71.3214 15.2857C71.6429 14.3214 72.2857 14.1071 72.7143 14.1071C73.0357 14.1071 73.1429 14.2143 73.25 14.3214C73.3571 14.4286 73.4643 14.5357 73.4643 14.6429C73.4643 15.0714 73.4643 15.6071 73.8929 16.7857C73.8929 16.8929 74 16.8929 74 17C73.6786 16.0357 73.5714 15.1786 73.5714 14.75V14.4286C73.5714 14.1071 73.25 14 72.8214 14C72.6071 14 72.3929 14 72.0714 14.1071C71.5357 14.3214 71 14.9643 71 16.1429L71.1071 16.4643Z" fill="url(#paint2_linear_1_568)"/>
<path d="M50.805 23C50.912 23.3158 50.4843 23.2105 48.8805 23.4211C47.2767 23.5263 45.673 23.8421 44.8176 24.1579C44.1761 24.3684 43.8553 24.5789 43.5346 25.1053C43.5346 25.1053 43 26.1579 43 26.6842C43 26.8947 43 27 43.1069 27.2105C43.3208 27.4211 43.4277 27.5263 43.6415 27.4211C43.8553 27.3158 44.7107 26.7895 45.2453 26.7895C45.7799 26.7895 45.9937 27.1053 46.1006 27.3158C46.1006 27.5263 46.4214 27.4211 46.4214 27.4211C46.6352 27.3158 46.8491 27.3158 47.7044 27.2105C48.6667 27.1053 52.4088 27.2105 53.6918 27.2105C54.8679 27.2105 59.7862 31 59.7862 31L60 30.4737C58.3962 29.1053 52.195 24.3684 50.805 23Z" fill="url(#paint3_linear_1_568)"/>
<path d="M65.2107 26.8285C65.9761 27.7152 68.1627 30.486 70.1307 33.0351C73.0827 36.9143 74.9414 40.0176 76.9094 44.4509C77.1281 44.8942 76.9094 44.8942 76.6908 45.2267C76.1441 45.67 76.2534 45.8917 75.8161 46.6675C75.8161 46.7783 75.7068 46.8892 75.4881 46.8892C75.0508 46.8892 71.8801 46.5567 69.8027 46.6675C68.6001 46.6675 68.2721 46.7783 67.9441 46.8892C67.7254 47 67.6161 46.8892 67.6161 46.6675C67.6161 46.5567 67.8347 45.2267 68.0534 44.7834C68.2721 44.34 68.4907 44.1184 68.9281 44.0075C69.3654 43.8967 70.5681 43.675 71.0054 43.5642C71.4427 43.4534 71.5521 43.01 71.4427 42.6775C71.4427 42.345 71.1147 41.9017 70.7867 41.7909C70.3494 41.4584 70.1307 41.4584 69.6934 41.2367C69.2561 41.0151 62.6961 35.6951 62.1494 35.2518C62.0401 35.141 61.9307 35.0301 61.8214 35.141C61.8214 35.2518 61.9307 35.3626 61.9307 35.3626L63.2427 36.6926C63.3521 36.8034 63.3521 36.9143 63.2427 37.0251L58.76 41.5692C57.448 42.8992 56.5734 43.675 56.5734 44.7834C56.5734 45.8917 56.6827 46.6675 56.6827 46.8892C56.6827 47 56.5734 47 56.3547 47C55.9174 47 52.856 46.6675 51.216 46.6675C49.4667 46.6675 48.264 46.7783 47.4987 47C47.28 47 47.28 46.8892 47.28 46.7783C47.28 46.5567 47.4987 45.4483 47.7173 44.6725C47.8267 44.2292 48.264 44.0075 48.7013 43.8967C49.248 43.7859 51.4347 43.3425 52.4187 43.2317C52.9654 43.1209 53.0747 43.01 53.0747 42.4559C53.0747 42.0126 52.9654 41.0151 52.9654 40.4609C52.9654 40.0176 53.0747 39.4634 53.2934 39.0201C54.0587 37.1359 56.0267 33.2568 57.6667 30.9293C57.8854 30.7077 58.104 30.5968 58.2134 30.7077C58.432 30.7077 59.416 31.5943 59.5254 31.5943C59.744 31.7052 59.9627 31.5943 59.8534 31.4835C59.3067 30.9293 57.5574 29.821 56.464 28.9344C54.3867 27.2719 52.0907 24.7227 50.3414 23.0602C49.4667 22.1736 48.4827 21.6194 47.7173 21.3978C47.4987 21.2869 47.1707 21.2869 46.952 21.2869C46.8427 21.2869 46.8427 21.1761 46.8427 21.1761C46.8427 21.0653 46.8427 20.8436 46.624 20.6219C46.4053 20.4003 46.0773 20.4003 45.8587 20.4003C45.5307 20.4003 44.8747 20.5111 44.5467 20.5111C44.4373 20.5111 44.328 20.5111 44.2187 20.4003C44.1093 20.2894 44.1093 20.0678 44 19.9569C44 19.8461 44 19.7353 44.1093 19.5136C44.328 19.0703 44.8747 18.7378 45.2027 18.4053C45.5307 18.0728 45.7493 18.0728 46.0773 18.0728C46.8427 17.962 47.8267 17.962 48.8107 18.1836C49.576 18.4053 50.1227 18.627 50.888 18.9595C51.6534 19.292 55.808 21.5086 56.3547 21.7303L65.2107 26.8285Z" fill="url(#paint4_linear_1_568)"/>
<path d="M58.4581 19.1298C58.5718 19.708 58.2307 20.055 58.0033 20.402C57.7759 20.7489 57.321 21.2116 57.2073 21.5585C56.9799 21.9055 56.4113 21.7898 56.4113 21.7898C56.4113 21.7898 58.913 23.062 60.3912 23.8716C60.9598 24.2186 61.8695 23.8716 62.438 22.7151C62.5517 22.4838 63.4614 20.5176 63.6889 19.9393C63.9163 19.3611 64.2574 18.7828 63.6889 17.6262C63.1203 16.5853 61.5283 14.5035 60.9598 13.6939C60.6187 13.2313 60.2775 13 59.3678 13C58.5718 13 57.5484 13.1157 56.1839 13.4626C54.8194 13.8096 53.1137 14.5035 53 14.6192V14.7348L53.2274 15.0818C53.2274 15.0818 53.3411 15.3131 53.5686 15.4288C53.796 15.5444 54.1371 15.6601 54.1371 15.6601H54.2508C54.2508 15.6601 54.4782 15.0818 55.5016 14.8505C55.9565 14.7348 56.2976 14.7348 56.525 14.7348C56.7525 14.7348 57.0936 14.8505 57.321 15.0818C57.6622 15.4288 58.0033 16.007 58.0033 16.2384C58.0033 16.4697 58.0033 16.8166 57.7759 16.9323C57.4347 16.9323 56.6388 17.048 56.1839 17.1636C55.7291 17.1636 55.1605 17.1636 54.9331 17.048H54.8194C54.7057 17.1636 54.592 17.1636 54.4782 17.3949C54.4782 17.3949 54.3645 17.5106 54.4782 17.6262C54.4782 17.7419 55.1605 18.6671 55.5016 19.0141C55.8428 19.2454 56.0702 19.1298 56.525 18.8984C56.9799 18.6671 57.2073 18.3202 57.6622 18.3202C58.0033 18.2045 58.3444 18.6671 58.4581 19.1298Z" fill="url(#paint5_radial_1_568)"/>
<path opacity="0.85" d="M57 16C56.7814 16.2341 56.1255 16.3511 55.6883 16.3511C55.251 16.3511 54.8138 16.3511 54.4858 16.2341H54.3765C54.2672 16.3511 54.2672 16.3511 54.0486 16.4681C54.0486 16.4681 53.9393 16.5851 54.0486 16.5851C54.0486 16.7022 54.5951 17.6384 54.9231 17.8724C55.251 18.1065 55.4696 17.9894 55.9069 17.7554C56.3441 17.5213 56.5628 17.1703 57 17.2873V16Z" fill="url(#paint6_radial_1_568)"/>
<path opacity="0.85" d="M55.5161 13C54.4516 13.3333 53 14 53 14V14.1111L53.1935 14.4444C53.1935 14.4444 53.2903 14.6667 53.4839 14.7778C53.6774 14.8889 53.871 15 53.9677 15H54.0645C54.0645 15 54.2581 14.4444 55.129 14.2222C55.5161 14.1111 55.8065 14.1111 56 14.1111L55.5161 13Z" fill="url(#paint7_radial_1_568)"/>
<path opacity="0.85" d="M57.9194 19C58.0323 19.6056 57.6935 19.969 57.4677 20.3324C57.2419 20.6958 56.7903 21.1803 56.6774 21.5437C56.4516 21.9071 56 21.786 56 21.786C56 21.786 58.371 23.1184 59.7258 23.8452C60.2903 24.2085 61.1935 23.9663 61.7581 22.755C61.871 22.5127 62.7742 20.4535 63 19.8479L57.9194 19Z" fill="url(#paint8_radial_1_568)"/>
<path d="M47.0798 27.8571C46.9734 27.8571 46.9734 27.5714 47.0798 27.4286C47.1863 27.2857 47.8251 26.7143 48.1445 26.5714C48.5703 26.4286 49.8479 26.2857 50.3802 26.2857C50.5932 26.2857 52.616 26 52.8289 26C53.0418 26 53.4677 27 54 27.8571H50.5932C49.1027 27.8571 47.9316 27.8571 47.3992 28C47.3992 27.8571 47.1863 27.8571 47.0798 27.8571Z" fill="url(#paint9_linear_1_568)"/>
<path d="M47.1061 28C47 28 47 27.8571 47 27.8571C47 27.7143 47 27.7143 47.1061 27.5714C47.2121 27.4286 47.8485 26.7143 48.1667 26.7143C48.5909 26.5714 49.8636 26.4286 50.3939 26.4286C50.5 26.4286 52.5152 26.1429 52.7273 26.1429C52.8333 26.1429 52.8333 26.2857 52.9394 26.2857L53.2576 26.7143C53.4697 27 53.6818 27.5714 54 27.8571H50.5C49.0152 27.8571 47.8485 27.8571 47.3182 28H47H47.1061ZM47.2121 27.8571H47.5303C47.9545 27.8571 49.2273 27.7143 50.7121 27.7143H54C53.5758 27.1429 53.2576 26.4286 53.0455 26.1429C52.9394 26 52.9394 26 52.8333 26C52.6212 26 50.6061 26.2857 50.5 26.2857C49.9697 26.2857 48.5909 26.4286 48.2727 26.5714C47.9545 26.7143 47.3182 27.2857 47.2121 27.4286C47.1061 27.5714 47.1061 27.5714 47.1061 27.7143C47.1061 27.8571 47.1061 27.8571 47.2121 27.8571Z" fill="#635F5E"/>
<path d="M76.9827 44.6383C76.3322 42.9514 74.5975 39.3526 72.1039 35.6413C69.7188 31.9301 65.599 26.9818 65.0569 26.1945C64.5148 25.4073 64.298 24.5076 65.4906 24.0577C66.2495 23.8328 68.0926 23.383 68.7431 23.1581C69.502 22.9331 69.502 22.7082 69.6104 22.1459C69.7188 21.4711 69.502 18.4346 69.1767 16.6353C69.0683 16.2979 68.8515 15.9605 68.5262 15.7356C68.3094 15.5106 67.2252 14.6109 66.6832 14.0486C66.0327 13.3739 65.7074 12.6991 65.599 12.1368C65.599 12.1368 65.599 12.0243 65.4906 11.9119C65.4906 11.9119 65.3822 11.7994 65.2738 11.7994C64.1896 11.1246 60.395 10 59.6361 10C59.0941 10 57.251 10.2249 55.5163 11.2371C54.9743 11.5745 54.9743 11.9119 54.649 12.1368C54.3238 12.3617 53.4564 12.5866 52.5891 12.924C52.1554 13.1489 52.1554 13.1489 52.2639 13.4863C52.2639 13.5988 52.5891 14.1611 52.8059 14.1611C52.9144 14.1611 53.1312 14.0486 53.348 14.0486C53.5648 13.9362 55.2995 13.2614 56.6005 12.924C58.0099 12.5866 59.6361 12.5866 60.1782 13.1489C61.0455 14.0486 62.5634 16.1854 62.997 17.1976C63.4307 18.0973 63.4307 18.5471 63.1054 19.4468C62.7802 20.3465 61.8044 22.5957 61.4792 23.0456C61.154 23.4954 60.8287 23.7204 59.853 23.383C58.8772 22.9331 55.2995 21.1337 54.5406 20.6839C53.9985 20.459 51.8302 19.2219 50.204 18.4346C49.5535 18.0973 49.1198 17.8723 48.5777 17.7599C47.3851 17.4225 46.0842 17.535 45.4337 17.6474C45.1084 17.6474 45 18.2097 45 18.3222C45 18.5471 45.6505 18.4346 46.1926 18.4346C46.6262 18.4346 48.1441 18.6596 48.903 18.997C49.7703 19.3343 54.3238 21.921 55.4079 22.4833C64.0812 27.3191 67.7673 30.4681 74.4891 42.1641C74.8143 42.7264 74.9228 43.2887 74.4891 43.5137C73.8386 43.7386 70.9114 44.3009 70.044 44.5258C69.2851 44.7508 69.1767 44.8632 69.0683 45.2006C68.9599 45.6505 68.7431 46.4377 68.8515 46.6626C68.8515 46.7751 68.8515 46.7751 68.9599 46.7751C69.7188 46.7751 72.646 46.7751 74.8143 47C75.0312 47 75.1396 47 75.248 46.7751C75.4648 46.4377 76.2237 45.538 76.7658 45.2006C77.0911 45.0881 76.9827 44.7508 76.9827 44.6383Z" fill="url(#paint10_linear_1_568)"/>
<path d="M75 42.9535C75 42.5039 74.5631 41.8295 73.7985 40.593C73.0339 39.3566 72.0508 37.6705 70.8493 35.8721C68.5555 32.6124 66.3709 30.0271 63.6402 27.7791C61.5649 26.093 59.4895 24.8566 57.9603 23.845C56.4311 22.9457 49.7682 19.2364 48.7851 18.8992C47.8021 18.562 47.1467 18.4496 46.4913 18.4496H45.2898C44.9621 18.4496 45.0713 18.1124 45.0713 18C45.0713 18.1124 44.8529 18.562 45.1806 18.562H46.4913C47.2559 18.6744 48.3482 18.8992 49.0036 19.124C49.8774 19.4612 54.2465 22.1589 55.3388 22.7209C58.7249 24.6318 61.2372 26.4302 63.6402 28.4535C67.2448 31.4884 70.4124 34.9729 74.3446 42.0543C74.4539 42.2791 74.5631 42.5039 74.5631 42.8411C74.5631 43.2907 74.2354 43.4031 74.1262 43.4031C73.4708 43.6279 70.6308 44.3023 69.8662 44.5271C69.2109 44.7519 68.9924 44.9767 68.8832 45.314C68.8832 45.4264 68.774 46.1008 68.5555 46.3256C68.4463 46.5504 68.1186 46.5504 67.7909 46.5504C67.5724 46.5504 67.4632 46.5504 67.4632 46.3256C67.4632 46.1008 67.5724 45.4264 67.6817 45.0891C67.7909 44.7519 67.9001 44.4147 68.2278 44.1899C68.5555 43.9651 69.757 43.7403 70.4124 43.6279C71.0678 43.5155 71.0678 43.1783 71.0678 42.6163C71.0678 43.1783 70.8493 43.2907 70.1939 43.4031C69.5386 43.5155 68.4463 43.7403 68.0094 43.9651C67.6817 44.1899 67.4632 44.5271 67.4632 44.8643C67.2448 45.7636 67.1355 46.5504 67.1355 46.7752C67.1355 47 67.2448 47 67.4632 47C67.6817 47 68.2278 46.8876 69.1017 46.8876C69.3201 46.8876 69.3201 46.5504 69.3201 46.2132C69.3201 46.1008 69.3201 45.7636 69.4293 45.5388C69.5386 45.3139 69.6478 45.2015 69.8662 45.0891C70.3032 44.9767 72.9247 44.1899 74.2354 43.8527C74.7815 43.6279 75 43.5155 75 42.9535Z" fill="url(#paint11_linear_1_568)"/>
<path d="M57.9091 30.0416C58.1273 30.1524 58.4545 30.374 58.6727 30.4848C58.8909 30.5957 59 30.7065 59 30.7065C57.2545 32.9229 54.6364 36.6909 53.8727 38.3532C53.4364 39.2398 53.4364 39.5723 53.4364 40.3481C53.4364 41.1238 53.5455 42.0104 53.4364 42.4537C53.4364 42.897 53.1091 43.1186 52.6727 43.2294C52.2364 43.3403 49.7273 43.7836 49.1818 43.8944C48.6364 44.0052 48.5273 44.3377 48.4182 44.781C48.3091 45.2242 48.3091 45.4459 48.2 45.5567C48.2 45.7784 48.2 45.8892 47.9818 45.8892C47.8727 45.8892 47.4364 45.8892 47.2182 46C47 46 47 46 47 45.7784C47 45.5567 47.2182 44.6701 47.3273 44.2268C47.4364 43.7836 47.6545 43.4511 48.3091 43.3403C48.9636 43.2294 51.4727 42.7861 52.0182 42.6753C52.5636 42.5645 52.6727 42.3429 52.6727 41.7887C52.6727 41.2346 52.5636 40.4589 52.5636 39.9048C52.5636 39.4615 52.5636 39.0182 52.7818 38.5749C53 38.1316 53.8727 36.1368 54.6364 34.6961C55.7273 32.7013 56.9273 30.7065 57.2545 30.374C57.4727 30.0416 57.5818 29.9307 57.9091 30.0416Z" fill="url(#paint12_linear_1_568)"/>
<path d="M56.1116 45C56.1116 44.5402 56.2231 44.0805 56.5578 43.6207C57.004 43.046 57.5618 42.4713 58.3426 41.6667L62.9163 36.954C63.0279 36.8391 63.0279 36.7241 62.9163 36.6092L61.9124 35.5747C61.5777 35.2299 61.3546 35.1149 61.3546 35C61.3546 35 57.7849 39.1379 56.6693 42.1264C56.2231 43.1609 56 43.8506 56 44.4253C56.1116 44.8851 56.1116 45 56.1116 45Z" fill="url(#paint13_linear_1_568)"/>
<path d="M45 18H46.2937C47.1561 18.1126 48.1264 18.3378 48.7732 18.5631C49.0967 18.6757 49.8513 19.1261 50.8216 19.6892C52.4387 20.5901 54.3792 21.8288 55.026 22.2793C57.5056 23.7432 59.4461 25.0946 61.2788 26.5586C61.9256 27.1216 62.5725 27.5721 63.2193 28.1351C66.8848 31.1757 69.7955 34.5541 73.7844 41.7613C73.8922 41.9865 74 42.2117 74 42.5495C74 42.7748 73.7844 43 73.5688 43L45 18Z" fill="url(#paint14_linear_1_568)"/>
<path d="M69.5676 15.0244C69.4595 15.0244 69.3514 14.9024 69.2432 14.9024C68.7027 14.4146 67.0811 13.0732 66.8649 11.8537C66.7568 11.2439 66.8649 11.6098 66.4324 11.2439C66.3243 11.122 66.1081 11.122 66 11C66 11 66.1081 11 66.1081 11.122C66.2162 11.122 66.2162 11.2439 66.3243 11.2439C66.5405 11.4878 66.5405 11.6098 66.5405 11.7317C66.6486 12.2195 66.8649 12.9512 67.5135 13.6829C67.9459 14.4146 69.027 15.3902 69.2432 15.6341C69.3514 15.7561 69.5676 15.878 69.6757 16C69.7838 15.6341 69.8919 15.1463 70 14.7805C70 14.7805 70 14.9024 69.8919 14.9024C69.7838 14.9024 69.6757 15.0244 69.5676 15.0244Z" fill="url(#paint15_linear_1_568)"/>
<path d="M65.7143 24.0937C65.119 24.3125 65 24.4219 65 24.75C65 24.9687 65.119 25.4062 65.3571 25.7344C65.7143 26.1719 67.1429 27.7031 68.8095 29.5625C69.0476 29.7812 69.0476 29.8906 69.2857 30C69.1667 29.8906 66.9048 27.2656 66.1905 26.5C65.9524 26.2812 65.7143 25.9531 65.7143 25.625C65.7143 25.1875 66.0714 24.6406 66.6667 24.5312C67.5 24.2031 69.1667 23.7656 69.5238 23.5469C69.881 23.3281 70 23.3281 70 23L69.2857 23.3281C68.5714 23.4375 66.5476 23.875 65.7143 24.0937Z" fill="url(#paint16_linear_1_568)"/>
<path d="M70 16C70.3462 14.8261 71.2692 13.2609 72.8846 13.2609C74.8462 13.2609 75.6538 14.1739 76 15.3478C75.6538 13.5217 74.2692 13 72.8846 13C71.2692 13.1304 70.2308 14.5652 70 16Z" fill="url(#paint17_linear_1_568)"/>
<path d="M57.6864 42.6833C57.9068 42.45 58.8983 41.2833 60 40L59.1186 40.9333C57.6864 42.5667 57.0254 43.0333 57.0254 43.9667C57.0254 44.55 57.1356 45.95 57.1356 46.1833C57.1356 46.3 57.1356 46.4167 56.9153 46.65C56.8051 46.7667 56.5847 46.7667 56.4746 46.7667C56.0339 46.7667 52.178 46.4167 50.8559 46.4167C49.5339 46.4167 48.322 46.5333 47.661 46.7667C47.5508 46.7667 47.2203 46.7667 47.1102 46.5333C47 46.4167 47 46.3 47 46.3V47C47.2203 47 47.7712 46.8833 48.5424 46.7667C49.5339 46.65 50.5254 46.65 51.2966 46.65C52.0678 46.65 57.3559 47 57.3559 47C57.3559 46.5333 57.2458 45.4833 57.2458 44.9V44.3167C57.1356 43.85 57.2458 43.2667 57.6864 42.6833Z" fill="url(#paint18_linear_1_568)"/>
<path d="M68.0943 40.6C68.434 40.8 68.6604 40.9 69 41C68.7736 40.8 68.434 40.6 67.8679 40.3C67.1887 39.8 66.283 39.2 65.3774 38.5C64.5849 38 63.7925 37.4 63.2264 37C63.2264 37.2 63.1132 37.3 63 37.3C63.1132 37.3 63.3396 37.4 63.4528 37.5C63.6792 37.7 67.3019 40.1 68.0943 40.6Z" fill="url(#paint19_linear_1_568)"/>
<path d="M77.7755 45.0095C77.8878 44.8992 78 44.8992 78 44.789C78 44.6787 78 44.5685 77.8878 44.4582C77.102 42.3635 74.2959 37.1817 72.1633 34.4255C71.9388 34.205 71.8265 33.764 71.8265 33.5435C71.8265 33.2128 72.051 32.9923 72.1633 32.882C72.2755 32.7718 72.7245 32.441 73.1735 32C72.3878 32.5512 71.9388 32.9922 71.8265 33.2127C71.8265 33.323 71.7143 33.4332 71.7143 33.6537C71.7143 33.8742 71.8265 34.205 72.051 34.646C72.2755 34.8665 72.3878 35.087 72.6122 35.3075C75.1939 38.9457 76.9898 42.584 77.6633 44.2377C77.7755 44.6787 77.7755 44.789 77.6633 45.0095C77.6633 45.0095 76.3163 46.3325 76.2041 46.553C76.0918 46.6632 76.0918 46.7735 75.9796 46.7735C75.8673 46.8837 75.6429 46.8837 75.4184 46.8837C73.398 46.6632 71.2653 46.553 70.1429 46.553C68.7959 46.553 67.898 46.6632 67.449 46.6632C67.2245 46.6632 67 46.6632 67 46.553V46.994C67.7857 46.8837 69.0204 46.7735 70.2551 46.7735H71.4898C73.5102 46.8837 75.9796 46.994 75.9796 46.994C75.9796 47.1042 77.102 45.671 77.7755 45.0095Z" fill="url(#paint20_linear_1_568)"/>
<path d="M57 30C56.3592 29.5556 55.8252 29.1111 55.1845 28.7778C54.4369 28.3333 53.6893 28 53.4757 28H49.8447C48.7767 28 47.8155 28 47.3883 28.1111C46.6408 28.2222 46.2136 28.2222 46.1068 28.3333H46C46 28.3333 46 28.4444 46.1068 28.4444H46.2136C46.6408 28.3333 47.7087 28.2222 49.0971 28.2222H52.5146C53.1553 28.2222 54.1165 28.3333 54.7573 28.7778C55.3981 29 56.8932 30 57 30Z" fill="url(#paint21_linear_1_568)"/>
<path d="M49.8629 22.8755C48.9799 22.161 47.6555 21.4466 46.9933 21.3572C46.7726 21.3572 46.4415 21.2679 46.2207 21.2679C46 21.2679 46 21.0893 46 21C46 21 46 21.2679 46.1104 21.3572C46.2207 21.3572 46.7726 21.2679 47.214 21.4466C47.7659 21.7145 49.311 22.6076 49.5318 22.7862C49.8629 23.0541 50.194 23.0541 49.8629 22.8755Z" fill="url(#paint22_linear_1_568)"/>
<path d="M45.625 27.1192C45.875 27.1192 45.875 27.1192 46 27.2383C45.875 27.1192 45.75 27 45.5 27C45 27 43.875 27.5958 43.625 27.7149C43.375 27.8341 43.25 27.8341 43 27.7149C43.125 27.9533 43.25 28.0724 43.375 27.9533C43.5 27.8341 45 27.1192 45.625 27.1192Z" fill="url(#paint23_linear_1_568)"/>
<path d="M57.6471 11.0259C57.8824 11.0259 58 10.9224 58 11.1293V11.3363C58 11.3363 58 11.4398 57.8824 11.4398C57.6471 11.5432 56.4706 11.8537 56.2353 11.9571C56.1176 12.0606 56 11.9571 56 11.8537C56 11.7502 56 11.5432 56.1176 11.4398L56.3529 11.2328C56.3529 11.2328 57.4118 11.0259 57.6471 11.0259Z" fill="url(#paint24_linear_1_568)"/>
<path d="M57.7333 11C57.8667 11 58 11 58 11.1343V11.2687C58 11.2687 58 11.403 57.8667 11.403C57.7333 11.403 56.6667 11.806 56.4 11.9403C56.1333 12.0746 56 11.9403 56 11.9403V11.6716C56 11.5373 56.1333 11.5373 56.1333 11.5373C56.5333 11.2687 57.4667 11 57.7333 11Z" fill="#1C1C1B"/>
<path d="M62.4124 22.0319C62.5258 21.8064 63.5464 19.7775 63.7732 19.2139C63.8866 18.7631 64 18.4249 64 17.974C64 17.6359 63.8866 17.185 63.6598 16.7341C63.0928 15.607 61.5052 13.578 60.8247 12.789C60.2577 12.1127 59.8041 12 58.7835 12C56.2887 12.1127 54.2474 13.1272 53 13.578C53.9072 13.2399 55.9485 12.4509 58.2165 12.3382C59.4639 12.2254 60.0309 12.3382 60.4845 12.9017C61.1649 13.6908 62.7526 15.7197 63.3196 16.8469C63.5464 17.2977 63.6598 17.6359 63.6598 17.974C63.6598 18.4249 63.433 18.8758 63.3196 19.1012C63.0928 19.6648 62.1856 21.4683 62.0722 21.6937C61.3918 22.8209 60.8247 22.8209 60.1443 22.5955C60.1443 22.5955 60.4845 22.7082 60.7113 22.8209C61.3918 23.2718 61.9588 22.8209 62.4124 22.0319Z" fill="url(#paint25_linear_1_568)"/>
<path d="M59 31.2158C59 31.2158 58.8932 31.1079 58.6796 31C58.3592 31.4317 56.7573 33.3741 55.6893 35.1007C54.835 36.3957 53.6602 38.3381 53.5534 38.7698C53.3398 39.2014 53.3398 39.5252 53.3398 39.9568L53.4466 42.1151C53.4466 42.3309 53.4466 42.5468 53.233 42.7626C53.1262 42.9784 52.9126 42.9784 52.5922 43.0863C52.0583 43.1942 49.8155 43.518 49.1748 43.6259C48.534 43.7338 48.3204 44.0576 48.2136 44.4892C48.1068 44.8129 48 45.2446 48 45.4604V45.5683C48 45.7842 48.1068 45.7842 48.1068 45.7842C48.1068 45.7842 50.7767 45.5683 52.3786 45.6763C53.9806 45.7842 56.1165 46 56.1165 46C56.1165 46 53.8738 45.5683 52.2718 45.4604C50.6699 45.3525 48.6408 45.5683 48.6408 45.4604V45.1367C48.6408 45.0288 48.7476 44.9209 48.7476 44.705C48.8544 44.2734 49.068 43.9496 49.6019 43.8417C50.1359 43.7338 52.3786 43.3022 52.8058 43.1942C53.233 43.0863 53.4466 42.9784 53.5534 42.5468V42.0072C53.5534 41.5755 53.4466 40.3885 53.4466 40.2806C53.4466 39.5252 53.4466 39.2014 53.9806 38.3381C54.7282 37.0432 57.5049 32.8345 58.8932 31.3237C58.8932 31.3237 58.8932 31.2158 59 31.2158Z" fill="url(#paint26_linear_1_568)"/>
<path d="M25 56.3333V62.7778H26.7544V60.7778H28.2895C31.6886 60.7778 33.3333 59.6667 33.3333 58.4444C33.3333 57.1111 31.4693 56.3333 28.3991 56.3333H25ZM26.7544 60.1111V57.1111H28.1798C29.6053 57.1111 31.4693 57.3333 31.4693 58.5556C31.4693 59.3333 30.8114 60.1111 27.9605 60.1111H26.7544ZM43.3114 62.7778V62H39.0351C38.1579 62 37.8289 61.5556 37.8289 60.8889V60H42.8728V59.2222H37.8289V57.3333H43.0921V56.5556H36.0746V61.1111C36.0746 62.3333 36.6228 63 38.1579 63H43.3114V62.7778ZM54.4956 56.3333H52.7412V61.7778C52.3026 62 51.6447 62.1111 50.6579 62.1111C49.3421 62.1111 48.0263 61.7778 48.0263 60.5556V56.3333H46.2719V60.6667C46.2719 62.4444 48.0263 63 49.8904 63C51.7544 63 53.1798 62.6667 54.4956 62.1111V56.3333ZM59.3202 59.5556C59.3202 57.7778 60.8553 56.8889 62.6097 56.8889C64.1447 56.8889 65.2412 57.3333 66.3377 57.6667V56.5556C65.1316 56.2222 64.1447 56 62.6097 56C59.6491 56 57.3465 57.3333 57.3465 59.4444C57.3465 61.6667 59.7588 62.8889 62.6097 62.8889C64.0351 62.8889 65.5702 62.5556 66.557 62.3333V59.7778H64.8026V61.6667C64.1447 61.8889 63.7061 62 62.7193 62C60.8553 62.1111 59.3202 61.1111 59.3202 59.5556ZM76.9737 62.7778V62H72.6974C71.8202 62 71.4912 61.5556 71.4912 60.8889V60H76.5351V59.2222H71.4912V57.3333H76.7544V56.5556H69.7368V61.1111C69.7368 62.3333 70.1754 63 71.8202 63H76.9737V62.7778ZM84.6491 56.1111C81.6886 56.1111 79.386 57.4444 79.386 59.5556C79.386 61.7778 81.7983 62.8889 84.6491 62.8889C87.6097 62.8889 89.9123 61.6667 89.9123 59.5556C89.9123 57.5556 87.5 56.1111 84.6491 56.1111ZM84.6491 62.2222C82.6754 62.2222 81.3597 61.2222 81.3597 59.5556C81.3597 57.7778 82.8947 56.8889 84.6491 56.8889C86.5132 56.8889 87.9386 57.7778 87.9386 59.5556C87.9386 61.2222 86.6228 62.2222 84.6491 62.2222ZM91.3377 57.2222H94.8465V62.7778H96.6009V57.2222H100V56.3333H91.3377V57.2222Z" fill="#131E29"/>
<defs>
<linearGradient id="paint0_linear_1_568" x1="743.025" y1="182.661" x2="-226.522" y2="1124.87" gradientUnits="userSpaceOnUse">
<stop offset="0.203" stop-color="#BBB8B8"/>
<stop offset="0.205" stop-color="#B8B5B5"/>
<stop offset="0.241" stop-color="#84807F"/>
<stop offset="0.276" stop-color="#625E5D"/>
<stop offset="0.309" stop-color="#4D4948"/>
<stop offset="0.341" stop-color="#413E3D"/>
<stop offset="0.368" stop-color="#3D3A39"/>
<stop offset="0.451" stop-color="#423F3D"/>
<stop offset="0.56" stop-color="#504D4B"/>
<stop offset="0.685" stop-color="#6A6665"/>
<stop offset="0.813" stop-color="#938F8E"/>
<stop offset="1" stop-color="#1C1C1B"/>
</linearGradient>
<linearGradient id="paint1_linear_1_568" x1="507.98" y1="260.172" x2="637.251" y2="47.1005" gradientUnits="userSpaceOnUse">
<stop offset="0.031" stop-color="#959190"/>
<stop offset="0.2" stop-color="#959190"/>
<stop offset="0.99" stop-color="#4D4A48"/>
</linearGradient>
<linearGradient id="paint2_linear_1_568" x1="510.187" y1="163.923" x2="156.696" y2="141.418" gradientUnits="userSpaceOnUse">
<stop offset="0.197" stop-color="#3D3A39"/>
<stop offset="0.263" stop-color="#3E3C3A"/>
<stop offset="0.287" stop-color="#444140"/>
<stop offset="0.304" stop-color="#4E4B49"/>
<stop offset="0.318" stop-color="#5E5A58"/>
<stop offset="0.33" stop-color="#74706F"/>
<stop offset="0.34" stop-color="#938F8E"/>
<stop offset="0.35" stop-color="#BCB9B8"/>
<stop offset="0.358" stop-color="#F7F6F6"/>
<stop offset="0.359" stop-color="white"/>
<stop offset="0.824" stop-color="#3D3A39"/>
<stop offset="1" stop-color="#2D2C2A"/>
</linearGradient>
<linearGradient id="paint3_linear_1_568" x1="1229.26" y1="455.898" x2="1358.96" y2="252.784" gradientUnits="userSpaceOnUse">
<stop stop-color="#BBB8B8"/>
<stop offset="0.082" stop-color="#ADA9A9"/>
<stop offset="0.235" stop-color="#9B9796"/>
<stop offset="0.368" stop-color="#959190"/>
<stop offset="0.99" stop-color="#1C1C1B"/>
</linearGradient>
<linearGradient id="paint4_linear_1_568" x1="4001.88" y1="2889.79" x2="-921.113" y2="-435.812" gradientUnits="userSpaceOnUse">
<stop offset="0.077" stop-color="#736F6E"/>
<stop offset="0.121" stop-color="#7E7A79"/>
<stop offset="0.17" stop-color="#5F5B5A"/>
<stop offset="0.308" stop-color="#736F6E"/>
<stop offset="0.472" stop-color="#E8E6E6"/>
<stop offset="0.698" stop-color="#E8E6E6"/>
<stop offset="0.727" stop-color="#D0CDCD"/>
<stop offset="0.782" stop-color="#999595"/>
<stop offset="0.841" stop-color="#635F5E"/>
<stop offset="0.962" stop-color="#3D3A39"/>
</linearGradient>
<radialGradient id="paint5_radial_1_568" cx="0" cy="0" r="1" gradientUnits="userSpaceOnUse" gradientTransform="translate(414.278 651.238) scale(1257.32 1278.82)">
<stop offset="0.036" stop-color="white"/>
<stop offset="0.467" stop-color="white"/>
<stop offset="0.525" stop-color="#F3F2F2"/>
<stop offset="0.586" stop-color="#DDDBDA"/>
<stop offset="0.647" stop-color="#BEBBBA"/>
<stop offset="0.709" stop-color="#989493"/>
<stop offset="0.747" stop-color="#7E7A79"/>
<stop offset="0.846" stop-color="#5F5B5A"/>
<stop offset="1" stop-color="#3D3A39"/>
</radialGradient>
<radialGradient id="paint6_radial_1_568" cx="0" cy="0" r="1" gradientUnits="userSpaceOnUse" gradientTransform="translate(315.062 110.667) scale(426.643 456.752)">
<stop offset="0.036" stop-color="white"/>
<stop offset="0.228" stop-color="white"/>
<stop offset="0.307" stop-color="#E9E7E7"/>
<stop offset="0.44" stop-color="#C1BFBE"/>
<stop offset="0.609" stop-color="#8C8887"/>
<stop offset="0.805" stop-color="#514E4C"/>
<stop offset="1" stop-color="#1C1C1B"/>
</radialGradient>
<radialGradient id="paint7_radial_1_568" cx="0" cy="0" r="1" gradientUnits="userSpaceOnUse" gradientTransform="translate(233.033 -42.4254) scale(444.349 510.183)">
<stop offset="0.231" stop-color="white"/>
<stop offset="0.571" stop-color="#EBEAEA"/>
<stop offset="0.863" stop-color="#1C1C1B"/>
</radialGradient>
<radialGradient id="paint8_radial_1_568" cx="0" cy="0" r="1" gradientUnits="userSpaceOnUse" gradientTransform="translate(539.021 112.142) scale(1746.06 1873.27)">
<stop offset="0.036" stop-color="white"/>
<stop offset="0.253" stop-color="white"/>
<stop offset="0.273" stop-color="#F3F2F2"/>
<stop offset="0.295" stop-color="#DDDBDA"/>
<stop offset="0.317" stop-color="#BEBBBA"/>
<stop offset="0.338" stop-color="#989493"/>
<stop offset="0.346" stop-color="#898584"/>
<stop offset="0.412" stop-color="#5F5B5A"/>
<stop offset="0.472" stop-color="#3D3A39"/>
<stop offset="0.857" stop-color="#3D3A39"/>
</radialGradient>
<linearGradient id="paint9_linear_1_568" x1="936.827" y1="120.585" x2="142.187" y2="220.238" gradientUnits="userSpaceOnUse">
<stop stop-color="#E8E6E6"/>
<stop offset="0.03" stop-color="#DEDCDB"/>
<stop offset="0.258" stop-color="#A19E9D"/>
<stop offset="0.27" stop-color="#A7A3A3"/>
<stop offset="0.333" stop-color="#C2BFBE"/>
<stop offset="0.405" stop-color="#D7D5D4"/>
<stop offset="0.494" stop-color="#E4E2E2"/>
<stop offset="0.648" stop-color="#E8E6E6"/>
<stop offset="0.896" stop-color="white"/>
</linearGradient>
<linearGradient id="paint10_linear_1_568" x1="1384.71" y1="185.145" x2="4803.29" y2="2887.9" gradientUnits="userSpaceOnUse">
<stop stop-color="white"/>
<stop offset="0.069" stop-color="#CFCDCC"/>
<stop offset="0.157" stop-color="white"/>
<stop offset="0.203" stop-color="white"/>
<stop offset="0.266" stop-color="#D5D3D3"/>
<stop offset="0.33" stop-color="#BBB8B8"/>
<stop offset="0.352" stop-color="#CFCDCC"/>
<stop offset="0.388" stop-color="#E6E4E4"/>
<stop offset="0.431" stop-color="#F7F6F6"/>
<stop offset="0.502" stop-color="white"/>
<stop offset="0.885" stop-color="white"/>
<stop offset="0.98" stop-color="#9F9B9A"/>
</linearGradient>
<linearGradient id="paint11_linear_1_568" x1="175.22" y1="201.25" x2="3976.17" y2="2562.7" gradientUnits="userSpaceOnUse">
<stop stop-color="#C9C7C6"/>
<stop offset="0.093" stop-color="#9B9796"/>
<stop offset="0.219" stop-color="#6D6968"/>
<stop offset="0.335" stop-color="#514E4C"/>
<stop offset="0.434" stop-color="#423F3E"/>
<stop offset="0.507" stop-color="#3D3A39"/>
<stop offset="0.583" stop-color="#413E3D"/>
<stop offset="0.674" stop-color="#4D4A48"/>
<stop offset="0.772" stop-color="#635F5E"/>
<stop offset="0.876" stop-color="#878382"/>
<stop offset="0.982" stop-color="#BEBBBA"/>
<stop offset="1" stop-color="#C9C7C6"/>
</linearGradient>
<linearGradient id="paint12_linear_1_568" x1="1415.44" y1="73.2034" x2="203.791" y2="1273.48" gradientUnits="userSpaceOnUse">
<stop stop-color="#AEAAAA"/>
<stop offset="0.1" stop-color="white"/>
<stop offset="0.349" stop-color="#E1E0DF"/>
<stop offset="0.398" stop-color="#E9E8E7"/>
<stop offset="0.538" stop-color="white"/>
<stop offset="0.555" stop-color="#D1CFCE"/>
<stop offset="0.595" stop-color="#8A8685"/>
<stop offset="0.632" stop-color="#5C5957"/>
<stop offset="0.666" stop-color="#423F3D"/>
<stop offset="0.694" stop-color="#32312F"/>
<stop offset="0.714" stop-color="#2D2C2A"/>
<stop offset="0.726" stop-color="#454241"/>
<stop offset="0.745" stop-color="#6F6B69"/>
<stop offset="0.764" stop-color="#999594"/>
<stop offset="0.784" stop-color="#BFBCBB"/>
<stop offset="0.803" stop-color="#DDDBDB"/>
<stop offset="0.823" stop-color="#F3F2F2"/>
<stop offset="0.841" stop-color="white"/>
<stop offset="0.851" stop-color="#F2F1F1"/>
<stop offset="0.863" stop-color="#DAD8D8"/>
<stop offset="0.875" stop-color="#B9B6B5"/>
<stop offset="0.887" stop-color="#918D8C"/>
<stop offset="0.899" stop-color="#64615F"/>
<stop offset="0.91" stop-color="#3F3C3A"/>
<stop offset="0.945" stop-color="#3F3C3A"/>
<stop offset="1" stop-color="#696564"/>
</linearGradient>
<linearGradient id="paint13_linear_1_568" x1="417.684" y1="449.743" x2="657.637" y2="542.083" gradientUnits="userSpaceOnUse">
<stop offset="0.2" stop-color="white"/>
<stop offset="0.33" stop-color="#F7F6F6"/>
<stop offset="0.407" stop-color="#E6E5E4"/>
<stop offset="0.47" stop-color="#D0CECD"/>
<stop offset="0.521" stop-color="#B6B3B2"/>
<stop offset="0.835" stop-color="#3D3A39"/>
<stop offset="0.964" stop-color="#312F2E"/>
<stop offset="1" stop-color="#2D2C2A"/>
</linearGradient>
<linearGradient id="paint14_linear_1_568" x1="2043.57" y1="1268.41" x2="2417.47" y2="979.944" gradientUnits="userSpaceOnUse">
<stop offset="0.022" stop-color="white"/>
<stop offset="0.183" stop-color="white"/>
<stop offset="0.209" stop-color="white"/>
<stop offset="0.323" stop-color="#ECEAEA"/>
<stop offset="0.498" stop-color="#CAC7C6"/>
<stop offset="0.5" stop-color="#C9C7C6"/>
<stop offset="0.51" stop-color="#C7C4C4"/>
<stop offset="0.797" stop-color="#908D8C"/>
<stop offset="0.945" stop-color="#7E7A79"/>
<stop offset="1" stop-color="#777372"/>
</linearGradient>
<linearGradient id="paint15_linear_1_568" x1="132.493" y1="38.3229" x2="639.342" y2="347.723" gradientUnits="userSpaceOnUse">
<stop stop-color="#1C1C1B"/>
<stop offset="0.047" stop-color="#1F1E1D"/>
<stop offset="0.074" stop-color="#262523"/>
<stop offset="0.096" stop-color="#312F2E"/>
<stop offset="0.115" stop-color="#413F3D"/>
<stop offset="0.133" stop-color="#585452"/>
<stop offset="0.149" stop-color="#777372"/>
<stop offset="0.164" stop-color="#A4A1A0"/>
<stop offset="0.178" stop-color="#E1DFDF"/>
<stop offset="0.179" stop-color="#E8E6E6"/>
<stop offset="0.202" stop-color="#CCCAC9"/>
<stop offset="0.262" stop-color="#94908F"/>
<stop offset="0.324" stop-color="#6C6867"/>
<stop offset="0.386" stop-color="#524F4D"/>
<stop offset="0.449" stop-color="#423F3D"/>
<stop offset="0.513" stop-color="#383634"/>
<stop offset="0.579" stop-color="#353331"/>
<stop offset="0.74" stop-color="#2F2E2C"/>
<stop offset="0.977" stop-color="#1F1E1D"/>
<stop offset="1" stop-color="#1C1C1B"/>
</linearGradient>
<linearGradient id="paint16_linear_1_568" x1="353.15" y1="483.835" x2="697.119" y2="318.37" gradientUnits="userSpaceOnUse">
<stop stop-color="#1C1C1B"/>
<stop offset="0.047" stop-color="#1F1E1D"/>
<stop offset="0.074" stop-color="#262523"/>
<stop offset="0.096" stop-color="#312F2E"/>
<stop offset="0.115" stop-color="#413F3D"/>
<stop offset="0.133" stop-color="#585452"/>
<stop offset="0.149" stop-color="#777372"/>
<stop offset="0.164" stop-color="#A4A1A0"/>
<stop offset="0.178" stop-color="#E1DFDF"/>
<stop offset="0.179" stop-color="#E8E6E6"/>
<stop offset="0.202" stop-color="#CCCAC9"/>
<stop offset="0.262" stop-color="#94908F"/>
<stop offset="0.324" stop-color="#6C6867"/>
<stop offset="0.386" stop-color="#524F4D"/>
<stop offset="0.449" stop-color="#423F3D"/>
<stop offset="0.513" stop-color="#383634"/>
<stop offset="0.579" stop-color="#353331"/>
<stop offset="0.74" stop-color="#2F2E2C"/>
<stop offset="0.977" stop-color="#1F1E1D"/>
<stop offset="1" stop-color="#1C1C1B"/>
</linearGradient>
<linearGradient id="paint17_linear_1_568" x1="65.7806" y1="161.171" x2="927.034" y2="161.171" gradientUnits="userSpaceOnUse">
<stop stop-color="#4D4A48"/>
<stop offset="0.286" stop-color="#BBB8B8"/>
<stop offset="0.322" stop-color="#9C9897"/>
<stop offset="0.38" stop-color="#767271"/>
<stop offset="0.435" stop-color="#5E5B59"/>
<stop offset="0.488" stop-color="#524E4D"/>
<stop offset="0.533" stop-color="#4D4A48"/>
<stop offset="0.758" stop-color="#2D2C2A"/>
<stop offset="1" stop-color="#1C1C1B"/>
</linearGradient>
<linearGradient id="paint18_linear_1_568" x1="27.3833" y1="385.779" x2="1923.54" y2="385.779" gradientUnits="userSpaceOnUse">
<stop stop-color="#1C1C1B"/>
<stop offset="0.056" stop-color="#1F1E1D"/>
<stop offset="0.087" stop-color="#262523"/>
<stop offset="0.113" stop-color="#312F2E"/>
<stop offset="0.136" stop-color="#413F3D"/>
<stop offset="0.156" stop-color="#585452"/>
<stop offset="0.175" stop-color="#777371"/>
<stop offset="0.179" stop-color="#807C7B"/>
<stop offset="0.227" stop-color="#6C6867"/>
<stop offset="0.313" stop-color="#524F4D"/>
<stop offset="0.399" stop-color="#413F3D"/>
<stop offset="0.487" stop-color="#383634"/>
<stop offset="0.579" stop-color="#353331"/>
<stop offset="0.74" stop-color="#2F2E2C"/>
<stop offset="0.977" stop-color="#1F1E1D"/>
<stop offset="1" stop-color="#1C1C1B"/>
</linearGradient>
<linearGradient id="paint19_linear_1_568" x1="53.6862" y1="228.951" x2="925.137" y2="228.951" gradientUnits="userSpaceOnUse">
<stop stop-color="#1C1C1B"/>
<stop offset="0.056" stop-color="#1F1E1D"/>
<stop offset="0.087" stop-color="#262523"/>
<stop offset="0.113" stop-color="#312F2E"/>
<stop offset="0.136" stop-color="#413F3D"/>
<stop offset="0.156" stop-color="#585452"/>
<stop offset="0.175" stop-color="#777371"/>
<stop offset="0.179" stop-color="#807C7B"/>
<stop offset="0.227" stop-color="#6C6867"/>
<stop offset="0.313" stop-color="#524F4D"/>
<stop offset="0.399" stop-color="#413F3D"/>
<stop offset="0.487" stop-color="#383634"/>
<stop offset="0.579" stop-color="#353331"/>
<stop offset="0.74" stop-color="#2F2E2C"/>
<stop offset="0.977" stop-color="#1F1E1D"/>
<stop offset="1" stop-color="#1C1C1B"/>
</linearGradient>
<linearGradient id="paint20_linear_1_568" x1="68.9696" y1="759.761" x2="1656.05" y2="759.761" gradientUnits="userSpaceOnUse">
<stop stop-color="#1C1C1B"/>
<stop offset="0.056" stop-color="#1F1E1D"/>
<stop offset="0.087" stop-color="#262523"/>
<stop offset="0.113" stop-color="#312F2E"/>
<stop offset="0.136" stop-color="#413F3D"/>
<stop offset="0.156" stop-color="#585452"/>
<stop offset="0.175" stop-color="#777371"/>
<stop offset="0.179" stop-color="#807C7B"/>
<stop offset="0.227" stop-color="#6C6867"/>
<stop offset="0.313" stop-color="#524F4D"/>
<stop offset="0.399" stop-color="#413F3D"/>
<stop offset="0.487" stop-color="#383634"/>
<stop offset="0.579" stop-color="#353331"/>
<stop offset="0.74" stop-color="#2F2E2C"/>
<stop offset="0.977" stop-color="#1F1E1D"/>
<stop offset="1" stop-color="#1C1C1B"/>
</linearGradient>
<linearGradient id="paint21_linear_1_568" x1="54.212" y1="117.457" x2="1628.24" y2="117.457" gradientUnits="userSpaceOnUse">
<stop stop-color="#5F5B5A"/>
<stop offset="0.062" stop-color="#625E5C"/>
<stop offset="0.097" stop-color="#6A6664"/>
<stop offset="0.126" stop-color="#797473"/>
<stop offset="0.15" stop-color="#8F8C8B"/>
<stop offset="0.173" stop-color="#B0ACAB"/>
<stop offset="0.179" stop-color="#BBB8B8"/>
<stop offset="0.225" stop-color="#A4A0A0"/>
<stop offset="0.349" stop-color="#726E6D"/>
<stop offset="0.476" stop-color="#504D4B"/>
<stop offset="0.603" stop-color="#393735"/>
<stop offset="0.732" stop-color="#2A2827"/>
<stop offset="0.864" stop-color="#201F1E"/>
<stop offset="1" stop-color="#1C1C1B"/>
</linearGradient>
<linearGradient id="paint22_linear_1_568" x1="42.5575" y1="117.984" x2="621.457" y2="117.984" gradientUnits="userSpaceOnUse">
<stop stop-color="#353331"/>
<stop offset="0.053" stop-color="#373533"/>
<stop offset="0.083" stop-color="#3E3B39"/>
<stop offset="0.108" stop-color="#494645"/>
<stop offset="0.13" stop-color="#5B5756"/>
<stop offset="0.149" stop-color="#757170"/>
<stop offset="0.167" stop-color="#999595"/>
<stop offset="0.179" stop-color="#BBB8B8"/>
<stop offset="0.225" stop-color="#A4A0A0"/>
<stop offset="0.349" stop-color="#726E6D"/>
<stop offset="0.476" stop-color="#504D4B"/>
<stop offset="0.603" stop-color="#393735"/>
<stop offset="0.732" stop-color="#2A2827"/>
<stop offset="0.864" stop-color="#201F1E"/>
<stop offset="1" stop-color="#1C1C1B"/>
</linearGradient>
<linearGradient id="paint23_linear_1_568" x1="56.5938" y1="65.3823" x2="488.113" y2="65.3823" gradientUnits="userSpaceOnUse">
<stop stop-color="#5F5B5A"/>
<stop offset="0.067" stop-color="#625E5C"/>
<stop offset="0.106" stop-color="#6A6664"/>
<stop offset="0.137" stop-color="#797473"/>
<stop offset="0.164" stop-color="#8F8B8A"/>
<stop offset="0.179" stop-color="#A19E9D"/>
<stop offset="0.222" stop-color="#93908F"/>
<stop offset="0.372" stop-color="#6C6867"/>
<stop offset="0.525" stop-color="#524F4D"/>
<stop offset="0.679" stop-color="#413F3D"/>
<stop offset="0.836" stop-color="#383634"/>
<stop offset="1" stop-color="#353331"/>
</linearGradient>
<linearGradient id="paint24_linear_1_568" x1="182.954" y1="47.3509" x2="202.38" y2="81.203" gradientUnits="userSpaceOnUse">
<stop stop-color="white"/>
<stop offset="0.115" stop-color="#DEDCDC"/>
<stop offset="0.907" stop-color="#454240"/>
</linearGradient>
<linearGradient id="paint25_linear_1_568" x1="62.991" y1="553.432" x2="1644.56" y2="553.432" gradientUnits="userSpaceOnUse">
<stop offset="0.687" stop-color="white"/>
<stop offset="0.721" stop-color="#F0EFEF"/>
<stop offset="0.763" stop-color="#D6D4D4"/>
<stop offset="0.81" stop-color="#B2AEAD"/>
<stop offset="0.86" stop-color="#858180"/>
<stop offset="0.913" stop-color="#565251"/>
<stop offset="0.968" stop-color="#282726"/>
<stop offset="0.98" stop-color="#1C1C1B"/>
</linearGradient>
<linearGradient id="paint26_linear_1_568" x1="747.15" y1="1326.46" x2="1271.16" y2="91.936" gradientUnits="userSpaceOnUse">
<stop stop-color="#D8D6D5"/>
<stop offset="0.066" stop-color="#454240"/>
<stop offset="0.235" stop-color="#625E5C"/>
<stop offset="0.352" stop-color="#736F6E"/>
<stop offset="0.462" stop-color="#858180"/>
<stop offset="0.604" stop-color="#9A9695"/>
<stop offset="0.675" stop-color="#888483"/>
<stop offset="0.859" stop-color="#625F5D"/>
<stop offset="0.959" stop-color="#565351"/>
<stop offset="1" stop-color="#959190"/>
</linearGradient>
</defs>
</svg>
