<svg width="121" height="72" viewBox="0 0 121 72" fill="none" xmlns="http://www.w3.org/2000/svg">
<rect width="121" height="72" rx="12" fill="white"/>
<path d="M84.3703 60.939V60.317H36.0283V60.939H84.3703ZM34.2795 48.7803H29.582V49.519H30.1756C30.3286 49.519 30.5656 49.7616 30.5656 49.9146V51.7006H33.449V49.5183H34.2795V48.7803ZM48.1923 58.4989V55.5745H46.6343V56.8262C46.6343 57.2568 46.43 57.7608 46.0582 57.7608H44.3627C44.2097 57.7608 43.9819 57.548 43.9819 57.3956V54.1236C43.9819 53.9702 44.0989 53.8513 44.252 53.8513H44.7328C44.8859 53.8513 45.1195 54.0965 45.1195 54.2495V54.8705H46.5556V51.9363H45.1533V52.5441C45.1533 52.6971 44.8984 52.9698 44.7454 52.9698H44.2523C44.0993 52.9698 43.9823 52.7959 43.9823 52.6423V49.8392C43.9823 49.6862 44.21 49.5196 44.363 49.5196H46.0139C46.2277 49.5196 46.4161 49.7143 46.4161 49.9285V51.271H47.8644V48.7803H40.1117V49.519H40.7053C40.8583 49.519 41.0949 49.7616 41.0949 49.9146V57.4181C41.0949 57.5711 40.8672 57.7608 40.7142 57.7608H40.1213V58.4982L48.1923 58.4989ZM51.0753 52.5068L54.2931 58.4989H57.1332V49.8868C57.1332 49.7338 57.3609 49.519 57.5139 49.519H58.1072V48.7803H54.9217V49.519H55.518C55.671 49.519 55.8991 49.7328 55.8991 49.8855V54.9443L52.4429 48.7803H48.8576V49.519H49.4508C49.6042 49.519 49.8412 49.75 49.8412 49.903V57.4065C49.8412 57.5602 49.6131 57.7608 49.4604 57.7608H48.8672V58.4982H52.0526V57.7608H51.4567C51.3033 57.7608 51.0756 57.5612 51.0756 57.4085L51.0753 52.5068ZM60.3398 52.2979L58.7563 57.4409C58.6975 57.5992 58.6049 57.7618 58.4519 57.7618H57.8339V58.4992H60.8002L60.7939 57.7618H60.2016C60.0486 57.7618 59.8876 57.5959 59.9316 57.4429L60.5599 55.1515C60.5744 55.0917 60.6134 55.0388 60.6749 55.0388H61.8803V54.1441L61.012 54.1447C60.9502 54.1447 60.8772 54.0843 60.896 54.0235L61.3838 52.2979H60.3398Z" fill="black"/>
<path d="M61.8813 55.0381H62.9981C63.0596 55.0381 63.1131 55.091 63.1273 55.1511L63.756 57.4426C63.8006 57.5956 63.639 57.7615 63.4863 57.7615H62.893L62.887 58.4989H67.7511V57.7615H67.1334C66.9804 57.7615 66.8875 57.5992 66.8287 57.4406L64.2815 48.7803H59.9961V49.519H60.4809C60.9278 49.5206 61.099 49.8442 61.0104 50.1638L60.3402 52.2972H61.3842L61.8569 50.6632L62.816 54.0218C62.8355 54.0833 62.7489 54.1441 62.6874 54.1441H61.8807V55.0381H61.8813ZM75.056 56.2359L75.0567 49.9185C75.0567 49.7652 75.292 49.5196 75.445 49.5196H76.0356V48.7809H73.0779V49.5196H73.6712C73.8242 49.5196 74.0592 49.7708 74.0592 49.9238L74.0585 56.2699C74.039 58.0114 70.9085 58.1938 70.889 56.1989V49.9109C70.889 49.7576 71.124 49.5196 71.277 49.5196H71.8676V48.7809H67.027V49.5196H67.6209C67.7739 49.5196 68.0089 49.7619 68.0089 49.9156V56.2656C68.0086 59.3952 75.056 59.5614 75.056 56.2359ZM80.5907 49.9066C80.5907 49.7533 80.8293 49.519 80.983 49.519H81.5776V48.7803H76.7228V49.519H77.3167C77.4697 49.519 77.7067 49.75 77.7067 49.903V57.4065C77.7067 57.5596 77.4793 57.7608 77.3263 57.7608H76.8434V58.4982H84.3694V55.5626H82.8107V56.8143C82.8107 57.2449 82.6071 57.7602 82.2353 57.7602H80.9708C80.8171 57.7602 80.59 57.5361 80.59 57.3827L80.5907 49.9066Z" fill="black"/>
<path d="M87.3878 58.4988H89.811V57.7614H89.2178C89.0648 57.7614 88.8298 57.5456 88.8298 57.3926V49.6842C88.8298 49.5923 88.9021 49.5206 88.9944 49.5206C89.7006 49.5477 90.005 49.777 90.005 50.7421V51.6424H91.4137V48.7802H83.3628V51.6424H84.7718V50.7421C84.7718 49.777 85.0758 49.5477 85.7815 49.5206C85.8737 49.5206 85.9467 49.5923 85.9467 49.6842V57.3916C85.9467 57.5453 85.7117 57.7608 85.5587 57.7608H84.9655V58.4981L87.3878 58.4988ZM33.7493 53.7864C33.8679 53.7864 34.0309 53.9057 34.0983 54.0303L34.1079 54.0393L36.0714 58.4981H39.4373V57.7608H39.201C38.9987 57.7608 38.8969 57.5063 38.7743 57.2948L36.7325 53.6962C37.9788 53.6962 38.6038 52.7146 38.6187 51.4074C38.6038 50.0874 38.0152 48.7796 36.4776 48.7796H34.2771V49.5179H34.5415C35.8956 49.5179 35.9154 53.0405 34.5415 53.0405H33.4465V51.6999H30.5632V57.421C30.5632 57.574 30.3358 57.7601 30.1828 57.7601H29.5898V58.4975H34.4248V57.7601H33.8276C33.6746 57.7601 33.4469 57.5605 33.4469 57.4075L33.4498 53.7861H33.781H33.7493V53.7864ZM60.6949 36.2695L57.7339 41.3993C57.6374 41.5646 57.3895 41.4238 57.453 41.2526L59.9179 35.5933L55.0082 27.09L48.2804 27.0916C48.289 27.1802 48.3491 27.2972 48.3624 27.3296L56.9979 42.2877C57.0504 42.3664 57.1522 42.4748 57.2851 42.4761H63.6867C63.8166 42.4748 63.9197 42.3895 63.9541 42.334L72.5995 27.3491C72.6273 27.3051 72.6861 27.1726 72.7588 26.9951H66.0538L60.5006 36.6046L60.6949 36.2695Z" fill="black"/>
<path d="M65.0912 27.032H72.6922C72.7482 27.0323 72.8022 27.011 72.8429 26.9724C72.8835 26.9338 72.9077 26.8811 72.9104 26.8251C72.9196 26.6341 72.876 26.4222 72.7821 26.255L64.1291 11.2849C64.0316 11.123 63.8604 11.0539 63.6789 11.0622H57.3295C57.1517 11.0576 56.9587 11.1329 56.8543 11.2833L56.844 11.2992L48.2359 26.2556C48.1322 26.441 48.069 26.6883 48.0552 26.8995C48.0514 26.9572 48.0706 27.0141 48.1087 27.0576C48.1469 27.1011 48.2007 27.1277 48.2584 27.1315L48.2726 27.1318H55.9295L60.3154 34.6899C60.3346 34.7229 60.3622 34.7503 60.3953 34.7693C60.4285 34.7884 60.466 34.7983 60.5043 34.7983C60.5425 34.7982 60.58 34.7881 60.6131 34.769C60.6462 34.7498 60.6737 34.7223 60.6928 34.6892L65.0763 27.0611C65.0822 27.0519 65.0872 27.0421 65.0912 27.032ZM64.6853 26.8661L60.5031 34.1439L56.296 26.8935L60.5037 19.6061L64.6853 26.8661ZM55.9067 26.6952H48.5294C48.5519 26.6129 48.578 26.5452 48.617 26.4688L57.2139 11.5312L57.2618 11.5044C57.28 11.4965 57.3044 11.4981 57.3226 11.4981C57.3537 11.4988 63.7031 11.4981 63.7166 11.4968C63.724 11.4956 63.7315 11.4965 63.7384 11.4992C63.7453 11.5019 63.7514 11.5065 63.7559 11.5123L72.4007 26.4691C72.4225 26.5114 72.4381 26.5491 72.4503 26.5951H65.0327L60.6928 19.0605C60.6736 19.0273 60.6461 18.9998 60.6129 18.9806C60.5798 18.9615 60.5421 18.9514 60.5038 18.9513C60.4655 18.9513 60.4279 18.9613 60.3947 18.9804C60.3615 18.9995 60.3339 19.027 60.3147 19.0601L55.9067 26.6952Z" fill="black"/>
<path d="M54.9442 26.7232H56.1129L60.5007 19.1698L64.8122 26.6628L65.9961 26.6634L61.0675 18.128L63.5612 12.4612C63.627 12.3088 63.3616 12.1855 63.274 12.3359L54.9442 26.7232ZM56.837 42.3642C56.9349 42.5361 57.0935 42.6395 57.2898 42.661L57.3017 42.6623H63.7222C63.8934 42.6564 64.0722 42.5671 64.1664 42.421L72.828 27.4074C72.863 27.33 72.8829 27.068 72.8938 26.9414L72.4595 26.9034L72.4363 27.1638L72.4268 27.2296L63.8012 42.1811C63.7903 42.1944 63.7767 42.2053 63.7614 42.213C63.746 42.2207 63.7291 42.225 63.7119 42.2257H57.3278C57.2825 42.2221 57.2373 42.1847 57.2158 42.1474L48.5866 27.1998C48.5619 27.1455 48.5413 27.0895 48.5247 27.0323C48.5177 26.9748 48.4882 26.9225 48.4426 26.8868C48.397 26.8511 48.3391 26.835 48.2817 26.8421C48.2242 26.8491 48.1719 26.8786 48.1362 26.9242C48.1005 26.9698 48.0844 27.0277 48.0915 27.0851C48.0974 27.1331 48.1103 27.1896 48.1275 27.2345L48.1939 27.3932L56.837 42.3642Z" fill="black"/>
</svg>
