<svg width="121" height="72" viewBox="0 0 121 72" fill="none" xmlns="http://www.w3.org/2000/svg">
<rect width="121" height="72" rx="12" fill="white"/>
<g clip-path="url(#clip0_1_637)">
<path fill-rule="evenodd" clip-rule="evenodd" d="M25 0H96V72H25V0Z" fill="white"/>
<path fill-rule="evenodd" clip-rule="evenodd" d="M85.623 28.4998C85.623 28.115 85.6412 27.6561 85.6412 27.6561C89.6503 26.7059 92 25.2065 92 23.7978C92 22.2055 89.056 21.0134 84.0872 20.0403C80.6275 10.678 71.5896 4 60.9857 4C47.3948 4 36.3774 14.9689 36.3774 28.4994C36.3774 28.8846 36.3596 29.3432 36.3596 29.3432C32.3497 30.2941 30 31.7931 30 33.2022C30 34.7945 32.944 35.9866 37.9132 36.9601C41.3732 46.3224 50.4108 53 61.015 53C74.6055 52.9996 85.623 42.0307 85.623 28.4998Z" fill="black"/>
<path fill-rule="evenodd" clip-rule="evenodd" d="M83 19.4386L81.8549 19.6866L81.2913 19.3819C77.9721 11.2791 70.0297 5.57493 60.7603 5.57493C48.5048 5.57493 38.5696 15.5469 38.5696 27.8472C38.5696 27.963 38.5794 28.1101 38.5926 28.2546C38.3614 28.2531 37.8712 28.669 37.4975 28.762C37.3046 28.8098 37.187 28.5275 37.0592 28.5704C37.0332 28.3748 37 28.0768 37 27.8468C37 14.6769 47.6377 4 60.7596 4C70.9319 4.00037 79.6121 10.4177 83 19.4386ZM82.8696 27.5209C82.8696 39.8757 72.9909 50 60.8045 50C51.6651 50 43.8239 44.3657 40.4741 36.3364L41.7901 36.5317C45.1078 43.8119 52.3738 48.8634 60.803 48.8634C72.3638 48.8634 81.7369 39.3612 81.7369 27.64L82.8696 27.5209Z" fill="white"/>
<path fill-rule="evenodd" clip-rule="evenodd" d="M82 28C82 39.659 72.775 49 61.3954 49C53.3589 49 46.397 44.2859 43 37.4096L43.1118 37.4027C46.3845 37.7926 50.1083 38.0132 54.0587 38.0132C67.1064 38.0132 77.4653 35.6582 77.4653 32.2462C77.4653 30.1984 75.8537 29.1474 74.017 28.6977C76.4273 28.6981 79.8885 28.3788 82 28Z" fill="white"/>
<path fill-rule="evenodd" clip-rule="evenodd" d="M41 31.149C43.8622 30.5111 47.8174 30.0003 52.1869 30.0003C60.92 30.0003 68 29.9024 68 33.057C68 34.6822 60.92 36 52.1869 36C48.2872 36 44.7174 35.7375 41.9597 35.3019C41.6443 34.5338 41.1221 32.5297 41 31.149Z" fill="white"/>
<path fill-rule="evenodd" clip-rule="evenodd" d="M71.1548 32.6961C71.1548 34.1734 69.1979 37 53.2244 37C37.251 37 33.0839 34.623 33.0839 33.3385H34.3468C34.3468 33.8454 36.2523 34.8821 37.9139 35.0889C38.0719 35.2094 39.0317 35.6375 39.8864 35.8153L41.2222 35.7603C45.263 36.2291 48.0473 36.248 53.2248 36.248C58.4016 36.248 68.314 35.7795 68.314 32.7601L71.1548 32.6961ZM50.8244 28.2479C45.7879 28.3846 41.9906 28.8022 39.142 29.3415C38.7104 29.4228 38.4095 29.6902 38.0209 29.7768L36.9619 29.8201C32.1363 31.0463 31 32.5993 31 33.0813L32.894 33.1265C32.894 30.6166 41.2911 28.9318 54.4233 28.9318C67.5556 28.9318 71.2174 30.7047 71.2174 32.4389H76.9631C76.9631 31.3848 76.1388 30.1105 71.4176 29.2357C66.2057 29.4854 54.4455 28.9548 50.8244 28.2479ZM88 24.1236C88 24.1236 87.3841 25.2319 85.8321 25.5735C85.7395 24.5702 85.4901 23.4977 85.2117 22.76C86.1367 22.9129 87.4344 23.4627 88 24.1236ZM40.6437 28.7533C40.6437 17.2315 49.9006 8 61.3187 8C69.3822 8 76.3679 12.6587 79.7766 19.4544L79.6644 19.4616C76.3809 19.076 72.6439 18.8575 68.6793 18.8575C55.5874 18.8575 45.1931 21.1848 45.1931 24.5571C45.1931 26.5804 46.8102 27.6194 48.6532 28.0634C46.6581 28.0638 42.4281 28.4373 40.6437 28.7533Z" fill="white"/>
<path fill-rule="evenodd" clip-rule="evenodd" d="M82 25.8514C79.1378 26.4893 75.1821 26.9997 70.8129 26.9997C62.0797 26.9997 55 27.0976 55 23.943C55 22.3178 62.0797 21 70.8129 21C74.7131 21 78.2826 21.2625 81.0403 21.6981C81.3557 22.4666 81.8779 24.4707 82 25.8514Z" fill="white"/>
<path fill-rule="evenodd" clip-rule="evenodd" d="M50.8133 24.4016C50.8133 22.8904 52.7721 20 68.7587 20C84.7444 20 88.9148 22.4309 88.9148 23.7446H87.6509C87.6509 23.2262 85.7446 22.1663 84.081 21.9545C83.9224 21.8317 82.9623 21.3934 82.1073 21.212C82.1073 21.212 81.4802 20.6563 80.4478 21.2682C76.4041 20.7887 73.9399 20.7691 68.7587 20.7691C63.2903 20.7691 53.1007 21.492 53.6563 24.3365L50.8133 24.4016ZM89.1045 23.9614C89.1045 26.5279 80.7 28.4747 67.5577 28.4747C54.415 28.4747 50.7499 26.4381 50.7499 24.6643H45C45 27.4372 51.2996 29 67.4947 29C74.4078 29 79.3472 28.5105 82.8512 27.8327C83.5809 27.681 84.3084 27.5178 85.0334 27.3432C89.8628 26.0892 91 24.501 91 24.008L89.1045 23.9614Z" fill="white"/>
<path fill-rule="evenodd" clip-rule="evenodd" d="M80.9752 21.1575C81.3547 22.0009 81.9244 25.1804 81.9244 25.6993L83 26.05C83 24.752 82.3669 21.9358 82.1139 21.2222C81.957 21.0202 81.1332 20.8749 80.9752 21.1575ZM34 32.6589C34 32.6589 34.6168 31.5394 36.1724 31.1947C36.2648 32.2078 36.5147 33.2916 36.7933 34.036C35.8668 33.882 34.566 33.3266 34 32.6589ZM37.6134 34.4347C37.2269 33.5833 36.7792 31.7109 36.8167 30.8885C37.2143 30.6633 37.7013 30.5176 38.2524 30.3103C38.4134 31.6855 38.7454 33.5833 39.1793 35C38.6443 34.8519 38.1209 34.6629 37.6134 34.4347Z" fill="white"/>
<path fill-rule="evenodd" clip-rule="evenodd" d="M28 62.9509H29.6451C29.6972 63.3287 29.7997 63.6105 29.9532 63.7972C30.2332 64.1372 30.7125 64.3072 31.3915 64.3072C31.7984 64.3072 32.1283 64.2623 32.382 64.1727C32.8632 64.0005 33.1039 63.6816 33.1039 63.2142C33.1039 62.9416 32.9845 62.7302 32.7459 62.5813C32.507 62.435 32.132 62.3065 31.6208 62.1943L30.748 61.9984C29.8899 61.8039 29.2967 61.5932 28.9683 61.3654C28.4124 60.9843 28.1343 60.388 28.1343 59.5773C28.1343 58.8381 28.4028 58.2233 28.9402 57.7333C29.4772 57.2444 30.2661 57 31.3072 57C32.1763 57 32.9179 57.2307 33.5318 57.6915C34.1458 58.1529 34.4672 58.8229 34.4972 59.701H32.8406C32.8106 59.204 32.5943 58.8511 32.1911 58.6422C31.9226 58.504 31.589 58.4344 31.1896 58.4344C30.7458 58.4344 30.3911 58.524 30.1263 58.7036C29.8615 58.8829 29.729 59.1333 29.729 59.4544C29.729 59.7495 29.8596 59.9695 30.1207 60.1155C30.2886 60.2125 30.6466 60.3266 31.1955 60.4577L32.6168 60.7991C33.2397 60.9488 33.7101 61.1484 34.0271 61.3987C34.5197 61.7872 34.766 62.3498 34.766 63.0857C34.766 63.8401 34.4779 64.4672 33.9013 64.9657C33.3247 65.4649 32.5107 65.7138 31.4588 65.7138C30.3844 65.7138 29.5393 65.4686 28.9239 64.9775C28.3077 64.4853 28 63.8105 28 62.9509ZM35.5379 63.5509H37.1553C37.1889 63.8353 37.2614 64.0368 37.3735 64.1564C37.5713 64.369 37.9368 64.4753 38.4704 64.4753C38.7837 64.4753 39.033 64.429 39.2175 64.3357C39.4025 64.2416 39.4949 64.102 39.4949 63.9153C39.4949 63.7361 39.4202 63.599 39.2712 63.5061C39.1218 63.4127 38.5681 63.252 37.6091 63.0242C36.9189 62.852 36.4318 62.6372 36.1485 62.3798C35.8649 62.1258 35.7232 61.7598 35.7232 61.281C35.7232 60.7177 35.9444 60.2329 36.3863 59.8269C36.8283 59.4218 37.4504 59.2184 38.2526 59.2184C39.0138 59.2184 39.6336 59.371 40.1133 59.6755C40.5926 59.9799 40.8678 60.5058 40.9385 61.2532H39.3437C39.3215 61.0476 39.2634 60.8851 39.1702 60.7658C38.9949 60.5488 38.6964 60.4403 38.2748 60.4403C37.9279 60.4403 37.6804 60.4943 37.5332 60.6028C37.386 60.7114 37.3121 60.838 37.3121 60.9839C37.3121 61.1669 37.3905 61.2995 37.5469 61.3817C37.7038 61.4676 38.2578 61.6154 39.2094 61.8243C39.8433 61.9739 40.319 62.1998 40.6363 62.502C40.9499 62.8087 41.1064 63.1913 41.1064 63.6509C41.1064 64.2564 40.8815 64.7505 40.4321 65.1338C39.9824 65.5164 39.2874 65.7082 38.3477 65.7082C37.3886 65.7082 36.6807 65.5049 36.224 65.0997C35.7665 64.6949 35.5379 64.1786 35.5379 63.5509ZM42.7378 62.245C42.1593 62.5813 41.8705 63.1246 41.8705 63.8753C41.8705 64.4546 42.0502 64.9023 42.4105 65.2179C42.7707 65.5334 43.2263 65.6908 43.7789 65.6908C44.2116 65.6908 44.5996 65.5916 44.9428 65.3942C45.2256 65.2297 45.4822 65.0237 45.704 64.7831C45.7154 64.922 45.7299 65.0449 45.7487 65.1534C45.7672 65.2612 45.8009 65.3775 45.8493 65.5008H47.5843V65.2656C47.4796 65.2164 47.4012 65.1549 47.3494 65.0805C47.2973 65.006 47.2655 64.8642 47.254 64.6546C47.2473 64.4193 47.2438 64.184 47.2433 63.9487V61.1473C47.2433 60.411 46.984 59.9103 46.4651 59.6447C45.9466 59.3799 45.353 59.247 44.6854 59.247C43.6594 59.247 42.9356 59.5162 42.514 60.0543C42.2492 60.398 42.1002 60.8369 42.0665 61.371H43.6054C43.6428 61.1358 43.7175 60.9491 43.8292 60.811C43.9857 60.6243 44.2527 60.5303 44.6296 60.5303C44.9654 60.5303 45.2198 60.578 45.3933 60.6736C45.5668 60.7691 45.6537 60.9421 45.6537 61.1913C45.6537 61.3976 45.5398 61.5487 45.3123 61.6458C45.1854 61.7021 44.9746 61.7484 44.6799 61.7854L44.1369 61.8535C43.5211 61.9313 43.0547 62.0621 42.7378 62.245ZM52.0358 59.2466C52.666 59.2466 53.182 59.4121 53.5829 59.7429C53.9842 60.0736 54.185 60.6217 54.185 61.3876V65.5005H52.5506V61.7846C52.5506 61.4635 52.5077 61.2176 52.4219 61.0454C52.2651 60.7314 51.9666 60.5747 51.5265 60.5747C50.9854 60.5747 50.6145 60.8047 50.4129 61.2639C50.3086 61.5069 50.2561 61.8172 50.2561 62.1943V65.5008H48.6668V59.4036H50.2062V60.2947C50.4111 59.9806 50.6052 59.7551 50.7879 59.6162C51.116 59.3703 51.5321 59.2466 52.0358 59.2466ZM55.9588 60.174C55.5072 60.7925 55.2816 61.5554 55.2816 62.4635C55.2816 63.4046 55.5157 64.1512 55.9839 64.7023C56.4522 65.2534 57.078 65.529 57.8613 65.529C58.3687 65.529 58.7808 65.4075 59.0981 65.1645C59.2734 65.0342 59.4376 64.8375 59.5907 64.5764V64.9686C59.5907 65.5516 59.5271 65.966 59.4003 66.2127C59.2064 66.5975 58.8222 66.79 58.2474 66.79C57.8406 66.79 57.5514 66.7171 57.3798 66.5715C57.2792 66.4889 57.2067 66.3545 57.1619 66.1678H55.427C55.4791 66.7771 55.7517 67.2341 56.244 67.5408C56.7362 67.8467 57.3724 68 58.1524 68C59.4432 68 60.3164 67.6563 60.7713 66.9693C61.0365 66.5693 61.1685 65.9753 61.1685 65.1871V59.3925H59.6185V60.2729C59.3795 59.8432 59.0663 59.5481 58.6783 59.3873C58.4505 59.294 58.1842 59.247 57.878 59.247C57.0499 59.2466 56.41 59.5562 55.9588 60.174ZM69.0374 60.838L70.6773 57.2407H72.6305L69.8711 62.3961V65.5008H68.1476V62.3961L65.2934 57.2407H67.3247L69.0374 60.838ZM78.5733 60.1662C78.0581 59.5195 77.2766 59.1962 76.2284 59.1962C75.1803 59.1962 74.3988 59.5195 73.8836 60.1662C73.3684 60.8121 73.1113 61.5769 73.1113 62.458C73.1113 63.355 73.3684 64.1216 73.8836 64.759C74.3988 65.3956 75.1803 65.7138 76.2284 65.7138C77.2766 65.7138 78.0581 65.3956 78.5733 64.759C79.0885 64.1216 79.3455 63.355 79.3455 62.458C79.3455 61.5765 79.0885 60.8121 78.5733 60.1662ZM83.8677 59.2466C84.4983 59.2466 85.0135 59.4121 85.4151 59.7429C85.816 60.0736 86.0169 60.6217 86.0169 61.3876V65.5005H84.3829V61.7846C84.3829 61.4635 84.3396 61.2176 84.2534 61.0454C84.0966 60.7314 83.7985 60.5747 83.3584 60.5747C82.8173 60.5747 82.446 60.8047 82.2444 61.2639C82.1397 61.5069 82.0876 61.8172 82.0876 62.1943V65.5008H80.4983V59.4036H82.0376V60.2947C82.2422 59.9806 82.4363 59.7551 82.6191 59.6162C82.9478 59.3703 83.3639 59.2466 83.8677 59.2466ZM87.7907 60.174C87.3383 60.7925 87.1131 61.5554 87.1131 62.4635C87.1131 63.4046 87.3472 64.1512 87.8158 64.7023C88.2833 65.2534 88.9095 65.529 89.6932 65.529C90.2002 65.529 90.6126 65.4075 90.93 65.1645C91.1049 65.0342 91.2695 64.8375 91.4226 64.5764V64.9686C91.4226 65.5516 91.359 65.966 91.2317 66.2127C91.0376 66.5975 90.6533 66.79 90.0789 66.79C89.6721 66.79 89.3832 66.7171 89.2113 66.5715C89.111 66.4889 89.0378 66.3545 88.993 66.1678H87.2588C87.311 66.7771 87.5832 67.2341 88.0758 67.5408C88.5685 67.8467 89.2042 68 89.9842 68C91.2743 68 92.1479 67.6563 92.6028 66.9693C92.868 66.5693 93 65.9753 93 65.1871V59.3925H91.45V60.2729C91.2114 59.8432 90.8981 59.5481 90.5102 59.3873C90.2827 59.294 90.0153 59.247 89.7098 59.247C88.8814 59.2466 88.2415 59.5562 87.7907 60.174Z" fill="black"/>
<path fill-rule="evenodd" clip-rule="evenodd" d="M45.7276 64.6959C45.4506 64.8945 45.1186 65.0009 44.7783 65C44.5618 65 44.3779 64.939 44.2269 64.8171C44.0755 64.6951 44 64.4977 44 64.2237C44 63.9159 44.1232 63.6891 44.3697 63.5426C44.5152 63.4564 44.7561 63.3835 45.0921 63.3233L45.4508 63.2556C45.6299 63.2214 45.7709 63.1853 45.8734 63.1459C45.9759 63.1065 46.0781 63.0552 46.1787 62.9913V63.5876C46.1669 64.1245 46.0166 64.4933 45.7276 64.6959ZM57.6498 63.8802C57.5302 63.6028 57.4707 63.2853 57.4707 62.9295C57.4707 62.5172 57.5265 62.17 57.6387 61.8889C57.8515 61.3595 58.2382 61.0952 58.7978 61.0952C59.2082 61.0952 59.5361 61.2476 59.7808 61.5514C60.0254 61.8547 60.1475 62.2979 60.1475 62.8786C60.1475 63.4973 60.0187 63.9482 59.7612 64.2315C59.5036 64.5148 59.1879 64.6565 58.8148 64.6565C58.2545 64.6565 57.8663 64.3981 57.6498 63.8802ZM75.6959 64.3416C75.4435 64.0085 75.318 63.5333 75.318 62.9184C75.318 62.3042 75.4439 61.8298 75.6959 61.4982C75.9476 61.1662 76.3073 61 76.7736 61C77.2407 61 77.5986 61.1662 77.8491 61.4982C78.0993 61.8302 78.2244 62.3042 78.2244 62.9184C78.2244 63.5333 78.0993 64.0085 77.8491 64.3416C77.5982 64.6754 77.2403 64.8427 76.7736 64.8427C76.3073 64.8424 75.9472 64.6754 75.6959 64.3416ZM89.5026 63.8802C89.3827 63.6028 89.3235 63.2853 89.3235 62.9295C89.3235 62.5172 89.379 62.17 89.4911 61.8889C89.7036 61.3595 90.0903 61.0952 90.6499 61.0952C91.0611 61.0952 91.3886 61.2476 91.6329 61.5514C91.8779 61.8547 92 62.2979 92 62.8786C92 63.4973 91.8705 63.9482 91.6132 64.2315C91.356 64.5148 91.04 64.6565 90.6669 64.6565C90.107 64.6565 89.7187 64.3981 89.5026 63.8802Z" fill="white"/>
</g>
<defs>
<clipPath id="clip0_1_637">
<rect width="71" height="72" fill="white" transform="translate(25)"/>
</clipPath>
</defs>
</svg>
