<svg width="121" height="72" viewBox="0 0 121 72" fill="none" xmlns="http://www.w3.org/2000/svg">
<rect width="121" height="72" rx="12" fill="white"/>
<g clip-path="url(#clip0_1_619)">
<path d="M60.5115 63C75.1436 63 87 50.9192 87 36.0119C87.0001 21.1037 75.1436 9 60.5115 9C45.8797 9 34 21.1037 34 36.0118C34 50.9191 45.8797 63 60.5115 63Z" fill="#000C0A"/>
<path d="M60.9998 63C75.3622 63 87 51.1438 87 36.5118C87 21.8796 75.3623 10 60.9998 10C46.6375 10 35 21.8797 35 36.5118C35 51.1438 46.6375 63 60.9998 63Z" fill="white"/>
<path d="M59.9999 61C73.7921 61 85 49.5866 85 35.5121C85 21.4139 73.7921 10 59.9999 10C46.2076 10 35 21.4138 35 35.5121C35.0001 49.5866 46.2076 61 59.9999 61Z" fill="#000C0A"/>
<path d="M60.5113 52C69.0732 52 76 44.8386 76 36.0378C76 27.2137 69.0733 20.0516 60.5113 20.0516C51.9494 20.0516 45 27.2137 45 36.0378C45 44.8385 51.9494 52 60.5113 52ZM63.373 13.0299C64.0313 13.9898 64.1225 15.3239 63.9408 16.4704C63.7366 17.5239 62.9189 18.1792 61.9876 18.4836C60.5341 18.6708 58.7628 19.0452 57.4683 17.6176C56.7416 16.5643 56.7416 15.2301 57.0138 13.896C57.3774 12.4683 58.9671 12.0939 60.2616 12C61.3973 12.0001 62.5552 12.1874 63.373 13.0299Z" fill="white"/>
<path d="M61.8601 13.9001C61.9534 14.6984 62.2328 15.9278 61.5812 16.618C60.9994 17.0063 60.185 17.1571 59.6031 16.7905C58.8353 16.1003 58.9515 15.0434 59.1379 14.1591C59.2306 13.6413 59.6031 13.1022 60.185 13.016C60.8132 12.9297 61.6744 13.1885 61.8601 13.9001Z" fill="#000C0A"/>
<path d="M73.8514 17.1847C74.2188 18.3853 73.8514 19.4878 73.3324 20.4677C72.9003 21.3742 71.69 22.1088 71.0415 21.9867C69.6153 21.6928 68.4045 20.6883 67 19.7085L69.7882 14C71.2146 14.8818 72.9652 15.3963 73.8514 17.1847Z" fill="white"/>
<path d="M71.9874 17.3726C72.071 18.2635 71.7366 19.2509 71.0472 19.8289C70.3786 20.4309 69 19.2509 69 19.2509L70.5248 16C71.1308 16.4093 71.8202 16.602 71.9874 17.3726Z" fill="#000C0A"/>
<path d="M42.5315 22.6996C41.9773 23.3754 41.308 23.9787 41.2158 24.8471C41.2158 25.1368 41.4694 25.4986 41.7926 25.4504C42.7161 24.654 43.6623 22.9893 44.9779 23.3754C45.6472 23.3754 46.2935 24.0751 46.4781 24.6539C46.8706 26.4154 45.6472 27.9116 44.5163 29.0697L43.4778 28.394C44.2394 27.6942 45.3473 26.6329 44.8854 25.5469C43.4316 24.7988 43.2006 27.5978 41.7004 27.5978C41.031 27.5978 40.1308 27.1152 39.9001 26.3191C39.9001 26.3191 39.8077 25.8364 39.8077 25.5227C39.7847 24.9677 40.0154 24.3645 40.2694 23.8578C40.5463 23.3754 40.8465 22.9893 40.8465 22.9893L41.7004 22L42.5315 22.6996ZM39.8078 24.3645C39.6 24.3887 39.2307 24.437 39 24.461C39.0462 24.2921 39.2539 23.7615 39.2539 23.7615L39.9925 23.6409L39.6462 23.0133C39.8077 22.7721 39.9231 22.5067 40.0848 22.2655L40.5001 23.0616L39.8078 24.3645ZM82 25.6195L77.3837 31L76.5067 29.0456L77.6148 27.9355L76.3679 25.6919L74.9603 26.0294L73.8981 24.461L80.6611 23.2786L82 25.6195Z" fill="white"/>
<path d="M77.8782 27L77 25.5394L80 25L77.8782 27Z" fill="#000C0A"/>
<path d="M51.3848 57L49.9697 56.0859L50.2713 55.0786L48.9951 54.1174L48.0672 54.7505C47.696 54.4223 47.3479 54.0942 47 53.7661L50.6887 51L52.5912 52.1487L51.3848 57ZM73.8419 53.1099C74.19 53.9066 73.9347 54.7504 73.3547 55.219C72.6123 55.9924 71.7541 56.461 70.7103 56.3677C69.7822 56.2733 69.0165 55.3123 68.7383 54.5627C68.5526 53.7891 68.5526 52.9685 69.1093 52.4537C69.8745 51.7735 70.6175 51.328 71.6612 51.2116C72.6123 51.2116 73.471 52.2662 73.8419 53.1099Z" fill="white"/>
<path d="M49.8522 53.8729L49 53.2238L50.2113 52.1425L49.8522 53.8729ZM70.8914 53.5127C71.1829 54.2093 70.8688 54.8583 70.1734 54.9778C69.2317 55.1702 68.9174 54.0652 68.6034 53.4881C68.3344 52.911 68.6932 52.1188 69.3216 52.0222C70.241 51.8299 70.5324 52.9357 70.8914 53.5127Z" fill="#000C0A"/>
<path d="M55.5245 57.3409C55.5024 57.8243 56.3678 58.147 56.6784 57.6399C56.7894 57.2946 57.0779 55.5892 57.2555 54.5526C57.7213 54.6679 58.254 54.7833 58.6089 54.876C58.4981 55.6583 58.3872 57.847 57.4773 58.6773C56.8559 59.1608 55.8575 58.8845 55.214 58.6773C53.7714 58.1468 54.0156 56.9029 54.0156 56.9029L54.6813 54L56.0572 54.299L55.5245 57.3409ZM63.8016 55.3593L64.4452 58.7002L63.025 59L62.3815 55.6355L61.2719 55.9117L61.05 54.8979L64.7336 54.0455L65 55.0595L63.8016 55.3593Z" fill="white"/>
<path d="M62.9392 22.1972C66.9635 26.5443 69.184 32.4255 67.4492 38.6554C67.4492 38.6554 66.9403 40.1431 66.8017 40.7476C66.6858 41.352 66.7091 41.8167 66.7091 41.8167C66.8938 42.2123 67.4953 42.3282 67.8888 42.2352C68.2815 41.8401 67.5878 41.3288 67.981 40.8407C69.9241 40.6546 71.5429 42.0263 73 43.3047C71.7281 44.8627 69.8083 46.3497 67.8423 45.862C67.5651 45.4667 68.4667 44.9554 67.8656 44.5602L53.549 44.5365C53.1327 44.5602 52.3696 45.7924 51.93 45.9088C51.3056 46.048 50.2648 46.0243 49.9873 45.862C49.3858 45.257 49.2471 44.2816 48.8541 43.5836C48.4607 42.7237 46.6798 41.8402 46.9805 41.1894C47.1193 40.9569 50.5425 40.4455 52.7396 41.2357C53.5721 41.6078 54.4281 42.3749 55.3068 42.1422C55.3529 42.119 55.4224 42.0959 55.4687 41.9797C55.6999 39.283 53.7572 36.3076 50.9123 34.9361C50.0796 34.5408 49.4785 34.4478 48.6689 34.5176C47.8131 34.5639 46.9111 34.6569 46.3331 34.2388C45.8473 33.8668 45.9398 32.6114 46.3098 31.3794C46.4948 30.8216 46.7493 30.217 47.0037 29.7292C48.1602 27.1718 51.8145 29.8916 52.3 30.1474C52.9247 30.4728 53.5721 31.1702 53.7572 30.2636C53.7109 29.6825 52.5777 29.1246 51.8376 28.7294C49.6634 27.5672 48.2758 27.8461 48.9696 26.521C49.1778 26.1259 49.8714 25.2194 50.8199 24.4056C51.7913 23.5455 53.0168 22.7319 53.919 22.6158C55.538 22.4531 57.2726 24.7544 57.2726 24.7544L59.3312 27.0557C59.7245 27.2881 59.9555 27.0324 60.0017 26.8699C60.1174 26.521 59.7938 26.1489 59.7938 26.1489C59.7938 26.1489 58.8455 24.9868 58.3366 24.4755C57.8511 23.964 56.4171 22.5926 56.4171 22.5926C55.8619 21.6163 56.9027 21.314 57.4807 21.2208C59.3542 21.0348 61.4123 20.5235 62.9392 22.1972Z" fill="#009036"/>
<path d="M62.8735 41C64.0497 41 65 40.0316 65 38.8326C65 37.6336 64.0497 36.6423 62.8735 36.6423C61.6976 36.6423 60.7476 37.6336 60.7476 38.8326C60.7476 40.0317 61.6976 41 62.8735 41ZM50.6821 17.3202C51.7678 18.0121 53.1247 18.4731 54.2107 19.2572L52.3558 20.1563L49.0989 18.4271L49.1441 14.8995L50.8179 14C50.9985 14.9457 50.7048 16.2827 50.6821 17.3202ZM49.3702 22.1625L46 17.0205L47.4024 16.006L50.7951 21.0787L49.3702 22.1625Z" fill="white"/>
</g>
<defs>
<clipPath id="clip0_1_619">
<rect width="53" height="54" fill="white" transform="translate(34 9)"/>
</clipPath>
</defs>
</svg>
