<svg width="121" height="72" viewBox="0 0 121 72" fill="none" xmlns="http://www.w3.org/2000/svg">
<rect width="121" height="72" rx="12" fill="white"/>
<g clip-path="url(#clip0_1_653)">
<path d="M13.9392 29.0399C11.3124 30.7705 8.56214 31.9409 8.0507 32.1528L21.0206 41.2239C21.0272 41.2285 21.0325 41.2347 21.0362 41.2418C21.0398 41.2489 21.0416 41.2568 21.0415 41.2649V41.2654C21.0415 41.2736 21.0394 41.2816 21.0355 41.2887C21.0316 41.2959 21.0259 41.3019 21.0191 41.3064L20.4402 41.687C20.4319 41.6923 20.4222 41.6951 20.4124 41.695C20.4025 41.6949 20.3929 41.6919 20.3847 41.6864L15.6483 38.4307C13.841 37.2115 11.8474 37.4702 10.4938 37.9023C9.19443 38.3165 8.237 38.9509 8 39.1163C8.11349 39.1958 17.7975 45.9541 17.8626 46C18.0716 45.804 19.4904 44.5102 22.4724 42.6731C25.6167 40.7388 27.4706 40.0627 27.8995 39.9196L14.9057 30.8332C14.8992 30.8286 14.8938 30.8225 14.8901 30.8155C14.8864 30.8084 14.8845 30.8005 14.8845 30.7925V30.792C14.8846 30.7839 14.8867 30.7759 14.8905 30.7688C14.8944 30.7617 14.8999 30.7556 14.9066 30.751L15.4596 30.3849C15.4677 30.3795 15.4772 30.3767 15.4869 30.3767C15.4966 30.3767 15.5061 30.3795 15.5141 30.3849C15.5315 30.396 17.2737 31.5382 20.4054 33.74C23.3416 35.8029 27.437 33.3291 28 32.97C27.8809 32.8878 18.0433 26.0436 17.9811 26C17.735 26.2096 15.9204 27.7385 13.9392 29.0399Z" fill="#D52B1E"/>
<path d="M63.2815 30.3262V33.1434H69.8044C69.8176 33.1435 69.8302 33.1487 69.8396 33.1577C69.8489 33.1667 69.8542 33.1788 69.8544 33.1916C69.8544 33.2048 69.8487 33.2174 69.8383 33.2269L63.052 39.3329V41.7071H76.7625V38.8778H69.9366C69.9265 38.8778 69.9166 38.8748 69.9083 38.8694C69.9 38.8639 69.8936 38.8562 69.8898 38.8471C69.8862 38.8381 69.8855 38.8282 69.8878 38.8187C69.8901 38.8093 69.8952 38.8007 69.9026 38.7941C69.9026 38.7941 76.7542 32.7331 76.7863 32.7041V30.3256C76.6878 30.3262 63.3804 30.3262 63.2815 30.3262ZM57.7879 30.3262V37.5561C57.7879 38.6125 56.8256 39.2431 55.2137 39.2431C53.5785 39.2431 52.6403 38.6179 52.6403 37.5277V30.3265H48.4306V37.7589C48.4306 39.3395 48.8486 40.3305 49.7862 40.9711C50.8122 41.6732 52.5367 42 55.2134 42C57.8904 42 59.6152 41.6732 60.6412 40.9711C61.579 40.3305 61.9971 39.3392 61.9971 37.7589V30.3265L57.7879 30.3262ZM87.3706 30.3262V37.5268C87.3706 38.6016 86.4093 39.2428 84.7979 39.2428C83.1609 39.2428 82.2225 38.6176 82.2225 37.5274V30.3262H78.0139V37.7586C78.0139 39.3392 78.4322 40.3302 79.3701 40.9709C80.3964 41.6729 82.1209 41.9997 84.7979 41.9997C87.4734 41.9997 89.1982 41.6729 90.2254 40.9709C91.1629 40.3299 91.5816 39.3389 91.5816 37.7586V30.3262H87.3706ZM108.603 30.3262V41.7076H113V30.3262H108.603ZM102.059 30.3262C102.031 30.3492 97.2922 34.2764 97.2922 34.2764C97.2849 34.2824 97.276 34.2863 97.2665 34.2876C97.257 34.2889 97.2473 34.2875 97.2386 34.2836C97.2298 34.2798 97.2222 34.2737 97.217 34.2659C97.2118 34.2581 97.209 34.249 97.2091 34.2397V30.3262H92.8127V41.7076H97.2091V37.6857C97.2091 37.6668 97.2207 37.6487 97.2398 37.6416C97.2488 37.6379 97.2587 37.6369 97.2683 37.6385C97.2779 37.6401 97.2868 37.6444 97.294 37.6507C97.294 37.6507 101.692 41.681 101.72 41.7076H107.612L101.134 35.9035C101.129 35.899 101.125 35.8936 101.122 35.8875C101.119 35.8814 101.118 35.8748 101.118 35.8682V35.867C101.118 35.8535 101.124 35.8403 101.136 35.8312L107.821 30.3259L102.059 30.3262ZM33.2516 33.7545C33.2516 34.9919 33.7482 35.8314 34.8144 36.3955C35.7952 36.9145 37.269 37.2379 39.7426 37.4772L40.21 37.5159C41.2822 37.5982 42.4973 37.6912 42.4973 38.5379C42.4973 39.1177 41.8443 39.4379 40.6587 39.4379C40.0796 39.4379 39.2296 39.2967 38.5174 38.0946H33C33.0125 39.4126 33.5193 40.3173 34.5962 40.935C35.8112 41.6325 37.7912 41.971 40.6498 41.971C47.025 41.971 47.5204 39.1097 47.5204 38.2329C47.5204 36.1993 45.6399 34.9782 41.7708 34.5008L41.1631 34.4267C39.3975 34.2153 38.0029 34.0483 38.0029 33.4512C38.0029 33.2203 38.0821 33.0269 38.2381 32.8768C38.646 32.4841 39.4871 32.4852 39.8462 32.4855H39.8798C40.2103 32.4855 41.342 32.5808 42.1153 33.7818H47.1155C47.0801 31.3783 44.4552 30 39.8965 30C33.8992 29.9997 33.2516 32.6252 33.2516 33.7545Z" fill="#003478"/>
</g>
<defs>
<clipPath id="clip0_1_653">
<rect width="105" height="20" fill="white" transform="translate(8 26)"/>
</clipPath>
</defs>
</svg>
