<svg width="121" height="72" viewBox="0 0 121 72" fill="none" xmlns="http://www.w3.org/2000/svg">
<rect width="121" height="72" rx="12" fill="white"/>
<g clip-path="url(#clip0_1_660)">
<path d="M60.9216 56.9982C60.9116 53.6815 63.5285 51.0057 66.797 51C69.9854 51.0052 72.6043 53.681 72.6685 56.9982C72.605 60.2779 69.9861 62.9536 66.797 63C63.5285 62.9536 60.9119 60.2779 60.9216 56.9982ZM66.7972 60.789C68.5616 60.7612 70.0224 59.0675 70.0406 56.9982C70.0224 54.8892 68.5616 53.1955 66.7972 53.2074C64.9564 53.1951 63.4921 54.8888 63.5503 56.9982C63.4921 59.0672 64.9564 60.7609 66.7972 60.789ZM79.3143 53.5235V62.6841H76.843V53.5235H73.2869V51.474H82.7158V53.5235H79.3143ZM85.6506 60.1544L84.7253 62.6844H81.7907L86.4264 51.474H89.5161L94 62.6844H91.0651L90.1378 60.1544H85.6506ZM87.9727 58.2619H89.5161L87.9727 54.155L86.4264 58.2619H87.9727ZM33.8727 53.5235V62.6841H31.3998V53.5235H28V51.474H37.2742V53.5235H33.8727ZM37.8926 56.9982C37.8975 53.6815 40.5129 51.0057 43.7633 51C46.9717 51.0052 49.5911 53.681 49.6383 56.9982C49.5911 60.2779 46.9717 62.9536 43.7633 63C40.5129 62.9536 37.8973 60.2779 37.8926 56.9982ZM43.7633 60.789C45.5486 60.7612 47.0083 59.0675 47.0099 56.9982C47.008 54.8892 45.5486 53.1955 43.7633 53.2074C41.9406 53.1951 40.4785 54.8888 40.5211 56.9982C40.4785 59.0672 41.9406 60.7609 43.7633 60.789ZM55.2028 62.6841H56.438V58.4196L60.7671 51.474H57.9859L55.2028 56.2086L52.5744 51.474H49.6386L53.9676 58.4196V62.6841H55.2028Z" fill="#AB002F"/>
<path d="M30 26.9999C30 37.4762 43.6825 46 60.5 46C77.3172 46 91 37.4762 91 26.9999C90.9998 16.5226 77.3172 8 60.4998 8C43.6823 8 30 16.5226 30 26.9999ZM30.9359 26.9999C30.9359 17.0383 44.198 8.93344 60.5 8.93344C76.8015 8.93344 90.0641 17.0383 90.0641 26.9999C90.0641 36.9635 76.8015 45.0682 60.5 45.0682C44.198 45.068 30.9359 36.9637 30.9359 26.9999Z" fill="black"/>
<path d="M57.6194 11.0926C50.4835 11.5341 45.3005 13.45 44.4171 15.9742C44.3271 16.2285 44.2808 16.4966 44.28 16.7667C44.28 17.1925 44.3988 17.6183 44.6346 18.0254C45.625 19.7347 48.6991 21.1443 53.0738 21.9004L53.5369 21.9771L53.6145 21.5085C54.3326 17.0712 55.9089 13.582 57.9408 11.9345L59.092 11L57.6194 11.0926ZM45.4423 17.5475C45.2898 17.2847 45.2147 17.0255 45.2147 16.7701C45.2147 16.6089 45.2421 16.4516 45.2987 16.2914C45.973 14.3632 50.5539 12.679 56.4059 12.1357C54.7366 14.0485 53.4529 17.1309 52.7833 20.8758C48.9805 20.1631 46.2462 18.9357 45.4423 17.5475ZM56.3147 21.7921L56.2232 22.3077L56.7395 22.3475C57.9637 22.4401 59.2293 22.4901 60.4992 22.4901C61.7702 22.4901 63.0365 22.4401 64.261 22.3475L64.7763 22.3077L64.6846 21.7921C63.9808 17.7882 62.4151 15.3965 60.4999 15.3965C58.5833 15.3965 57.0183 17.7882 56.3147 21.7921ZM60.5001 16.3443C61.8095 16.3443 63.0183 18.3306 63.6552 21.4312C62.6197 21.4997 61.5651 21.5423 60.4992 21.5423C59.4347 21.5423 58.3796 21.4997 57.3453 21.4312C57.9803 18.3306 59.191 16.3443 60.5001 16.3443ZM63.0585 11.935C65.0897 13.5825 66.6676 17.0722 67.3857 21.5089L67.4624 21.9776L67.9248 21.9008C72.3014 21.1448 75.3772 19.7347 76.364 18.0256C76.7478 17.3688 76.8208 16.6594 76.5834 15.9749C75.7002 13.4509 70.5169 11.535 63.3815 11.0931L61.9108 11.0005L63.0585 11.935ZM64.5962 12.1357C70.4465 12.679 75.0272 14.3663 75.6997 16.2914C75.7582 16.4516 75.7855 16.6089 75.7855 16.7701C75.7855 17.0255 75.7088 17.2847 75.5598 17.5475C74.7531 18.9355 72.0179 20.1631 68.217 20.8758C67.5473 17.1312 66.2655 14.0488 64.5962 12.1357ZM39.9019 17.8344C36.6948 20.5557 35 23.7886 35 27.1852C35 35.1754 44.618 41.9292 57.371 42.8917L58.7954 43L57.7108 42.0615C54.9169 39.6401 53.1818 33.8952 53.1818 27.0676L53.2111 25.4545L52.82 25.374C46.1119 24.1561 41.3397 21.2988 40.6602 18.0991L40.4976 17.3309L39.9019 17.8344ZM35.9365 27.1852C35.9365 24.2727 37.339 21.4774 39.9723 19.0497C41.1991 22.2828 45.7831 24.9761 52.2626 26.2293C52.2544 26.5994 52.2472 27.0676 52.2472 27.0676C52.2472 33.3983 53.7301 38.8656 56.176 41.8153C44.5558 40.5592 35.9365 34.4108 35.9365 27.1852ZM55.9337 26.3312L55.9309 26.5032C55.9309 32.8496 57.8952 37.6375 60.5001 37.6375C63.1041 37.6375 65.0687 32.8496 65.0687 26.5032L65.0624 25.8185L64.5599 25.8621C63.2351 25.9796 61.871 26.0379 60.5006 26.0379C59.1302 26.0379 57.7642 25.9796 56.4429 25.8621L55.9386 25.8159L55.9337 26.3312ZM64.1275 26.8399C64.0571 32.7448 62.2207 36.6904 60.5001 36.6904C58.7779 36.6904 56.9413 32.7448 56.8728 26.8399C58.0624 26.9288 59.2775 26.9842 60.5001 26.9842C61.7246 26.9842 62.9362 26.9288 64.1275 26.8399ZM80.3384 18.0991C79.6596 21.2988 74.8864 24.1558 68.1805 25.374L67.7875 25.4479L67.8186 27.0674C67.8186 33.895 66.0826 39.6401 63.2896 42.0612L62.205 42.9998L63.6276 42.8915C76.3818 41.929 86 35.1752 86 27.1849C86 23.7883 84.3033 20.5555 81.0963 17.8342L80.5024 17.3307L80.3384 18.0991ZM81.0263 19.0497C83.6615 21.4774 85.0649 24.2727 85.0649 27.1852C85.0649 34.4108 76.4461 40.5592 64.8247 41.8153C67.2706 38.8656 68.7535 33.3983 68.7535 27.0676C68.7535 27.0676 68.7444 26.5992 68.7381 26.2293C75.2155 24.9761 79.7993 22.2826 81.0263 19.0497Z" fill="black"/>
<path d="M80.4395 16.0247C80.482 16.1441 80.5208 16.2658 80.5514 16.3883C80.7257 17.0925 80.6896 17.784 80.4637 18.4578C83.4715 20.9792 85.2445 24.0888 85.2445 27.4581C85.2445 35.868 74.1656 42.687 60.5002 42.687C46.8339 42.687 35.7559 35.868 35.7559 27.4581C35.7559 24.0916 37.5308 20.9794 40.5349 18.4578C40.3108 17.784 40.2748 17.0925 40.4491 16.3883C40.4852 16.2547 40.5332 16.1247 40.5927 16C36.4884 18.9724 34 22.8677 34 27.134C34 36.4492 45.8637 44 60.5 44C75.1345 44 87 36.4492 87 27.134C87.0005 22.8767 84.522 18.9902 80.4395 16.0247Z" fill="url(#paint0_linear_1_660)"/>
<path d="M64.2209 22.2464C63.0403 22.3348 61.7958 22.3831 60.4984 22.3831C59.2018 22.3831 57.9583 22.3348 56.7777 22.2464H56.774L56.0024 22.8059C57.4259 22.9298 58.929 23 60.4991 23C62.0693 23 63.5722 22.9298 64.9966 22.8059L64.2209 22.2464ZM77.9041 16.3807C76.9638 13.2783 69.2121 11 60.4993 11C51.7879 11 44.0364 13.2788 43.0961 16.3807C42.2799 19.0719 46.7354 21.5628 53.7648 22.5506L53.1541 21.8085C47.4677 20.8426 44.0878 18.7829 44.8676 16.593C45.8126 13.9341 52.6765 12.0088 60.4986 12.0088C68.3204 12.0088 75.186 13.9346 76.1301 16.593C76.9089 18.7831 73.5307 20.8428 67.8429 21.8085L67.2342 22.5506C74.2611 21.5628 78.7196 19.0719 77.9041 16.3807Z" fill="url(#paint1_linear_1_660)"/>
<path d="M56.7777 22.4354C57.4322 18.7395 58.8521 16.4298 60.4987 16.4298C62.1472 16.4298 63.5659 18.7395 64.2213 22.4354H64.2344L65 23C64.3537 18.1191 62.5836 15 60.4999 15C58.4148 15 56.6454 18.1191 56 23L56.7653 22.4354H56.7777Z" fill="url(#paint2_linear_1_660)"/>
<path d="M64.9712 25L64.3795 26.0992C64.3795 26.1793 64.383 26.2616 64.383 26.3451C64.383 32.1974 62.6408 36.6346 60.4982 36.6346C58.3536 36.6346 56.615 32.1969 56.615 26.3451C56.615 26.2528 56.6168 26.1611 56.6185 26.0726L56.0259 25C56.0085 25.4461 55.9998 25.8925 56 26.339C56 32.974 58.0139 38 60.4991 38C62.9843 38 65 32.974 65 26.339C64.9991 25.8925 64.9895 25.4461 64.9712 25Z" fill="url(#paint3_linear_1_660)"/>
<path d="M53.5836 23C54.4409 16.0967 56.9892 11 60 11C56.7722 11 54.021 15.5154 53 22.2398L53.575 23H53.5836Z" fill="url(#paint4_linear_1_660)"/>
<path d="M66.4189 23H66.4249L67 22.2398C65.9805 15.5154 63.2268 11 60 11C63.0116 11.0005 65.5623 16.0967 66.4189 23Z" fill="url(#paint5_linear_1_660)"/>
<path d="M67.9745 25.9307L67.1858 25H67.1794C67.2236 25.7395 67.2488 26.491 67.2488 27.2545C67.2488 36.5029 64.0028 44 60 44C64.4881 44 68 37.0467 68 27.2545C68 26.8065 67.9906 26.3671 67.9745 25.9307Z" fill="url(#paint6_linear_1_660)"/>
<path d="M53.7535 27.2545C53.7535 26.491 53.7787 25.7395 53.822 25H53.8167L53.0262 25.9278C53.0094 26.3699 53.0007 26.8122 53 27.2545C53 37.0467 56.5141 44 61 44C56.9992 44 53.7535 36.5027 53.7535 27.2545Z" fill="url(#paint7_linear_1_660)"/>
<path d="M80.1016 18.6374C81.2594 19.672 82.2361 20.801 83 22C82.7355 20.093 82.0352 18.2879 80.9628 16.7488C80.6734 16.4997 80.3779 16.259 80.0766 16.027C80.1197 16.1551 80.1588 16.2858 80.1891 16.4172C80.3653 17.1726 80.329 17.9143 80.1016 18.6374ZM39.8966 18.6374C39.671 17.9143 39.6347 17.1723 39.8102 16.4167C39.8465 16.2733 39.8949 16.1338 39.9548 16C39.6442 16.2428 39.3383 16.4924 39.0372 16.7488C37.9663 18.2889 37.2662 20.0936 37 22C37.7639 20.801 38.7387 19.6718 39.8966 18.6374Z" fill="#2D2F34"/>
<path d="M30 26.5005C30 16.284 43.4309 8 60.0011 8C76.5688 8 90 16.284 90 26.5005C90 36.719 76.5688 45 60.0011 45C43.4309 44.9998 30 36.7192 30 26.5005ZM60.0008 43.1413C74.7949 43.1413 86.7895 35.6709 86.7895 26.4549C86.7895 17.2379 74.7949 9.76498 60.0008 9.76498C45.2048 9.76498 33.2112 17.2384 33.2112 26.4549C33.2112 35.6709 45.2051 43.1413 60.0008 43.1413Z" fill="url(#paint8_linear_1_660)"/>
<path d="M53 27.5C53 18.4829 56.135 11 59.999 11C63.8648 11 67 18.4829 67 27.5C67 36.6129 63.8648 44 59.999 44C56.1331 44 53 36.6126 53 27.5ZM59.999 38.9312C62.6044 38.9312 64.7175 33.7599 64.7175 26.9359C64.7175 19.854 62.6042 14.9746 59.999 14.9746C57.3937 14.9746 55.2825 19.854 55.2825 26.9359C55.2825 33.7599 57.3937 38.9312 59.999 38.9312Z" fill="url(#paint9_linear_1_660)"/>
<path d="M40.1126 16.6201C40.8904 13.5167 50.296 9 60.5 9C70.7032 9 79.7858 12.2273 80.8877 16.6201C82.1211 21.5439 73.0566 26 60.5 26C47.9414 26 38.8774 21.5441 40.1126 16.6201ZM60.5 11.0482C51.7377 11.0482 43.9409 13.3625 42.995 16.5127C41.9352 20.0421 49.7174 23.2353 60.5 23.2353C71.2848 23.2353 79.0656 20.0416 78.0067 16.5127C77.0609 13.362 69.2643 11.0482 60.5 11.0482Z" fill="url(#paint10_linear_1_660)"/>
<path d="M55.7415 24.7271L55.7469 24.7307L56.3945 25.8296C57.7123 25.938 59.0828 26 60.4999 26C61.9235 26 63.2973 25.9382 64.6239 25.8269L65.254 24.7303L65.2577 24.7266C63.7424 24.8654 62.1535 24.9423 60.5003 24.9423C58.9114 24.9432 57.3234 24.8714 55.7415 24.7271ZM80.9952 17C80.8334 20.3629 75.4636 23.3424 67.5259 24.4652L67.5288 24.4679L68.303 25.3586C76.0697 24.0146 81.1791 20.7133 80.9952 17ZM40.0048 17C39.8212 20.7169 44.9301 24.0144 52.6953 25.3586L53.4715 24.4679L53.4733 24.4652C45.5343 23.3426 40.1682 20.3631 40.0048 17Z" fill="url(#paint11_linear_1_660)"/>
</g>
<defs>
<linearGradient id="paint0_linear_1_660" x1="60.5" y1="41.9166" x2="60.5" y2="20.6087" gradientUnits="userSpaceOnUse">
<stop stop-color="#F0F3F5"/>
<stop offset="0.056" stop-color="#E2E5E8"/>
<stop offset="0.138" stop-color="#D4D8DD"/>
<stop offset="0.242" stop-color="#CCD0D6"/>
<stop offset="0.44" stop-color="#CACED4"/>
<stop offset="0.568" stop-color="#B3B7BD"/>
<stop offset="0.835" stop-color="#797C83"/>
<stop offset="1" stop-color="#52545C"/>
</linearGradient>
<linearGradient id="paint1_linear_1_660" x1="60.5" y1="25.7111" x2="60.5" y2="14.2498" gradientUnits="userSpaceOnUse">
<stop stop-color="#F0F3F5"/>
<stop offset="0.056" stop-color="#E2E5E8"/>
<stop offset="0.138" stop-color="#D4D8DD"/>
<stop offset="0.242" stop-color="#CCD0D6"/>
<stop offset="0.44" stop-color="#CACED4"/>
<stop offset="0.568" stop-color="#B3B7BD"/>
<stop offset="0.835" stop-color="#797C83"/>
<stop offset="1" stop-color="#52545C"/>
</linearGradient>
<linearGradient id="paint2_linear_1_660" x1="64.3214" y1="23.8216" x2="57.0383" y2="17.8079" gradientUnits="userSpaceOnUse">
<stop stop-color="#F0F3F5"/>
<stop offset="0.056" stop-color="#E2E5E8"/>
<stop offset="0.138" stop-color="#D4D8DD"/>
<stop offset="0.242" stop-color="#CCD0D6"/>
<stop offset="0.44" stop-color="#CACED4"/>
<stop offset="0.568" stop-color="#B3B7BD"/>
<stop offset="0.835" stop-color="#797C83"/>
<stop offset="1" stop-color="#52545C"/>
</linearGradient>
<linearGradient id="paint3_linear_1_660" x1="64.8016" y1="32.8832" x2="54.7653" y2="27.2423" gradientUnits="userSpaceOnUse">
<stop stop-color="#F0F3F5"/>
<stop offset="0.056" stop-color="#E2E5E8"/>
<stop offset="0.138" stop-color="#D4D8DD"/>
<stop offset="0.242" stop-color="#CCD0D6"/>
<stop offset="0.44" stop-color="#CACED4"/>
<stop offset="0.568" stop-color="#B3B7BD"/>
<stop offset="0.835" stop-color="#797C83"/>
<stop offset="1" stop-color="#52545C"/>
</linearGradient>
<linearGradient id="paint4_linear_1_660" x1="56.5001" y1="8.54431" x2="56.5001" y2="27.425" gradientUnits="userSpaceOnUse">
<stop stop-color="#F0F3F5"/>
<stop offset="0.056" stop-color="#E2E5E8"/>
<stop offset="0.138" stop-color="#D4D8DD"/>
<stop offset="0.242" stop-color="#CCD0D6"/>
<stop offset="0.44" stop-color="#CACED4"/>
<stop offset="0.568" stop-color="#B3B7BD"/>
<stop offset="0.835" stop-color="#797C83"/>
<stop offset="1" stop-color="#52545C"/>
</linearGradient>
<linearGradient id="paint5_linear_1_660" x1="63.5001" y1="8.54431" x2="63.5001" y2="27.425" gradientUnits="userSpaceOnUse">
<stop stop-color="#F0F3F5"/>
<stop offset="0.056" stop-color="#E2E5E8"/>
<stop offset="0.138" stop-color="#D4D8DD"/>
<stop offset="0.242" stop-color="#CCD0D6"/>
<stop offset="0.44" stop-color="#CACED4"/>
<stop offset="0.568" stop-color="#B3B7BD"/>
<stop offset="0.835" stop-color="#797C83"/>
<stop offset="1" stop-color="#52545C"/>
</linearGradient>
<linearGradient id="paint6_linear_1_660" x1="63.9999" y1="7.94594" x2="63.9999" y2="38.8344" gradientUnits="userSpaceOnUse">
<stop stop-color="#F0F3F5"/>
<stop offset="0.056" stop-color="#E2E5E8"/>
<stop offset="0.138" stop-color="#D4D8DD"/>
<stop offset="0.242" stop-color="#CCD0D6"/>
<stop offset="0.44" stop-color="#CACED4"/>
<stop offset="0.568" stop-color="#B3B7BD"/>
<stop offset="0.835" stop-color="#797C83"/>
<stop offset="1" stop-color="#52545C"/>
</linearGradient>
<linearGradient id="paint7_linear_1_660" x1="56.9999" y1="7.9457" x2="56.9999" y2="38.8342" gradientUnits="userSpaceOnUse">
<stop stop-color="#F0F3F5"/>
<stop offset="0.056" stop-color="#E2E5E8"/>
<stop offset="0.138" stop-color="#D4D8DD"/>
<stop offset="0.242" stop-color="#CCD0D6"/>
<stop offset="0.44" stop-color="#CACED4"/>
<stop offset="0.568" stop-color="#B3B7BD"/>
<stop offset="0.835" stop-color="#797C83"/>
<stop offset="1" stop-color="#52545C"/>
</linearGradient>
<linearGradient id="paint8_linear_1_660" x1="59.9999" y1="8" x2="59.9999" y2="45" gradientUnits="userSpaceOnUse">
<stop stop-color="#F0F3F5"/>
<stop offset="0.253" stop-color="#EDF0F3"/>
<stop offset="0.406" stop-color="#E5E8EA"/>
<stop offset="0.531" stop-color="#D7DADC"/>
<stop offset="0.642" stop-color="#C3C5C9"/>
<stop offset="0.744" stop-color="#A9ABAF"/>
<stop offset="0.839" stop-color="#888B90"/>
<stop offset="0.926" stop-color="#63656B"/>
<stop offset="1" stop-color="#3D3F46"/>
</linearGradient>
<linearGradient id="paint9_linear_1_660" x1="59.9999" y1="8.62734" x2="59.9999" y2="45.8713" gradientUnits="userSpaceOnUse">
<stop stop-color="#F0F3F5"/>
<stop offset="0.253" stop-color="#EDF0F3"/>
<stop offset="0.406" stop-color="#E5E8EA"/>
<stop offset="0.531" stop-color="#D7DADC"/>
<stop offset="0.642" stop-color="#C3C5C9"/>
<stop offset="0.744" stop-color="#A9ABAF"/>
<stop offset="0.839" stop-color="#888B90"/>
<stop offset="0.926" stop-color="#63656B"/>
<stop offset="1" stop-color="#3D3F46"/>
</linearGradient>
<linearGradient id="paint10_linear_1_660" x1="60.5" y1="8.65026" x2="60.5" y2="46.3533" gradientUnits="userSpaceOnUse">
<stop stop-color="#F0F3F5"/>
<stop offset="0.253" stop-color="#EDF0F3"/>
<stop offset="0.406" stop-color="#E5E8EA"/>
<stop offset="0.531" stop-color="#D7DADC"/>
<stop offset="0.642" stop-color="#C3C5C9"/>
<stop offset="0.744" stop-color="#A9ABAF"/>
<stop offset="0.839" stop-color="#888B90"/>
<stop offset="0.926" stop-color="#63656B"/>
<stop offset="1" stop-color="#3D3F46"/>
</linearGradient>
<linearGradient id="paint11_linear_1_660" x1="60.5001" y1="15.8373" x2="60.5001" y2="26.1012" gradientUnits="userSpaceOnUse">
<stop stop-color="#CACED4"/>
<stop offset="1" stop-color="#52545C"/>
</linearGradient>
<clipPath id="clip0_1_660">
<rect width="66" height="55" fill="white" transform="translate(28 8)"/>
</clipPath>
</defs>
</svg>
