<svg width="121" height="72" viewBox="0 0 121 72" fill="none" xmlns="http://www.w3.org/2000/svg">
<g clip-path="url(#clip0_1_768)">
<rect width="121" height="72" rx="12" fill="white"/>
<g clip-path="url(#clip1_1_768)">
<path fill-rule="evenodd" clip-rule="evenodd" d="M16 -8.5H105V80.5H16V-8.5Z" fill="white"/>
<path fill-rule="evenodd" clip-rule="evenodd" d="M16.918 22.4155C16.918 22.4155 17.1536 21.6208 17.9772 21.8684L60.3566 34.6137L103.014 21.8148C103.014 21.8148 103.812 21.5616 104.083 22.3898C102.667 22.8663 60.3438 37.3763 60.3438 37.3763L16.918 22.4155Z" fill="#DEE1E9"/>
<path fill-rule="evenodd" clip-rule="evenodd" d="M71.051 31.3593C68.8657 26.7475 64.2082 23.6133 58.8996 23.6133C53.8642 23.6133 49.4988 26.4277 47.1953 30.6573L48.04 31.9031C50.0331 27.7974 54.1474 24.9791 58.8996 24.9791C64.0052 24.9791 68.4325 28.1806 70.226 32.7885L71.051 31.3593Z" fill="#97A0B2"/>
<path fill-rule="evenodd" clip-rule="evenodd" d="M69.6033 38.2063C69.2701 43.6064 64.7052 47.8844 59.1231 47.8844C53.3242 47.8844 48.6232 43.2674 48.6232 37.5717C48.6232 37.3939 48.6278 37.2169 48.637 37.0413L47.3768 35.541C47.2557 36.2171 47.195 36.9023 47.1953 37.5888C47.1953 44.0586 52.5356 49.3039 59.1231 49.3039C65.7103 49.3039 71.051 44.0586 71.051 37.5888C71.051 37.1844 71.0294 36.785 70.9889 36.3914L69.6033 38.2063Z" fill="#DEE1E9"/>
<path fill-rule="evenodd" clip-rule="evenodd" d="M50.9095 41.0461C50.9095 41.0461 50.6203 40.0643 51.5546 39.6077C52.4889 39.1516 52.9475 38.9531 52.9475 38.9531L60.0424 37.376L50.9095 41.0461Z" fill="#DEE1E9"/>
<path fill-rule="evenodd" clip-rule="evenodd" d="M70.6334 36.3776L70.602 36.4238C70.6343 36.7897 70.6533 37.1603 70.6533 37.5351C70.6533 44.2922 65.285 49.7704 58.6635 49.7704C52.042 49.7704 46.6742 44.2922 46.6742 37.5351C46.6742 36.8563 46.7311 36.1901 46.8351 35.541L45.4538 35.9697C45.3921 36.4983 45.3606 37.0302 45.3594 37.5625C45.3594 45.0608 51.3157 51.139 58.6635 51.139C66.0113 51.139 71.9676 45.0608 71.9676 37.5625C71.9676 37.377 71.9611 37.1938 71.9542 37.0102L70.6334 36.3776Z" fill="black"/>
<path fill-rule="evenodd" clip-rule="evenodd" d="M104.93 21.7783L60.8146 36.6046L17.0243 21.8078C17.0243 21.8078 16.92 22.0518 16.9181 22.2082C16.9158 22.3647 16.9367 22.741 17.4797 22.9651C18.0228 23.1895 46.2528 34.9803 46.2528 34.9803L47.6302 34.5699L48.9075 36.0586L53.4929 37.9736L60.778 36.6173L51.3525 39.7848C51.3525 39.7848 51.4685 40.309 52.2481 40.3634C53.0277 40.4183 60.9171 41.0464 60.9171 41.0464L70.0281 37.2481L71.4547 35.3925L72.7964 36.0627C72.7964 36.0627 103.86 23.2099 104.551 22.9356C105.243 22.6612 104.93 21.7783 104.93 21.7783Z" fill="black"/>
<path fill-rule="evenodd" clip-rule="evenodd" d="M49.931 31.5332C51.8305 28.6792 55.1291 26.7914 58.8797 26.7914C62.9221 26.7914 66.4397 28.985 68.2462 32.2171L70.134 32.7887C68.3355 28.4836 63.9973 25.4485 58.9327 25.4485C54.1966 25.4485 50.0965 28.1018 48.1134 31.9657L49.931 31.5332Z" fill="black"/>
</g>
</g>
<defs>
<clipPath id="clip0_1_768">
<rect width="121" height="72" rx="12" fill="white"/>
</clipPath>
<clipPath id="clip1_1_768">
<rect width="89" height="89" fill="white" transform="translate(16 -8.5)"/>
</clipPath>
</defs>
</svg>
