<svg width="121" height="72" viewBox="0 0 121 72" fill="none" xmlns="http://www.w3.org/2000/svg">
<rect width="121" height="72" rx="12" fill="white"/>
<path d="M60.4265 11.2051C46.1922 11.2051 34.8047 22.54 34.8047 36.3774C34.8047 50.2148 46.1922 61.6969 60.4265 61.6969C74.6608 61.6969 86.1981 50.362 86.1981 36.3774C86.1981 22.3928 74.6608 11.2051 60.4265 11.2051ZM60.4265 55.6614C49.6384 55.6614 40.7981 46.9762 40.7981 36.3774C40.7981 25.7785 49.6384 17.0933 60.4265 17.0933C71.2146 17.0933 80.0549 25.7785 80.0549 36.3774C80.0549 47.1234 71.2146 55.6614 60.4265 55.6614Z" fill="url(#paint0_radial_1_680)" stroke="black" stroke-width="2" stroke-miterlimit="10"/>
<path d="M60.4985 56.2871C71.2047 56.2871 79.8838 47.608 79.8838 36.9018C79.8838 26.1957 71.2047 17.5166 60.4985 17.5166C49.7924 17.5166 41.1133 26.1957 41.1133 36.9018C41.1133 47.608 49.7924 56.2871 60.4985 56.2871Z" fill="url(#paint1_radial_1_680)"/>
<path d="M59.1506 35.5486H57.8777L51.9375 21.6945L52.5032 20.2207L59.1506 35.5486Z" fill="#BFBBB9"/>
<path d="M60.9525 15.7129C49.4648 15.7129 40.2148 24.9628 40.2148 36.4506C40.2148 47.9384 49.4648 57.1883 60.9525 57.1883C72.4403 57.1883 81.6903 47.9384 81.6903 36.4506C81.6903 25.112 72.4403 15.7129 60.9525 15.7129ZM65.8759 18.9951L60.9525 30.3337L55.88 18.9951C57.5211 18.5475 59.3114 18.2492 60.9525 18.2492C62.5937 18.3983 64.2348 18.5475 65.8759 18.9951ZM52.4486 20.487L59.4606 36.003H62.1461L69.3073 20.3378C71.9928 21.6806 74.2306 23.7693 76.021 26.3055L66.771 46.894L62.1461 36.8982H59.3114L54.9849 46.7449L45.8841 26.3055C47.5253 23.9185 49.7631 21.8298 52.4486 20.487ZM42.7511 36.5998C42.7511 34.3619 43.1987 32.2732 43.7955 30.4829L54.0897 53.4585C47.3761 50.773 42.7511 44.2086 42.7511 36.5998ZM55.5816 53.9061L60.8034 42.4183L66.0251 53.9061C64.384 54.3537 62.5937 54.652 60.8034 54.652C59.0131 54.8012 57.2227 54.5028 55.5816 53.9061ZM67.6662 53.4585L77.9604 30.1845C78.7064 32.124 79.154 34.3619 79.154 36.5998C79.154 44.2086 74.3798 50.773 67.6662 53.4585Z" fill="url(#paint2_linear_1_680)"/>
<path d="M51.4961 21.6078L51.9365 20.2207C49.4412 21.4691 47.2396 23.4111 45.625 25.6305H46.946C48.1202 23.966 49.7348 22.7176 51.4961 21.6078Z" fill="#544E4E"/>
<mask id="mask0_1_680" style="mask-type:luminance" maskUnits="userSpaceOnUse" x="45" y="20" width="7" height="6">
<path d="M51.4961 21.6078L51.9365 20.2207C49.4412 21.4691 47.2396 23.4111 45.625 25.6305H46.946C48.1202 23.966 49.7348 22.7176 51.4961 21.6078Z" fill="white"/>
</mask>
<g mask="url(#mask0_1_680)">
<path d="M52.5312 20.9379C49.1628 22.8027 47.9379 23.6633 45.7944 26.5322L44.7227 26.3887V25.9584L46.8662 23.6633L49.1628 21.5117L51.1532 20.5076L52.3781 20.2207L52.8374 20.5076L52.5312 20.9379Z" fill="#352D2B"/>
</g>
<path d="M59.1488 36.4502H57.7497L54.6406 43.2596V46.3682L59.1488 36.4502Z" fill="url(#paint3_linear_1_680)"/>
<path d="M54.6414 44.1142L46.9338 26.5322H45.625L54.496 47.2699L54.6414 44.1142Z" fill="white"/>
<mask id="mask1_1_680" style="mask-type:luminance" maskUnits="userSpaceOnUse" x="45" y="26" width="10" height="22">
<path d="M54.6414 44.1142L46.9338 26.5322H45.625L54.496 47.2699L54.6414 44.1142Z" fill="white"/>
</mask>
<g mask="url(#mask1_1_680)">
<path d="M54.6407 47.2699L45.8895 26.5322L45.1602 26.6804L44.7227 31.2723L46.4729 40.4561L48.2231 42.9743L50.5568 45.048L54.2031 47.1218L54.6407 47.2699Z" fill="#979190"/>
</g>
<path d="M61.477 53.3026C63.1368 53.3026 64.6456 53.0075 66.1545 52.7124L66.6072 53.7452C64.9474 54.1879 63.1368 54.4829 61.3261 54.4829C59.5155 54.4829 57.7049 54.1879 55.8942 53.7452L56.3469 52.7124C58.0066 53.0075 59.6664 53.3026 61.477 53.3026ZM54.3853 53.1551L53.6309 51.3846C48.0481 48.5813 44.1251 42.9747 44.1251 36.3354C44.1251 34.86 44.2759 33.237 44.7286 31.9092L43.9742 30.2862C43.2197 32.2042 42.918 34.2698 42.918 36.3354C43.0689 44.0075 47.7463 50.4993 54.3853 53.1551ZM79.8852 36.4829C79.8852 34.2698 79.4325 32.0567 78.6781 30.1387L77.9237 31.7616C78.3763 33.237 78.5272 34.86 78.5272 36.4829C78.5272 43.1223 74.6042 48.7288 69.0213 51.5321L68.2669 53.1551C75.0568 50.4993 79.8852 44.0075 79.8852 36.4829Z" fill="url(#paint4_linear_1_680)"/>
<mask id="mask2_1_680" style="mask-type:luminance" maskUnits="userSpaceOnUse" x="42" y="30" width="38" height="25">
<path d="M61.477 53.3026C63.1368 53.3026 64.6456 53.0075 66.1545 52.7124L66.6072 53.7452C64.9474 54.1879 63.1368 54.4829 61.3261 54.4829C59.5155 54.4829 57.7049 54.1879 55.8942 53.7452L56.3469 52.7124C58.0066 53.0075 59.6664 53.3026 61.477 53.3026ZM54.3853 53.1551L53.6309 51.3846C48.0481 48.5813 44.1251 42.9747 44.1251 36.3354C44.1251 34.86 44.2759 33.237 44.7286 31.9092L43.9742 30.2862C43.2197 32.2042 42.918 34.2698 42.918 36.3354C43.0689 44.0075 47.7463 50.4993 54.3853 53.1551ZM79.8852 36.4829C79.8852 34.2698 79.4325 32.0567 78.6781 30.1387L77.9237 31.7616C78.3763 33.237 78.5272 34.86 78.5272 36.4829C78.5272 43.1223 74.6042 48.7288 69.0213 51.5321L68.2669 53.1551C75.0568 50.4993 79.8852 44.0075 79.8852 36.4829Z" fill="white"/>
</mask>
<g mask="url(#mask2_1_680)">
<path d="M79.8852 36.4829C79.8852 44.0075 75.037 50.4993 68.3708 53.1551L68.5223 52.7124C75.037 50.0567 79.5822 43.7124 79.5822 36.4829C79.5822 34.4174 79.2792 32.3518 78.5216 30.5813L78.6731 30.1387C79.4307 32.0567 79.8852 34.2698 79.8852 36.4829ZM43.221 36.4829C43.221 34.4174 43.524 32.4993 44.13 30.7288L43.9785 30.2862C43.221 32.2042 42.918 34.2698 42.918 36.3354C42.918 43.86 47.6146 50.3518 54.4323 53.0075L54.1293 52.7124C47.6146 50.0567 43.221 43.7124 43.221 36.4829ZM61.4016 54.4829C59.5835 54.4829 57.7655 54.1879 55.9474 53.7452L56.0989 53.4501C57.7655 53.8928 59.5835 54.1879 61.4016 54.1879C63.2196 54.1879 64.8862 53.8928 66.5527 53.4501L66.7042 53.7452C64.8862 54.1879 63.2196 54.4829 61.4016 54.4829Z" fill="url(#paint5_linear_1_680)"/>
</g>
<path d="M60.9525 57.1883C72.4057 57.1883 81.6903 47.9037 81.6903 36.4506C81.6903 24.9975 72.4057 15.7129 60.9525 15.7129C49.4994 15.7129 40.2148 24.9975 40.2148 36.4506C40.2148 47.9037 49.4994 57.1883 60.9525 57.1883Z" stroke="black" stroke-miterlimit="10"/>
<path d="M74.0869 25.4918L75.3779 25.6305C73.8 23.4111 71.5049 21.4691 69.0664 20.2207L69.2098 20.4981L69.6402 21.6078C71.3615 22.5788 72.7959 23.966 74.0869 25.4918Z" fill="#5F585A"/>
<mask id="mask3_1_680" style="mask-type:luminance" maskUnits="userSpaceOnUse" x="69" y="20" width="7" height="6">
<path d="M74.0869 25.4918L75.3779 25.6305C73.8 23.4111 71.5049 21.4691 69.0664 20.2207L69.2098 20.4981L69.6402 21.6078C71.3615 22.5788 72.7959 23.966 74.0869 25.4918Z" fill="white"/>
</mask>
<g mask="url(#mask3_1_680)">
<path d="M75.0985 26.238C73.6231 24.0299 70.2296 21.0858 68.1641 20.497L68.6067 19.3193L71.2624 19.9082L74.5083 23.4411L76.2788 25.502V26.5325L75.0985 26.238Z" fill="#282423"/>
</g>
<path d="M55.543 19.2376L55.9805 20.2212C57.4391 19.7294 59.0435 19.5655 60.6478 19.5655C62.1064 19.5655 63.7108 19.7294 65.0234 20.2212L65.461 19.2376C63.8566 18.7458 62.2522 18.418 60.6478 18.418C58.8976 18.418 57.1474 18.7458 55.543 19.2376Z" fill="#544D4F"/>
<mask id="mask4_1_680" style="mask-type:luminance" maskUnits="userSpaceOnUse" x="55" y="18" width="11" height="3">
<path d="M55.543 19.2376L55.9805 20.2212C57.4391 19.7294 59.0435 19.5655 60.6478 19.5655C62.1064 19.5655 63.7108 19.7294 65.0234 20.2212L65.461 19.2376C63.8566 18.7458 62.2522 18.418 60.6478 18.418C58.8976 18.418 57.1474 18.7458 55.543 19.2376Z" fill="white"/>
</mask>
<g mask="url(#mask4_1_680)">
<path d="M65.7856 19.1396C62.7561 17.8773 57.9954 18.2379 55.8315 19.3199L55.543 18.5986L56.4085 17.6969C56.4085 17.6969 57.9954 17.5166 58.1397 17.5166H62.4676L64.4872 17.6969L66.0741 18.2379L66.3626 18.7789L65.7856 19.1396Z" fill="#352D2B"/>
</g>
<path d="M61.8555 37.2741H63.3097L66.2182 43.9877L73.9258 26.5322L75.3801 26.6814L66.3637 47.2699L61.8555 37.2741Z" fill="white"/>
<mask id="mask5_1_680" style="mask-type:luminance" maskUnits="userSpaceOnUse" x="61" y="26" width="15" height="22">
<path d="M61.8555 37.2741H63.3097L66.2182 43.9877L73.9258 26.5322L75.3801 26.6814L66.3637 47.2699L61.8555 37.2741Z" fill="white"/>
</mask>
<g mask="url(#mask5_1_680)">
<path d="M66.2271 43.12L66.3637 47.27L62.2653 41.4896L61.8555 37.4878L61.9921 36.4503L63.4948 36.5985L64.5877 37.3396L66.2271 43.12Z" fill="url(#paint6_linear_1_680)"/>
</g>
<mask id="mask6_1_680" style="mask-type:luminance" maskUnits="userSpaceOnUse" x="61" y="26" width="15" height="22">
<path d="M61.8555 37.2741H63.3097L66.2182 43.9877L73.9258 26.5322L75.3801 26.6814L66.3637 47.2699L61.8555 37.2741Z" fill="white"/>
</mask>
<g mask="url(#mask6_1_680)">
<path d="M62.2826 37.4265L66.4111 46.9777L75.2377 26.5322L75.3801 27.1292L72.1057 35.7849L66.9806 48.1716L65.6993 47.7239L61.9978 37.725L61.8555 37.128L62.2826 37.4265Z" fill="url(#paint7_linear_1_680)"/>
</g>
<path d="M61.8555 35.5486L69.346 20.2207L69.9702 21.6805L63.416 35.5486H61.8555Z" fill="#ADA6A5"/>
<path d="M60.0506 11.2051C46.0911 11.2051 34.8047 22.4915 34.8047 36.451C34.8047 50.4105 46.0911 61.6969 60.0506 61.6969C74.0101 61.6969 85.2965 50.4105 85.2965 36.451C85.2965 22.4915 74.0101 11.2051 60.0506 11.2051ZM60.0506 60.9544C46.5366 60.9544 35.5472 49.965 35.5472 36.451C35.5472 22.937 46.5366 11.9476 60.0506 11.9476C73.5646 11.9476 84.554 22.937 84.554 36.451C84.554 49.965 73.5646 60.9544 60.0506 60.9544Z" fill="black"/>
<path d="M60.4265 11.2051C46.1922 11.2051 34.8047 22.54 34.8047 36.3774C34.8047 50.2148 46.1922 61.6969 60.4265 61.6969C74.6608 61.6969 86.1981 50.362 86.1981 36.3774C86.1981 22.3928 74.6608 11.2051 60.4265 11.2051ZM60.4265 60.9608C46.6417 60.9608 35.5539 49.9204 35.5539 36.3774C35.5539 22.8344 46.6417 11.9411 60.4265 11.9411C74.2113 11.9411 85.2991 22.8344 85.2991 36.3774C85.2991 49.9204 74.2113 60.9608 60.4265 60.9608Z" fill="url(#paint8_linear_1_680)"/>
<defs>
<radialGradient id="paint0_radial_1_680" cx="0" cy="0" r="1" gradientUnits="userSpaceOnUse" gradientTransform="translate(50.2647 25.3811) scale(33.5706 32.9816)">
<stop stop-color="#386EAC"/>
<stop offset="0.213" stop-color="#366CAA"/>
<stop offset="0.349" stop-color="#3166A3"/>
<stop offset="0.464" stop-color="#295B98"/>
<stop offset="0.567" stop-color="#1D4D88"/>
<stop offset="0.661" stop-color="#0F3C75"/>
<stop offset="0.749" stop-color="#002A60"/>
<stop offset="0.788" stop-color="#002256"/>
</radialGradient>
<radialGradient id="paint1_radial_1_680" cx="0" cy="0" r="1" gradientUnits="userSpaceOnUse" gradientTransform="translate(52.3836 28.2456) scale(24.4985)">
<stop stop-color="#6895C7"/>
<stop offset="0.136" stop-color="#6490C3"/>
<stop offset="0.285" stop-color="#5882B6"/>
<stop offset="0.439" stop-color="#446CA2"/>
<stop offset="0.598" stop-color="#2C5087"/>
<stop offset="0.758" stop-color="#0F3469"/>
<stop offset="0.861" stop-color="#002256"/>
</radialGradient>
<linearGradient id="paint2_linear_1_680" x1="61.0436" y1="15.7905" x2="61.0092" y2="57.3822" gradientUnits="userSpaceOnUse">
<stop stop-color="#F8F8F7"/>
<stop offset="0.192" stop-color="#F5F5F4"/>
<stop offset="0.315" stop-color="#ECECEB"/>
<stop offset="0.418" stop-color="#DDDBDB"/>
<stop offset="0.511" stop-color="#C8C6C5"/>
<stop offset="0.596" stop-color="#AEABAB"/>
<stop offset="0.633" stop-color="#A09D9E"/>
<stop offset="0.704" stop-color="#B4B1B1"/>
<stop offset="0.807" stop-color="#CAC7C8"/>
<stop offset="0.907" stop-color="#D8D5D6"/>
<stop offset="1" stop-color="#DDDADB"/>
</linearGradient>
<linearGradient id="paint3_linear_1_680" x1="55.934" y1="40.977" x2="56.8042" y2="41.3502" gradientUnits="userSpaceOnUse">
<stop offset="0.76" stop-color="white"/>
<stop offset="0.84" stop-color="#FDFDFD"/>
<stop offset="0.878" stop-color="#F8F8F8"/>
<stop offset="0.906" stop-color="#EFEFF0"/>
<stop offset="0.93" stop-color="#E1E2E3"/>
<stop offset="0.952" stop-color="#CFD0D1"/>
<stop offset="0.971" stop-color="#B8B9BB"/>
<stop offset="0.988" stop-color="#9C9D9F"/>
<stop offset="1" stop-color="#848687"/>
</linearGradient>
<linearGradient id="paint4_linear_1_680" x1="42.9919" y1="42.2813" x2="79.8082" y2="42.2813" gradientUnits="userSpaceOnUse">
<stop stop-color="#7C7571"/>
<stop offset="0.021" stop-color="#8F8885"/>
<stop offset="0.061" stop-color="#AFAAA7"/>
<stop offset="0.107" stop-color="#CBC7C5"/>
<stop offset="0.16" stop-color="#E2E0DE"/>
<stop offset="0.223" stop-color="#F3F1F1"/>
<stop offset="0.308" stop-color="#FCFCFC"/>
<stop offset="0.511" stop-color="white"/>
<stop offset="0.727" stop-color="#FCFCFC"/>
<stop offset="0.805" stop-color="#F3F2F1"/>
<stop offset="0.861" stop-color="#E4E1E0"/>
<stop offset="0.906" stop-color="#CECAC8"/>
<stop offset="0.945" stop-color="#B3ADAA"/>
<stop offset="0.978" stop-color="#948D8A"/>
<stop offset="1" stop-color="#7C7571"/>
</linearGradient>
<linearGradient id="paint5_linear_1_680" x1="42.9286" y1="42.2813" x2="79.8958" y2="42.2813" gradientUnits="userSpaceOnUse">
<stop stop-color="#191515"/>
<stop offset="0.068" stop-color="#342D2D"/>
<stop offset="0.167" stop-color="#5B5352"/>
<stop offset="0.261" stop-color="#7F7676"/>
<stop offset="0.349" stop-color="#9B9393"/>
<stop offset="0.427" stop-color="#AEA6A6"/>
<stop offset="0.489" stop-color="#B4ADAC"/>
<stop offset="0.56" stop-color="#AAA2A2"/>
<stop offset="0.669" stop-color="#8F8686"/>
<stop offset="0.803" stop-color="#675E5F"/>
<stop offset="0.955" stop-color="#393233"/>
<stop offset="1" stop-color="#2C2628"/>
</linearGradient>
<linearGradient id="paint6_linear_1_680" x1="64.2762" y1="41.8157" x2="65.7616" y2="41.2035" gradientUnits="userSpaceOnUse">
<stop stop-color="#8A817F"/>
<stop offset="0.349" stop-color="#B5AFAE"/>
<stop offset="0.776" stop-color="#EAE7E7"/>
<stop offset="1" stop-color="white"/>
</linearGradient>
<linearGradient id="paint7_linear_1_680" x1="61.5921" y1="37.3221" x2="75.2064" y2="37.3221" gradientUnits="userSpaceOnUse">
<stop stop-color="#332726"/>
<stop offset="0.084" stop-color="#3C302E"/>
<stop offset="0.343" stop-color="#564A47"/>
<stop offset="0.588" stop-color="#6A605D"/>
<stop offset="0.814" stop-color="#786F6C"/>
<stop offset="1" stop-color="#7C7571"/>
</linearGradient>
<linearGradient id="paint8_linear_1_680" x1="41.5772" y1="20.7661" x2="80.3994" y2="53.8723" gradientUnits="userSpaceOnUse">
<stop stop-color="#EEEFEE"/>
<stop offset="0.089" stop-color="#D7D7D6"/>
<stop offset="0.223" stop-color="#BFBFBF"/>
<stop offset="0.381" stop-color="#AFAEAE"/>
<stop offset="0.586" stop-color="#A6A5A5"/>
<stop offset="1" stop-color="#A3A2A3"/>
</linearGradient>
</defs>
</svg>
