<svg width="121" height="72" viewBox="0 0 121 72" fill="none" xmlns="http://www.w3.org/2000/svg">
<rect width="121" height="72" rx="12" fill="white"/>
<g clip-path="url(#clip0_1_737)">
<path d="M61.0106 18.7979C65.7926 18.7979 70.0433 20.7436 73.1428 23.8392C76.3308 26.9347 78.1905 31.2685 78.1905 36.0444C78.1905 40.7307 76.3308 45.0657 73.1428 48.16C70.0421 51.2568 65.7914 53.2014 61.0106 53.2014C56.2286 53.2014 51.9779 51.2556 48.7899 48.16C45.6892 45.0645 43.7422 40.7307 43.7422 36.0444C43.7422 31.2672 45.6904 26.9347 48.7899 23.8379C51.9779 20.7436 56.2286 18.7979 61.0106 18.7979ZM61.0106 19.0632C56.5262 19.0683 52.2269 20.8495 49.0555 24.016C45.9549 27.1116 44.0079 31.3569 44.0079 36.0444C44.0079 40.7307 45.9561 44.9761 49.0555 47.9844C52.0665 51.0799 56.3159 52.9373 61.0106 52.9373C65.7041 52.9373 69.9548 51.0787 72.9657 47.9844C76.0664 44.9773 77.9248 40.732 77.9248 36.0444C77.9248 31.3569 76.0651 27.1116 72.9657 24.016C69.7945 20.8492 65.4951 19.068 61.0106 19.0632Z" fill="#BCBCB6"/>
<path d="M60.4986 9.5C66.4673 9.5 71.9971 11.5475 76.3858 14.9336L79.2823 11.9941L84.3733 17.1605L81.4767 20.1891C84.7244 24.6429 86.5676 30.0765 86.5676 35.9555C86.5676 50.5639 74.8936 62.5 60.4986 62.5C46.1037 62.5 34.4297 50.5639 34.4297 35.9555C34.4297 21.3458 46.1037 9.5 60.4986 9.5ZM60.4986 15.7353C49.5269 15.7353 40.5739 24.821 40.5739 35.9555C40.5739 47.179 49.5269 56.1756 60.4986 56.1756C71.4704 56.1756 80.4234 47.179 80.4234 35.9555C80.4234 24.821 71.4704 15.7353 60.4986 15.7353Z" fill="url(#paint0_radial_1_737)"/>
<path d="M60.0328 16.0088C65.5398 16.0088 70.5222 18.2421 74.1935 21.994C76.0554 23.8921 77.5315 26.1481 78.5366 28.6318C79.5417 31.1154 80.0561 33.7778 80.0501 36.4655C80.0501 42.0922 77.7774 47.1852 74.1935 50.9371C70.5222 54.5985 65.5398 56.9211 60.0328 56.9211C54.7246 56.9157 49.634 54.7646 45.8722 50.9371C42.2883 47.1852 40.0156 42.0922 40.0156 36.4655C40.0156 30.7484 42.2883 25.6553 45.8722 21.994C49.4561 18.2421 54.5259 16.0088 60.0328 16.0088ZM60.0328 16.2768C54.6133 16.2768 49.6309 18.5101 46.047 22.1726C42.4631 25.8352 40.2779 30.8377 40.2779 36.4655C40.2779 42.0041 42.4631 47.0947 46.047 50.7585C49.6297 54.3317 54.6133 56.6543 60.0328 56.6543C65.4523 56.6543 70.4348 54.3317 74.0199 50.7585C75.8528 48.88 77.3057 46.6509 78.2956 44.1985C79.2855 41.7461 79.793 39.1184 79.789 36.4655C79.789 30.8377 77.6025 25.8352 74.0199 22.1714C70.3069 18.3888 65.2756 16.2684 60.0328 16.2768Z" fill="url(#paint1_linear_1_737)"/>
<path d="M60.9642 9.5C66.9988 9.5 72.6784 11.5384 77.1156 14.9948L77.0268 15.0835C72.4086 11.5757 66.7663 9.67668 60.9642 9.67725C46.4101 9.67725 34.6072 21.4634 34.6072 35.9994C34.6072 50.5341 46.4101 62.4101 60.9642 62.4101C75.5182 62.4101 87.3212 50.5341 87.3212 35.9994C87.3212 30.15 85.4575 24.7425 82.174 20.3124L82.2628 20.2238C85.5463 24.6564 87.4987 30.0614 87.4987 35.9994C87.4987 43.3554 84.4813 50.0024 79.6892 54.7882C74.8958 59.5753 68.3299 62.4999 60.9642 62.4999C57.4886 62.5074 54.0456 61.8301 50.8325 60.5068C47.6193 59.1835 44.6992 57.2402 42.2392 54.7882C37.447 49.9137 34.4297 43.3554 34.4297 35.9994C34.4297 28.732 37.447 22.085 42.2392 17.2991C47.0313 12.5133 53.5984 9.5 60.9642 9.5Z" fill="url(#paint2_radial_1_737)"/>
<path d="M60.0329 16.0088C71.0556 16.0088 80.0501 24.9033 80.0501 36.0006C80.0501 47.0087 71.0556 55.9912 60.0329 55.9912C49.0102 55.9912 40.0156 47.0075 40.0156 35.9994C40.0156 24.9033 49.0102 16.0088 60.0329 16.0088ZM60.0329 18.8268C50.5974 18.8268 42.9256 26.4885 42.9256 35.9994C42.9256 45.4211 50.5974 53.0839 60.0329 53.0839C69.4683 53.0839 77.1401 45.4211 77.1401 35.9994C77.1401 26.4885 69.4683 18.8268 60.0329 18.8268Z" fill="url(#paint3_radial_1_737)"/>
<path opacity="0.67" d="M36.2931 42.1984C36.2931 42.2242 36.2992 42.2462 36.3128 42.2683C36.3238 42.2892 36.3422 42.2978 36.3693 42.2978C36.3889 42.2978 36.4061 42.2929 36.427 42.283C36.4493 42.2711 36.47 42.2562 36.4884 42.2389V42.0438C36.4147 42.0561 36.3643 42.0733 36.3361 42.099C36.3223 42.1116 36.3114 42.127 36.304 42.1441C36.2966 42.1613 36.2929 42.1797 36.2931 42.1984Z" fill="url(#paint4_linear_1_737)"/>
<path opacity="0.67" d="M40.0156 42.0439H40.1397V42.1482H40.0156V42.0439Z" fill="url(#paint5_linear_1_737)"/>
<path opacity="0.67" d="M40.0156 42.0439H40.1397V42.1507H40.0156V42.0439Z" fill="url(#paint6_linear_1_737)"/>
<path opacity="0.67" d="M38.1563 42.1985C38.1563 42.2243 38.1636 42.2464 38.1759 42.2684C38.187 42.2893 38.2054 42.2979 38.2324 42.2979C38.2521 42.2979 38.2705 42.293 38.2902 42.2832C38.3098 42.2734 38.3295 42.2586 38.3516 42.239V42.0439C38.2779 42.0562 38.2275 42.0734 38.1993 42.0992C38.1855 42.1118 38.1745 42.1271 38.1671 42.1442C38.1597 42.1614 38.156 42.1799 38.1563 42.1985Z" fill="url(#paint7_linear_1_737)"/>
<path opacity="0.67" d="M40.9492 42.0439H41.2882V42.2047H40.9492V42.0439Z" fill="url(#paint8_linear_1_737)"/>
<path opacity="0.67" d="M44.1068 41.1143H34.4297C34.6686 42.0696 34.9997 42.9962 35.3764 43.9037H45.6021C44.9906 43.0197 44.4895 42.0849 44.1068 41.1143ZM39.9811 41.2917L40.0557 41.331L40.0292 41.3565V41.4214H40.1505L40.1771 41.3852L40.2276 41.4352L40.2011 41.4607V41.5287H40.215L40.2516 41.4894L40.3047 41.5468H40.1985L40.2011 41.669L40.1543 41.6923V41.6562H40.0279V41.7614H40.124L40.1568 41.7178L40.2074 41.7795H40.0279V41.8762H40.1846L40.2213 41.8262L40.2782 41.8921H40.0279C40.0279 41.9325 40.0292 41.9761 40.0342 42.0218L39.9811 42.043C39.9837 41.9878 39.9862 41.9378 39.9862 41.8921H39.8522C39.8345 41.8914 39.8169 41.8951 39.8016 41.9027L39.7713 41.8741H39.9862V41.7774H39.8889C39.8699 41.7774 39.8585 41.7805 39.8484 41.788L39.8219 41.7604H39.9862V41.6551H39.8889C39.8699 41.6551 39.8585 41.6583 39.8484 41.6668L39.8219 41.6371H39.9862V41.5446H39.8421C39.8231 41.5446 39.8118 41.5478 39.8029 41.5553L39.7764 41.5266H39.9875V41.4373H39.8952C39.8762 41.4373 39.8636 41.4416 39.8547 41.449L39.8282 41.4203H39.9849C39.9858 41.3774 39.9845 41.3345 39.9811 41.2917ZM35.9996 42.0281H35.7392V42.0058H35.8163C35.8289 42.0058 35.8365 42.0037 35.8416 41.9984C35.8466 41.9931 35.8479 41.9867 35.8479 41.9771V41.4649C35.8484 41.4575 35.8462 41.45 35.8416 41.4437C35.8383 41.4409 35.8343 41.4387 35.83 41.4372C35.8256 41.4358 35.821 41.4351 35.8163 41.4352H35.7404V41.4139H35.7784C35.8179 41.4141 35.8564 41.4037 35.8883 41.3842H35.8947V41.9761C35.8947 41.9856 35.8972 41.9931 35.9022 41.9973C35.9086 42.0016 35.9149 42.0048 35.925 42.0048H36.0034V42.0271H35.9996V42.0281ZM36.4748 42.009C36.4634 42.0228 36.4483 42.0303 36.4318 42.0303C36.4185 42.0308 36.4053 42.027 36.3952 42.0196C36.385 42.0092 36.3781 41.9968 36.375 41.9835C36.3558 41.9979 36.3351 42.0107 36.313 42.0218C36.2914 42.0307 36.2676 42.035 36.2435 42.0345C36.2264 42.0353 36.2093 42.0329 36.1934 42.0276C36.1774 42.0223 36.1631 42.0141 36.1512 42.0037C36.1405 41.9949 36.1321 41.9843 36.1264 41.9726C36.1208 41.9609 36.118 41.9483 36.1184 41.9357C36.1184 41.8921 36.1361 41.8571 36.1702 41.8284C36.2043 41.8018 36.2726 41.7816 36.375 41.7689V41.7253C36.3758 41.7047 36.3705 41.6843 36.3598 41.6658C36.3484 41.6488 36.3269 41.6424 36.2903 41.6424C36.2536 41.6424 36.2258 41.6488 36.2119 41.6637C36.1967 41.6775 36.1892 41.6892 36.1955 41.704C36.1992 41.7133 36.1992 41.7234 36.1955 41.7327C36.1933 41.7371 36.1896 41.7409 36.1849 41.7435C36.1801 41.7461 36.1746 41.7476 36.1689 41.7476C36.1648 41.7477 36.1607 41.747 36.157 41.7455C36.1533 41.744 36.15 41.7418 36.1475 41.7391C36.1411 41.7316 36.1376 41.7228 36.1373 41.7136C36.1373 41.6913 36.1525 41.6711 36.1803 41.6509C36.211 41.6318 36.2484 41.6221 36.2865 41.6233C36.3307 41.6233 36.3649 41.6318 36.3863 41.6488C36.4104 41.6679 36.4192 41.6923 36.4192 41.7253V41.9623C36.4192 41.9824 36.4205 41.9931 36.4243 41.9963C36.4281 41.9995 36.4331 42.0016 36.4432 42.0016C36.4546 42.0016 36.4634 41.9963 36.4672 41.9856C36.471 41.975 36.4736 41.9601 36.4736 41.941H36.49C36.4913 41.9729 36.4862 41.9963 36.4748 42.009ZM36.9084 42.0281H36.7681V42.0058H36.7858C36.7971 42.0058 36.8047 42.0037 36.8098 41.9984C36.8148 41.9931 36.8148 41.9878 36.8148 41.9782V41.737C36.8165 41.7142 36.8108 41.6914 36.7984 41.6711C36.7935 41.6638 36.7864 41.6577 36.7777 41.6536C36.769 41.6495 36.7591 41.6474 36.7491 41.6477C36.726 41.6488 36.7041 41.6567 36.6872 41.67C36.663 41.687 36.6432 41.708 36.629 41.7317V41.9793C36.629 41.9888 36.6316 41.9963 36.6379 42.0005C36.6429 42.0048 36.6505 42.008 36.6594 42.008H36.6758V42.0303H36.5355V42.008H36.5519C36.5646 42.008 36.5722 42.0058 36.5772 42.0005C36.5823 41.9952 36.5835 41.9888 36.5835 41.9793V41.67C36.5835 41.6637 36.5823 41.6562 36.5797 41.653C36.5772 41.6498 36.5722 41.6477 36.5658 41.6477H36.5355V41.6265H36.5595C36.5722 41.6265 36.5835 41.6254 36.5924 41.6233C36.6012 41.6211 36.6126 41.6158 36.6214 41.6073H36.6278V41.6902C36.6446 41.6703 36.6646 41.6525 36.6872 41.6371C36.7052 41.6252 36.7275 41.6189 36.7504 41.619C36.7883 41.619 36.8161 41.6296 36.8338 41.6498C36.8536 41.6796 36.8629 41.7135 36.8603 41.7476V41.9771C36.8603 41.9867 36.8629 41.9941 36.8692 41.9984C36.8755 42.0026 36.8831 42.0058 36.8919 42.0058H36.9084V42.0281ZM37.2636 42.0005C37.2433 42.0228 37.2193 42.0324 37.1865 42.0324C37.1536 42.0324 37.1283 42.0218 37.1119 42.0005C37.0954 41.9793 37.0853 41.9453 37.0853 41.8996V41.6488H36.9893V41.6275H37.0158C37.0285 41.6278 37.0411 41.6256 37.0525 41.6209C37.0639 41.6163 37.0739 41.6095 37.0815 41.601C37.0992 41.5829 37.1081 41.5553 37.1131 41.517L37.1157 41.4894H37.1359V41.6286H37.2686V41.6498H37.1359V41.9155C37.1359 41.9495 37.1422 41.9729 37.1536 41.9835C37.165 41.9963 37.1801 42.0016 37.2041 42.0016C37.2145 42.0018 37.2247 41.9999 37.234 41.996C37.2433 41.9921 37.2512 41.9863 37.2572 41.9793C37.2719 41.9593 37.281 41.9367 37.2838 41.9134L37.3015 41.9208C37.2965 41.9495 37.2835 41.9769 37.2636 42.0005ZM37.7552 42.009C37.7439 42.0228 37.73 42.0303 37.7123 42.0303C37.6971 42.0303 37.6857 42.0271 37.6769 42.0196C37.6668 42.0122 37.6604 41.9994 37.6554 41.9835C37.6363 41.9979 37.6155 42.0107 37.5935 42.0218C37.5723 42.0307 37.5489 42.0351 37.5252 42.0345C37.5091 42.0352 37.493 42.0332 37.4779 42.0286C37.4628 42.024 37.4489 42.0169 37.4371 42.0076C37.4253 41.9984 37.4158 41.9873 37.4092 41.9749C37.4027 41.9626 37.3991 41.9492 37.3988 41.9357C37.3985 41.9158 37.4029 41.896 37.4118 41.8776C37.4207 41.8592 37.4339 41.8424 37.4506 41.8284C37.4848 41.8018 37.553 41.7816 37.6554 41.7689V41.7253C37.6562 41.7047 37.651 41.6843 37.6402 41.6658C37.6301 41.6488 37.6074 41.6424 37.572 41.6424C37.534 41.6424 37.5062 41.6488 37.4923 41.6637C37.4772 41.6775 37.4708 41.6892 37.4759 41.704C37.4797 41.7147 37.4797 41.7242 37.4759 41.7327C37.4721 41.7412 37.462 41.7476 37.4494 41.7476C37.4452 41.7477 37.4412 41.747 37.4374 41.7455C37.4337 41.744 37.4304 41.7418 37.4279 41.7391C37.422 41.7315 37.4189 41.7226 37.419 41.7136C37.419 41.6913 37.4329 41.6711 37.462 41.6509C37.4925 41.6316 37.53 41.6218 37.5682 41.6233C37.6112 41.6233 37.6465 41.6318 37.668 41.6488C37.6908 41.6679 37.6996 41.6923 37.6996 41.7253V41.9623C37.6996 41.9824 37.7009 41.9931 37.7047 41.9963C37.7085 41.9995 37.7135 42.0016 37.7249 42.0016C37.7363 42.0016 37.7439 41.9963 37.7477 41.9856C37.7515 41.975 37.754 41.9601 37.754 41.941H37.7704C37.7733 41.9644 37.768 41.988 37.7552 42.009ZM38.1698 41.7008C38.1648 41.7093 38.1559 41.7125 38.1446 41.7125C38.1319 41.7125 38.1231 41.7093 38.118 41.7008C38.1122 41.6925 38.1104 41.6826 38.113 41.6732L38.1104 41.6541C38.1092 41.6509 38.1028 41.6477 38.0915 41.6477C38.0725 41.6477 38.0523 41.6594 38.0257 41.6838C37.996 41.7138 37.9729 41.748 37.9575 41.7848V41.9793C37.9575 41.9888 37.96 41.9963 37.9651 42.0005C37.9701 42.0048 37.9777 42.008 37.9878 42.008H38.0611V42.0303H37.8159V42.008H37.8842C37.8956 42.008 37.9031 42.0058 37.9082 42.0005C37.9132 41.9952 37.9145 41.9888 37.9145 41.9793V41.6817C37.9146 41.6736 37.9125 41.6656 37.9082 41.6583C37.9031 41.653 37.8956 41.6498 37.8842 41.6498H37.8159V41.6286H37.8425C37.8791 41.6288 37.9153 41.6223 37.9486 41.6095H37.9587V41.7391C37.9773 41.7068 38.0016 41.6771 38.0308 41.6509C38.0408 41.6418 38.0529 41.6344 38.0664 41.6293C38.0798 41.6242 38.0944 41.6214 38.1092 41.6211C38.1319 41.6211 38.1483 41.6265 38.161 41.6371C38.1736 41.6477 38.1799 41.6583 38.1799 41.6732C38.1787 41.686 38.1762 41.6955 38.1698 41.7008ZM39.1115 41.8921V42.0356C39.1115 42.0855 39.0862 42.1206 39.0382 42.1397C39.0369 42.1047 39.0015 42.0781 38.9346 42.0621V42.0473L39.0306 42.0558C39.0521 42.0568 39.0597 42.042 39.0597 42.0111V41.8921H38.7917C38.7687 41.8915 38.7459 41.8952 38.7247 41.9027L38.6982 41.8751H39.0609L39.0584 41.771L39.1014 41.7922L39.1899 41.7104H38.9156L38.8865 41.721L38.86 41.6923H39.1899L39.2265 41.6562L39.2859 41.7274C39.2556 41.7232 39.1987 41.7476 39.1128 41.8029L39.1456 41.8209L39.1128 41.8432V41.8741H39.3365L39.3833 41.8241L39.4503 41.8921H39.1115ZM39.4515 41.6775C39.4199 41.6775 39.3934 41.6923 39.3782 41.721C39.3138 41.6936 39.2569 41.6553 39.211 41.6085C39.1651 41.5616 39.1313 41.5073 39.1115 41.449H39.0925C39.0925 41.5595 39.0938 41.6275 39.0951 41.6488L39.0382 41.6647C39.0407 41.6116 39.042 41.5468 39.042 41.466C38.9688 41.5947 38.8452 41.6983 38.6919 41.7593L38.6893 41.7433C38.8232 41.6718 38.9294 41.5692 38.9952 41.4479H38.7892C38.7662 41.4473 38.7433 41.451 38.7222 41.4586L38.6957 41.4299H39.042L39.0382 41.3013L39.1241 41.3406L39.0925 41.365V41.4299H39.3378L39.3845 41.3799L39.4439 41.4479H39.1279C39.1545 41.5046 39.1984 41.5543 39.2553 41.592C39.3121 41.6297 39.3798 41.6541 39.4515 41.6626V41.6775ZM40.3123 42.0643C40.2681 42.0791 40.2466 42.0951 40.2516 42.1185C40.1817 42.1206 40.1117 42.1206 40.0418 42.1185C39.9726 42.1177 39.9043 42.1054 39.8408 42.0823C39.7883 42.0635 39.7413 42.0352 39.7031 41.9995C39.664 42.0552 39.6104 42.1028 39.5463 42.1387L39.5362 42.128C39.5967 42.0831 39.6453 42.0281 39.679 41.9665C39.6424 41.909 39.6156 41.8475 39.5994 41.7837L39.6133 41.7774C39.6339 41.8297 39.6605 41.8803 39.6929 41.9283C39.7157 41.8656 39.7309 41.7837 39.7397 41.6849H39.6424L39.6158 41.7242L39.5703 41.6743L39.6095 41.6551C39.6497 41.5859 39.6877 41.5157 39.7233 41.4447H39.6146L39.5767 41.4554L39.5501 41.4267H39.7283L39.7574 41.3874L39.8042 41.4458L39.7675 41.4639C39.7309 41.5287 39.6892 41.5967 39.6474 41.6679H39.7372L39.7637 41.636L39.8143 41.686L39.7852 41.7104C39.7756 41.7951 39.7557 41.8788 39.7258 41.9601C39.7572 41.9916 39.7983 42.0151 39.8446 42.0281C39.902 42.0454 39.962 42.0554 40.0228 42.0579C40.0898 42.0632 40.1872 42.0579 40.3161 42.0494L40.3123 42.0643ZM41.1339 42.0568C41.0947 42.0643 41.0707 42.0823 41.0644 42.1153C41.0063 42.0965 40.9508 42.0727 40.8988 42.0441C40.849 42.0144 40.8062 41.9773 40.7724 41.9346C40.731 41.8794 40.7022 41.8181 40.6877 41.754H40.5815V42.0409L40.761 41.958L40.7673 41.9686C40.6876 42.0076 40.6176 42.0592 40.5613 42.1206L40.5221 42.06C40.5321 42.047 40.5377 42.0319 40.5386 42.0165V41.4989C40.5386 41.4607 40.5373 41.4277 40.5348 41.399L40.5815 41.4341H40.7509C40.7441 41.3894 40.7246 41.3468 40.694 41.3098L40.7003 41.2981C40.756 41.3247 40.7876 41.348 40.7951 41.3693C40.8027 41.3905 40.7951 41.4129 40.7724 41.4341H40.9228L40.9494 41.399L41.0024 41.449L40.9721 41.4702V41.6743L40.9746 41.7678L40.9279 41.7859V41.754H40.7079C40.7278 41.8097 40.7581 41.8625 40.7977 41.9102C40.8766 41.8734 40.9469 41.8248 41.005 41.7667L41.0543 41.8379H41.0151C40.9481 41.8624 40.8824 41.8932 40.8116 41.9229C40.8532 41.9644 40.9067 41.9962 40.967 42.0154C41.0209 42.0321 41.0778 42.0407 41.1352 42.0409L41.1339 42.0568Z" fill="url(#paint9_linear_1_737)"/>
<path opacity="0.67" d="M40.9492 42.0439H41.2882V42.1887H40.9492V42.0439Z" fill="url(#paint10_linear_1_737)"/>
<path opacity="0.86" d="M76.895 41.1143H86.5709C86.328 42.0604 86.0117 42.9923 85.6241 43.9037H75.3984C76.0052 43.0249 76.5107 42.094 76.895 41.1143Z" fill="url(#paint11_linear_1_737)"/>
<path d="M86.6156 29.0264C87.2338 31.2155 87.4987 33.4932 87.4987 35.8633C87.4987 38.3246 87.1455 40.6935 86.6156 42.9737H34.4297V42.8826H86.5273C87.1455 40.6036 87.4104 38.2335 87.4104 35.7722C87.4104 33.402 87.1455 31.123 86.6156 29.0264Z" fill="black"/>
<path d="M34.3838 29.0264H86.7058C87.2361 31.2144 87.5 33.4923 87.5 35.8627C87.5 38.3242 87.2349 40.6945 86.6162 42.9737H34.4722C33.834 40.6609 33.5069 38.2686 33.5 35.8639C33.5 33.4936 33.8535 31.2144 34.3838 29.0264Z" fill="url(#paint12_radial_1_737)"/>
<path d="M79.9009 10.4297L85.636 16.1201L81.3781 20.344L81.6388 20.6888L78.5974 23.1012L77.6416 23.4472L83.8981 17.1546L78.8581 12.1549L72.6016 18.3614L72.8623 17.4994L79.9009 10.4297Z" fill="url(#paint13_linear_1_737)"/>
<path d="M74.4648 9.5C79.5894 12.2553 83.7422 16.5215 86.5683 21.5877V9.5H74.4648Z" fill="url(#paint14_radial_1_737)"/>
<path d="M86.3955 9.5C86.4813 9.5 86.5683 9.58862 86.5683 9.76587H74.4648C74.466 9.58862 74.5519 9.5 74.6377 9.5H86.3955Z" fill="url(#paint15_linear_1_737)"/>
<path d="M86.835 22.2413C86.835 22.4259 86.7468 22.5175 86.6573 22.5175L86.5703 22.3329V9.5H86.6573C86.7456 9.5 86.835 9.59166 86.835 9.77499V22.2413Z" fill="url(#paint16_linear_1_737)"/>
<path d="M79.4077 39.2549C77.0489 39.2549 75.1307 37.794 75.1307 36.0005C75.1307 34.2057 77.0489 32.7461 79.4077 32.7461C81.8156 32.7461 83.7744 34.2057 83.7744 36.0005C83.7744 37.7952 81.8156 39.2549 79.4077 39.2549ZM79.4077 33.7142C78.5597 33.7142 77.9424 34.6761 77.9424 36.0017C77.9424 37.2541 78.5732 38.1986 79.4077 38.1986C80.2006 38.1986 80.8731 37.192 80.8731 36.0017C80.8743 34.7394 80.2153 33.7142 79.4077 33.7142ZM52.5452 39.2549C50.1851 39.2549 48.2669 37.794 48.2669 36.0005C48.2669 34.2839 50.2256 32.8342 52.5452 32.8342C54.9531 32.8342 56.9118 34.2554 56.9118 36.0005C56.9118 37.7952 54.9531 39.2549 52.5452 39.2549ZM52.5452 33.8036C51.7082 33.8036 51.0798 34.7481 51.0798 36.0017C51.0798 37.2541 51.7106 38.1986 52.5452 38.1986C53.338 38.1986 54.0093 37.192 54.0093 36.0017C54.0093 34.8114 53.3404 33.8036 52.5452 33.8036ZM68.2739 39.0761L65.5027 33.8743L64.122 33.8954L64.0852 33.0539L70.1308 33.0167L70.1676 33.8582L68.6286 33.8954L70.7812 37.5036L72.5718 33.8408L71.5446 33.8942L71.5078 33.0527L75.6977 33.0154L75.7345 33.857L74.2839 33.8942L71.5667 39.0774H68.2739V39.0761ZM57.2284 39.0761L57.1916 38.0559L58.6435 38.0199L58.6067 33.857L57.2297 33.8942L57.1929 33.0527L62.7966 33.0154L62.8334 33.857L61.3815 33.8942L61.4184 38.0571L62.8837 38.0211C63.3599 38.0211 64.6142 37.7059 64.7013 36.2686L65.6218 36.2338L65.6586 39.0786H57.2284V39.0761ZM41.4113 39.0761L38.6402 33.8743L37.2595 33.8954L37.2227 33.0539L43.2682 33.0167L43.305 33.8582L41.766 33.8954L43.9187 37.5036L45.7988 33.8408L44.682 33.8954L44.6452 33.0539L48.8351 33.0167L48.8719 33.8582L47.4201 33.8954L44.7029 39.0786L41.4113 39.0761Z" fill="white"/>
<path d="M79.378 32.8197C81.76 32.8197 83.7009 34.2337 83.7009 36.0023C83.7009 37.7685 81.76 39.1837 79.378 39.1837C77.0842 39.1837 75.1433 37.7697 75.1433 36.0023C75.1433 34.2337 77.0842 32.8197 79.378 32.8197ZM79.378 38.2104C80.1708 38.2104 80.8778 37.2383 80.8778 36.0011C80.8778 34.6755 80.172 33.7034 79.378 33.7034C78.4958 33.7034 77.877 34.6755 77.877 36.0011C77.8782 37.2383 78.4958 38.2104 79.378 38.2104ZM52.5586 32.9081C54.9393 32.9081 56.8802 34.322 56.8802 36.0023C56.8802 37.7685 54.9393 39.1837 52.5586 39.1837C50.2648 39.1837 48.3239 37.7697 48.3239 36.0023C48.3239 34.322 50.2648 32.9081 52.5586 32.9081ZM52.5586 38.2104C53.3513 38.2104 54.0583 37.2383 54.0583 36.0011C54.0583 34.7627 53.3525 33.7906 52.5586 33.7906C51.6751 33.7906 51.0576 34.7627 51.0576 36.0011C51.0588 37.2383 51.6763 38.2104 52.5586 38.2104ZM75.6727 33.0849V33.879H74.2623L71.5275 39.0045H68.2633L65.5296 33.879H64.1181V33.0849H70.1171V33.879H68.6174L70.7359 37.5022L72.5886 33.879H71.5299V33.0849H75.6727ZM62.7923 33.0849V33.879H61.3807V38.0324H62.8817C63.4111 38.0324 64.6449 37.6789 64.7344 36.2662H65.6166V39.0045H57.2343V38.0324H58.6459V33.879H57.2343V33.0849H62.7923ZM48.8532 33.0849V33.879H47.4417L44.708 39.0045H41.4426L38.7077 33.879H37.2962V33.0849H43.2953V33.879H41.7955L43.9128 37.5022L45.8537 33.879H44.7068V33.0849H48.8532ZM79.378 32.7461C77.0034 32.7461 75.0686 34.2054 75.0686 36.0011C75.0686 37.7955 77.0009 39.2549 79.378 39.2549C81.8029 39.2549 83.7744 37.7967 83.7744 36.0011C83.7744 34.2042 81.8016 32.7461 79.378 32.7461ZM79.378 38.1367C78.5644 38.1367 77.9517 37.2186 77.9517 36.0023C77.9517 34.7123 78.5509 33.7783 79.378 33.7783C80.1646 33.7783 80.8042 34.7762 80.8042 36.0023C80.8042 37.1585 80.1512 38.1367 79.378 38.1367ZM52.5586 32.8345C50.2231 32.8345 48.2492 34.2852 48.2492 36.0011C48.2492 37.7955 50.1815 39.2549 52.5586 39.2549C54.9834 39.2549 56.9549 37.7967 56.9549 36.0011C56.9549 34.2545 54.9834 32.8345 52.5586 32.8345ZM52.5586 38.1367C51.745 38.1367 51.1323 37.2186 51.1323 36.0023C51.1323 34.7848 51.745 33.8667 52.5586 33.8667C53.3317 33.8667 53.9836 34.8449 53.9836 36.0023C53.9848 37.1585 53.3317 38.1367 52.5586 38.1367ZM75.7462 33.0112H71.4515V33.9551H72.4636L70.7286 37.3512L68.7448 33.9538H70.1907V33.01H64.0433V33.9538H65.4831L68.1971 39.0401L68.2179 39.0794H71.5704L71.5912 39.0401L74.3065 33.9538H75.7474L75.7462 33.0112ZM62.8658 33.0112H57.1608V33.9551H58.5723V37.9612H57.1608V39.0818H65.6901V36.1938H64.6645L64.6596 36.2638C64.5727 37.6568 63.3461 37.9624 62.8805 37.9624H61.4543V33.9563H62.8658V33.0112ZM48.9268 33.0112H44.6333V33.9551H45.7312L43.9104 37.3549L41.9241 33.9551H43.3712V33.0112H37.2227V33.9551H38.6636L41.3789 39.0413L41.3997 39.0806H44.7509L44.7717 39.0413L47.4858 33.9551H48.9268V33.0112Z" fill="#39393C"/>
<path d="M34.3953 29.0264C33.8581 31.2309 33.5 33.5261 33.5 35.9144C33.5 36.1121 33.5659 37.2821 33.5721 37.4798L33.7276 39.2544C33.7251 39.1115 33.6554 36.2193 33.6554 36.0751C33.6554 33.6869 34.0434 31.4733 34.5806 29.2675L53.336 29.1884L61.431 29.0289L34.3953 29.0264Z" fill="url(#paint17_linear_1_737)"/>
</g>
<defs>
<radialGradient id="paint0_radial_1_737" cx="0" cy="0" r="1" gradientUnits="userSpaceOnUse" gradientTransform="translate(41.8588 30.7396) scale(54.4505 55.2578)">
<stop stop-color="white"/>
<stop offset="0.041" stop-color="#FAFAF8"/>
<stop offset="0.225" stop-color="#F8F8F5"/>
<stop offset="0.287" stop-color="#DADAD7"/>
<stop offset="0.413" stop-color="#A3A4A1"/>
<stop offset="0.52" stop-color="#7E7F7D"/>
<stop offset="0.6" stop-color="#686866"/>
<stop offset="0.646" stop-color="#5F5F5D"/>
<stop offset="0.739" stop-color="#565754"/>
<stop offset="0.899" stop-color="#3B3A37"/>
<stop offset="1"/>
</radialGradient>
<linearGradient id="paint1_linear_1_737" x1="49.7863" y1="32.8501" x2="69.316" y2="39.4302" gradientUnits="userSpaceOnUse">
<stop stop-color="#DCDBD3"/>
<stop offset="1" stop-color="white"/>
</linearGradient>
<radialGradient id="paint2_radial_1_737" cx="0" cy="0" r="1" gradientUnits="userSpaceOnUse" gradientTransform="translate(76.63 52.9652) scale(60.4187 60.3387)">
<stop stop-color="#BBBCB7"/>
<stop offset="1" stop-color="#808079"/>
</radialGradient>
<radialGradient id="paint3_radial_1_737" cx="0" cy="0" r="1" gradientUnits="userSpaceOnUse" gradientTransform="translate(69.4769 45.4309) scale(42.1582 42.1021)">
<stop stop-color="white"/>
<stop offset="0.157" stop-color="#F1F1F2"/>
<stop offset="0.298" stop-color="#E4E4E5"/>
<stop offset="0.335" stop-color="#CECFCE"/>
<stop offset="0.4" stop-color="#AEAFAC"/>
<stop offset="0.464" stop-color="#969694"/>
<stop offset="0.526" stop-color="#858683"/>
<stop offset="0.586" stop-color="#7C7C79"/>
<stop offset="0.64" stop-color="#787976"/>
<stop offset="0.738" stop-color="#5E5E5B"/>
<stop offset="0.846" stop-color="#43423F"/>
<stop offset="0.937" stop-color="#1F1F1E"/>
<stop offset="1"/>
</radialGradient>
<linearGradient id="paint4_linear_1_737" x1="36.3901" y1="42.31" x2="36.3901" y2="42.1616" gradientUnits="userSpaceOnUse">
<stop stop-color="white"/>
<stop offset="0.17" stop-color="#F8F8F5"/>
<stop offset="0.427" stop-color="#B1B1AC"/>
<stop offset="0.435" stop-color="#ADAEA8"/>
<stop offset="0.534" stop-color="#898984"/>
<stop offset="0.633" stop-color="#6C6C67"/>
<stop offset="0.731" stop-color="#53534E"/>
<stop offset="0.825" stop-color="#3E3E3A"/>
<stop offset="0.916" stop-color="#252523"/>
<stop offset="1" stop-color="#1B1A19"/>
</linearGradient>
<linearGradient id="paint5_linear_1_737" x1="40.077" y1="42.1544" x2="40.077" y2="42.0942" gradientUnits="userSpaceOnUse">
<stop stop-color="white"/>
<stop offset="0.17" stop-color="#F8F8F5"/>
<stop offset="0.427" stop-color="#B1B1AC"/>
<stop offset="0.435" stop-color="#ADAEA8"/>
<stop offset="0.534" stop-color="#898984"/>
<stop offset="0.633" stop-color="#6C6C67"/>
<stop offset="0.731" stop-color="#53534E"/>
<stop offset="0.825" stop-color="#3E3E3A"/>
<stop offset="0.916" stop-color="#252523"/>
<stop offset="1" stop-color="#1B1A19"/>
</linearGradient>
<linearGradient id="paint6_linear_1_737" x1="40.077" y1="42.1568" x2="40.077" y2="42.0942" gradientUnits="userSpaceOnUse">
<stop stop-color="white"/>
<stop offset="0.17" stop-color="#F8F8F5"/>
<stop offset="0.427" stop-color="#B1B1AC"/>
<stop offset="0.435" stop-color="#ADAEA8"/>
<stop offset="0.534" stop-color="#898984"/>
<stop offset="0.633" stop-color="#6C6C67"/>
<stop offset="0.731" stop-color="#53534E"/>
<stop offset="0.825" stop-color="#3E3E3A"/>
<stop offset="0.916" stop-color="#252523"/>
<stop offset="1" stop-color="#1B1A19"/>
</linearGradient>
<linearGradient id="paint7_linear_1_737" x1="38.2533" y1="42.3102" x2="38.2533" y2="42.1617" gradientUnits="userSpaceOnUse">
<stop stop-color="white"/>
<stop offset="0.17" stop-color="#F8F8F5"/>
<stop offset="0.427" stop-color="#B1B1AC"/>
<stop offset="0.435" stop-color="#ADAEA8"/>
<stop offset="0.534" stop-color="#898984"/>
<stop offset="0.633" stop-color="#6C6C67"/>
<stop offset="0.731" stop-color="#53534E"/>
<stop offset="0.825" stop-color="#3E3E3A"/>
<stop offset="0.916" stop-color="#252523"/>
<stop offset="1" stop-color="#1B1A19"/>
</linearGradient>
<linearGradient id="paint8_linear_1_737" x1="41.1187" y1="42.2145" x2="41.1187" y2="42.12" gradientUnits="userSpaceOnUse">
<stop stop-color="white"/>
<stop offset="0.17" stop-color="#F8F8F5"/>
<stop offset="0.427" stop-color="#B1B1AC"/>
<stop offset="0.435" stop-color="#ADAEA8"/>
<stop offset="0.534" stop-color="#898984"/>
<stop offset="0.633" stop-color="#6C6C67"/>
<stop offset="0.731" stop-color="#53534E"/>
<stop offset="0.825" stop-color="#3E3E3A"/>
<stop offset="0.916" stop-color="#252523"/>
<stop offset="1" stop-color="#1B1A19"/>
</linearGradient>
<linearGradient id="paint9_linear_1_737" x1="40.0153" y1="44.0376" x2="40.0153" y2="42.399" gradientUnits="userSpaceOnUse">
<stop stop-color="white"/>
<stop offset="0.17" stop-color="#F8F8F5"/>
<stop offset="0.427" stop-color="#B1B1AC"/>
<stop offset="0.435" stop-color="#ADAEA8"/>
<stop offset="0.534" stop-color="#898984"/>
<stop offset="0.633" stop-color="#6C6C67"/>
<stop offset="0.731" stop-color="#53534E"/>
<stop offset="0.825" stop-color="#3E3E3A"/>
<stop offset="0.916" stop-color="#252523"/>
<stop offset="1" stop-color="#1B1A19"/>
</linearGradient>
<linearGradient id="paint10_linear_1_737" x1="41.1187" y1="42.1961" x2="41.1187" y2="42.1114" gradientUnits="userSpaceOnUse">
<stop stop-color="white"/>
<stop offset="0.17" stop-color="#F8F8F5"/>
<stop offset="0.427" stop-color="#B1B1AC"/>
<stop offset="0.435" stop-color="#ADAEA8"/>
<stop offset="0.534" stop-color="#898984"/>
<stop offset="0.633" stop-color="#6C6C67"/>
<stop offset="0.731" stop-color="#53534E"/>
<stop offset="0.825" stop-color="#3E3E3A"/>
<stop offset="0.916" stop-color="#252523"/>
<stop offset="1" stop-color="#1B1A19"/>
</linearGradient>
<linearGradient id="paint11_linear_1_737" x1="80.9878" y1="44.0366" x2="80.9878" y2="42.3979" gradientUnits="userSpaceOnUse">
<stop stop-color="white"/>
<stop offset="0.17" stop-color="#F8F8F5"/>
<stop offset="0.427" stop-color="#B1B1AC"/>
<stop offset="0.435" stop-color="#ADAEA8"/>
<stop offset="0.534" stop-color="#898984"/>
<stop offset="0.633" stop-color="#6C6C67"/>
<stop offset="0.731" stop-color="#53534E"/>
<stop offset="0.825" stop-color="#3E3E3A"/>
<stop offset="0.916" stop-color="#252523"/>
<stop offset="1" stop-color="#1B1A19"/>
</linearGradient>
<radialGradient id="paint12_radial_1_737" cx="0" cy="0" r="1" gradientUnits="userSpaceOnUse" gradientTransform="translate(35.9477 30.618) scale(34.1117 35.1869)">
<stop stop-color="#1E71B8"/>
<stop offset="0.082" stop-color="#1C69AB"/>
<stop offset="0.166" stop-color="#1B64A4"/>
<stop offset="0.242" stop-color="#1A63A1"/>
<stop offset="0.392" stop-color="#185D98"/>
<stop offset="0.685" stop-color="#0F4D80"/>
<stop offset="0.837" stop-color="#004472"/>
<stop offset="0.933" stop-color="#014472"/>
<stop offset="0.968" stop-color="#064271"/>
<stop offset="0.993" stop-color="#0D3F6F"/>
<stop offset="1" stop-color="#0F3D6E"/>
</radialGradient>
<linearGradient id="paint13_linear_1_737" x1="85.1291" y1="23.2425" x2="72.1671" y2="10.1747" gradientUnits="userSpaceOnUse">
<stop offset="0.006" stop-color="#121209"/>
<stop offset="0.646" stop-color="#454441"/>
<stop offset="0.65" stop-color="#484845"/>
<stop offset="0.655" stop-color="#535350"/>
<stop offset="0.66" stop-color="#646561"/>
<stop offset="0.664" stop-color="#7B7B77"/>
<stop offset="0.669" stop-color="#969792"/>
<stop offset="0.674" stop-color="#BBBBB7"/>
<stop offset="0.678" stop-color="#E8E7E2"/>
<stop offset="0.68" stop-color="#FBFAF5"/>
<stop offset="0.682" stop-color="#F8F7F2"/>
<stop offset="0.684" stop-color="#F0F0EA"/>
<stop offset="0.685" stop-color="#E4E3DD"/>
<stop offset="0.686" stop-color="#D2D2CC"/>
<stop offset="0.687" stop-color="#BBBCB5"/>
<stop offset="0.689" stop-color="#83847D"/>
<stop offset="0.69" stop-color="#6D6D67"/>
<stop offset="0.706" stop-color="#5F5F5B"/>
<stop offset="0.732" stop-color="#4D4D4B"/>
<stop offset="0.762" stop-color="#3B3A3A"/>
<stop offset="0.8" stop-color="#242324"/>
<stop offset="0.853" stop-color="#101010"/>
<stop offset="1"/>
</linearGradient>
<radialGradient id="paint14_radial_1_737" cx="0" cy="0" r="1" gradientUnits="userSpaceOnUse" gradientTransform="translate(84.5177 10.853) scale(14.251 14.3356)">
<stop stop-color="#575652"/>
<stop offset="1" stop-color="#52524E"/>
</radialGradient>
<linearGradient id="paint15_linear_1_737" x1="74.466" y1="9.63293" x2="86.5671" y2="9.63293" gradientUnits="userSpaceOnUse">
<stop stop-color="#5D5E60"/>
<stop offset="0.019" stop-color="#5B5B5D"/>
<stop offset="0.205" stop-color="#484846"/>
<stop offset="0.41" stop-color="#343431"/>
<stop offset="0.649" stop-color="#222120"/>
<stop offset="1" stop-color="#1B1A19"/>
</linearGradient>
<linearGradient id="paint16_linear_1_737" x1="86.7027" y1="22.5175" x2="86.7027" y2="9.50127" gradientUnits="userSpaceOnUse">
<stop stop-color="#5D5E60"/>
<stop offset="0.386" stop-color="#464543"/>
<stop offset="0.742" stop-color="#2A2927"/>
<stop offset="1" stop-color="#1B1A19"/>
</linearGradient>
<linearGradient id="paint17_linear_1_737" x1="40.7221" y1="24.6236" x2="49.0762" y2="35.6367" gradientUnits="userSpaceOnUse">
<stop stop-color="white"/>
<stop offset="0.109" stop-color="#D5DDF0"/>
<stop offset="0.338" stop-color="#94ADD9"/>
<stop offset="0.542" stop-color="#668FC9"/>
<stop offset="0.714" stop-color="#447DBF"/>
<stop offset="0.848" stop-color="#2A74BA"/>
<stop offset="0.927" stop-color="#1E71B8"/>
<stop offset="0.947" stop-color="#4079BC"/>
<stop offset="0.967" stop-color="#5580C0"/>
<stop offset="0.985" stop-color="#6085C2"/>
<stop offset="1" stop-color="#6486C3"/>
</linearGradient>
<clipPath id="clip0_1_737">
<rect width="54" height="53" fill="white" transform="translate(33.5 9.5)"/>
</clipPath>
</defs>
</svg>
